<?xml version="1.0" encoding="UTF-8"?>
<svg xmlns="http://www.w3.org/2000/svg" viewBox="0 0 100 100" aria-label="crowd">
    <defs><linearGradient id="plate-fill" x1="12%" y1="10%" x2="88%" y2="92%"><stop offset="0%" stop-color="#FFFFFF" stop-opacity="0.94"/><stop offset="22%" stop-color="#D8E6F2" stop-opacity="0.96"/><stop offset="68%" stop-color="#37506A" stop-opacity="0.22"/><stop offset="100%" stop-color="#0F172A" stop-opacity="0.08"/></linearGradient><linearGradient id="fill-base" x1="18%" y1="10%" x2="84%" y2="92%"><stop offset="0%" stop-color="#D8E6F2" stop-opacity="0.88"/><stop offset="28%" stop-color="#37506A" stop-opacity="0.98"/><stop offset="100%" stop-color="#0F172A" stop-opacity="0.92"/></linearGradient><linearGradient id="fill-accent" x1="10%" y1="8%" x2="88%" y2="94%"><stop offset="0%" stop-color="#FFFFFF" stop-opacity="0.9"/><stop offset="24%" stop-color="#D8E6F2" stop-opacity="0.92"/><stop offset="100%" stop-color="#38BDF8" stop-opacity="1"/></linearGradient><linearGradient id="fill-muted" x1="8%" y1="8%" x2="92%" y2="92%"><stop offset="0%" stop-color="#FFFFFF" stop-opacity="0.96"/><stop offset="100%" stop-color="#D8E6F2" stop-opacity="0.94"/></linearGradient><radialGradient id="ambient-glow" cx="26%" cy="18%" r="84%"><stop offset="0%" stop-color="#38BDF8" stop-opacity="0.22"/><stop offset="42%" stop-color="#D8E6F2" stop-opacity="0.18"/><stop offset="100%" stop-color="#FFFFFF" stop-opacity="0"/></radialGradient></defs>
    <circle cx="50" cy="54" r="39" fill="#0F172A" stroke="none" stroke-width="3" stroke-linecap="round" stroke-linejoin="round" opacity="0.12"/>
    <circle cx="50" cy="50" r="44" fill="url(#ambient-glow)" stroke="none" stroke-width="3" stroke-linecap="round" stroke-linejoin="round"/>
    <circle cx="50" cy="50" r="40" fill="url(#plate-fill)" stroke="#0F172A" stroke-width="2.4" stroke-linecap="round" stroke-linejoin="round" opacity="0.98"/>
    <circle cx="50" cy="50" r="34" fill="none" stroke="#FFFFFF" stroke-width="1.4" stroke-linecap="round" stroke-linejoin="round" opacity="0.34"/>
    <path d="M 28 31 Q 50 20 72 28" fill="none" stroke="#FFFFFF" stroke-width="3" stroke-linecap="round" stroke-linejoin="round" opacity="0.42"/>
    <g transform="translate(0 3)" opacity="0.16"><circle cx="28" cy="38.449999999999996" r="6.159999999999999" fill="#0F172A" stroke="none" stroke-width="3" stroke-linecap="round" stroke-linejoin="round" opacity="0.18"/><circle cx="28" cy="37.4" r="4.8999999999999995" fill="#0F172A" stroke="#0F172A" stroke-width="3" stroke-linecap="round" stroke-linejoin="round"/><path d="M 24.64 36.559999999999995 Q 28 33.06 31.36 36.559999999999995 Q 28 38.66 24.64 36.559999999999995 Z" fill="#0F172A" stroke="none" stroke-width="3" stroke-linecap="round" stroke-linejoin="round" opacity="0.42"/><rect x="21.7" y="47.2" width="12.6" height="14.0" rx="5.6" fill="#0F172A" stroke="#0F172A" stroke-width="3" stroke-linecap="round" stroke-linejoin="round"/><rect x="23.45" y="49.580000000000005" width="9.1" height="3.5" rx="1.8199999999999998" fill="#0F172A" stroke="none" stroke-width="3" stroke-linecap="round" stroke-linejoin="round" opacity="0.54"/><path d="M 23.099999999999998 59.800000000000004 Q 28 64.7 32.9 59.800000000000004" fill="none" stroke="#0F172A" stroke-width="1.9" stroke-linecap="round" stroke-linejoin="round" opacity="0.52"/><line x1="28" y1="61.2" x2="28" y2="68.2" fill="none" stroke="#0F172A" stroke-width="2.4" stroke-linecap="round" stroke-linejoin="round"/><line x1="22.4" y1="52.800000000000004" x2="33.6" y2="52.800000000000004" fill="none" stroke="#0F172A" stroke-width="2.4" stroke-linecap="round" stroke-linejoin="round"/><line x1="28" y1="68.2" x2="23.1" y2="73.8" fill="none" stroke="#0F172A" stroke-width="2.4" stroke-linecap="round" stroke-linejoin="round"/><line x1="28" y1="68.2" x2="32.9" y2="73.8" fill="none" stroke="#0F172A" stroke-width="2.4" stroke-linecap="round" stroke-linejoin="round"/><ellipse cx="23.8" cy="74.15" rx="2.2399999999999998" ry="1.1199999999999999" fill="#0F172A" stroke="none" stroke-width="3" stroke-linecap="round" stroke-linejoin="round" opacity="0.92"/><ellipse cx="32.2" cy="74.15" rx="2.2399999999999998" ry="1.1199999999999999" fill="#0F172A" stroke="none" stroke-width="3" stroke-linecap="round" stroke-linejoin="round" opacity="0.92"/><circle cx="42" cy="30.150000000000002" r="7.92" fill="#0F172A" stroke="none" stroke-width="3" stroke-linecap="round" stroke-linejoin="round" opacity="0.18"/><circle cx="42" cy="28.8" r="6.3" fill="#0F172A" stroke="#0F172A" stroke-width="3" stroke-linecap="round" stroke-linejoin="round"/><path d="M 37.68 27.72 Q 42 23.22 46.32 27.72 Q 42 30.42 37.68 27.72 Z" fill="#0F172A" stroke="none" stroke-width="3" stroke-linecap="round" stroke-linejoin="round" opacity="0.42"/><rect x="33.9" y="41.4" width="16.2" height="18.0" rx="7.2" fill="#0F172A" stroke="#0F172A" stroke-width="3" stroke-linecap="round" stroke-linejoin="round"/><rect x="36.15" y="44.46" width="11.7" height="4.5" rx="2.3400000000000003" fill="#0F172A" stroke="none" stroke-width="3" stroke-linecap="round" stroke-linejoin="round" opacity="0.54"/><path d="M 35.699999999999996 57.6 Q 42 63.9 48.3 57.6" fill="none" stroke="#0F172A" stroke-width="2.25" stroke-linecap="round" stroke-linejoin="round" opacity="0.52"/><line x1="42" y1="59.4" x2="42" y2="68.4" fill="none" stroke="#0F172A" stroke-width="2.7" stroke-linecap="round" stroke-linejoin="round"/><line x1="34.8" y1="48.6" x2="49.2" y2="48.6" fill="none" stroke="#0F172A" stroke-width="2.7" stroke-linecap="round" stroke-linejoin="round"/><line x1="42" y1="68.4" x2="35.7" y2="75.6" fill="none" stroke="#0F172A" stroke-width="2.7" stroke-linecap="round" stroke-linejoin="round"/><line x1="42" y1="68.4" x2="48.3" y2="75.6" fill="none" stroke="#0F172A" stroke-width="2.7" stroke-linecap="round" stroke-linejoin="round"/><ellipse cx="36.6" cy="76.05" rx="2.8800000000000003" ry="1.4400000000000002" fill="#0F172A" stroke="none" stroke-width="3" stroke-linecap="round" stroke-linejoin="round" opacity="0.92"/><ellipse cx="47.4" cy="76.05" rx="2.8800000000000003" ry="1.4400000000000002" fill="#0F172A" stroke="none" stroke-width="3" stroke-linecap="round" stroke-linejoin="round" opacity="0.92"/><circle cx="58" cy="30.150000000000002" r="7.92" fill="#0F172A" stroke="none" stroke-width="3" stroke-linecap="round" stroke-linejoin="round" opacity="0.18"/><circle cx="58" cy="28.8" r="6.3" fill="#0F172A" stroke="#0F172A" stroke-width="3" stroke-linecap="round" stroke-linejoin="round"/><path d="M 53.68 27.72 Q 58 23.22 62.32 27.72 Q 58 30.42 53.68 27.72 Z" fill="#0F172A" stroke="none" stroke-width="3" stroke-linecap="round" stroke-linejoin="round" opacity="0.42"/><rect x="49.9" y="41.4" width="16.2" height="18.0" rx="7.2" fill="#0F172A" stroke="#0F172A" stroke-width="3" stroke-linecap="round" stroke-linejoin="round"/><rect x="52.15" y="44.46" width="11.7" height="4.5" rx="2.3400000000000003" fill="#0F172A" stroke="none" stroke-width="3" stroke-linecap="round" stroke-linejoin="round" opacity="0.54"/><path d="M 51.699999999999996 57.6 Q 58 63.9 64.3 57.6" fill="none" stroke="#0F172A" stroke-width="2.25" stroke-linecap="round" stroke-linejoin="round" opacity="0.52"/><line x1="58" y1="59.4" x2="58" y2="68.4" fill="none" stroke="#0F172A" stroke-width="2.7" stroke-linecap="round" stroke-linejoin="round"/><line x1="50.8" y1="48.6" x2="65.2" y2="48.6" fill="none" stroke="#0F172A" stroke-width="2.7" stroke-linecap="round" stroke-linejoin="round"/><line x1="58" y1="68.4" x2="51.7" y2="75.6" fill="none" stroke="#0F172A" stroke-width="2.7" stroke-linecap="round" stroke-linejoin="round"/><line x1="58" y1="68.4" x2="64.3" y2="75.6" fill="none" stroke="#0F172A" stroke-width="2.7" stroke-linecap="round" stroke-linejoin="round"/><ellipse cx="52.6" cy="76.05" rx="2.8800000000000003" ry="1.4400000000000002" fill="#0F172A" stroke="none" stroke-width="3" stroke-linecap="round" stroke-linejoin="round" opacity="0.92"/><ellipse cx="63.4" cy="76.05" rx="2.8800000000000003" ry="1.4400000000000002" fill="#0F172A" stroke="none" stroke-width="3" stroke-linecap="round" stroke-linejoin="round" opacity="0.92"/><circle cx="72" cy="38.449999999999996" r="6.159999999999999" fill="#0F172A" stroke="none" stroke-width="3" stroke-linecap="round" stroke-linejoin="round" opacity="0.18"/><circle cx="72" cy="37.4" r="4.8999999999999995" fill="#0F172A" stroke="#0F172A" stroke-width="3" stroke-linecap="round" stroke-linejoin="round"/><path d="M 68.64 36.559999999999995 Q 72 33.06 75.36 36.559999999999995 Q 72 38.66 68.64 36.559999999999995 Z" fill="#0F172A" stroke="none" stroke-width="3" stroke-linecap="round" stroke-linejoin="round" opacity="0.42"/><rect x="65.7" y="47.2" width="12.6" height="14.0" rx="5.6" fill="#0F172A" stroke="#0F172A" stroke-width="3" stroke-linecap="round" stroke-linejoin="round"/><rect x="67.45" y="49.580000000000005" width="9.1" height="3.5" rx="1.8199999999999998" fill="#0F172A" stroke="none" stroke-width="3" stroke-linecap="round" stroke-linejoin="round" opacity="0.54"/><path d="M 67.10000000000001 59.800000000000004 Q 72 64.7 76.89999999999999 59.800000000000004" fill="none" stroke="#0F172A" stroke-width="1.9" stroke-linecap="round" stroke-linejoin="round" opacity="0.52"/><line x1="72" y1="61.2" x2="72" y2="68.2" fill="none" stroke="#0F172A" stroke-width="2.4" stroke-linecap="round" stroke-linejoin="round"/><line x1="66.4" y1="52.800000000000004" x2="77.6" y2="52.800000000000004" fill="none" stroke="#0F172A" stroke-width="2.4" stroke-linecap="round" stroke-linejoin="round"/><line x1="72" y1="68.2" x2="67.1" y2="73.8" fill="none" stroke="#0F172A" stroke-width="2.4" stroke-linecap="round" stroke-linejoin="round"/><line x1="72" y1="68.2" x2="76.9" y2="73.8" fill="none" stroke="#0F172A" stroke-width="2.4" stroke-linecap="round" stroke-linejoin="round"/><ellipse cx="67.8" cy="74.15" rx="2.2399999999999998" ry="1.1199999999999999" fill="#0F172A" stroke="none" stroke-width="3" stroke-linecap="round" stroke-linejoin="round" opacity="0.92"/><ellipse cx="76.2" cy="74.15" rx="2.2399999999999998" ry="1.1199999999999999" fill="#0F172A" stroke="none" stroke-width="3" stroke-linecap="round" stroke-linejoin="round" opacity="0.92"/><circle cx="50" cy="45.625" r="6.6" fill="#0F172A" stroke="none" stroke-width="3" stroke-linecap="round" stroke-linejoin="round" opacity="0.18"/><circle cx="50" cy="44.5" r="5.25" fill="#0F172A" stroke="#0F172A" stroke-width="3" stroke-linecap="round" stroke-linejoin="round"/><path d="M 46.4 43.6 Q 50 39.85 53.6 43.6 Q 50 45.85 46.4 43.6 Z" fill="#0F172A" stroke="none" stroke-width="3" stroke-linecap="round" stroke-linejoin="round" opacity="0.42"/><rect x="43.25" y="55.0" width="13.5" height="15.0" rx="6.0" fill="#0F172A" stroke="#0F172A" stroke-width="3" stroke-linecap="round" stroke-linejoin="round"/><rect x="45.125" y="57.55" width="9.75" height="3.75" rx="1.9500000000000002" fill="#0F172A" stroke="none" stroke-width="3" stroke-linecap="round" stroke-linejoin="round" opacity="0.54"/><path d="M 44.75 68.5 Q 50 73.75 55.25 68.5" fill="none" stroke="#0F172A" stroke-width="1.9" stroke-linecap="round" stroke-linejoin="round" opacity="0.52"/><line x1="50" y1="70.0" x2="50" y2="77.5" fill="none" stroke="#0F172A" stroke-width="2.4" stroke-linecap="round" stroke-linejoin="round"/><line x1="44.0" y1="61.0" x2="56.0" y2="61.0" fill="none" stroke="#0F172A" stroke-width="2.4" stroke-linecap="round" stroke-linejoin="round"/><line x1="50" y1="77.5" x2="44.75" y2="83.5" fill="none" stroke="#0F172A" stroke-width="2.4" stroke-linecap="round" stroke-linejoin="round"/><line x1="50" y1="77.5" x2="55.25" y2="83.5" fill="none" stroke="#0F172A" stroke-width="2.4" stroke-linecap="round" stroke-linejoin="round"/><ellipse cx="45.5" cy="83.875" rx="2.4000000000000004" ry="1.2000000000000002" fill="#0F172A" stroke="none" stroke-width="3" stroke-linecap="round" stroke-linejoin="round" opacity="0.92"/><ellipse cx="54.5" cy="83.875" rx="2.4000000000000004" ry="1.2000000000000002" fill="#0F172A" stroke="none" stroke-width="3" stroke-linecap="round" stroke-linejoin="round" opacity="0.92"/></g>
    <g transform="translate(0 1)"><circle cx="28" cy="38.449999999999996" r="6.159999999999999" fill="url(#fill-accent)" stroke="none" stroke-width="3" stroke-linecap="round" stroke-linejoin="round" opacity="0.18"/><circle cx="28" cy="37.4" r="4.8999999999999995" fill="url(#fill-base)" stroke="#0F172A" stroke-width="3" stroke-linecap="round" stroke-linejoin="round"/><path d="M 24.64 36.559999999999995 Q 28 33.06 31.36 36.559999999999995 Q 28 38.66 24.64 36.559999999999995 Z" fill="url(#fill-muted)" stroke="none" stroke-width="3" stroke-linecap="round" stroke-linejoin="round" opacity="0.42"/><rect x="21.7" y="47.2" width="12.6" height="14.0" rx="5.6" fill="url(#fill-accent)" stroke="#0F172A" stroke-width="3" stroke-linecap="round" stroke-linejoin="round"/><rect x="23.45" y="49.580000000000005" width="9.1" height="3.5" rx="1.8199999999999998" fill="url(#fill-muted)" stroke="none" stroke-width="3" stroke-linecap="round" stroke-linejoin="round" opacity="0.54"/><path d="M 23.099999999999998 59.800000000000004 Q 28 64.7 32.9 59.800000000000004" fill="none" stroke="#37506A" stroke-width="1.9" stroke-linecap="round" stroke-linejoin="round" opacity="0.52"/><line x1="28" y1="61.2" x2="28" y2="68.2" fill="none" stroke="#0F172A" stroke-width="2.4" stroke-linecap="round" stroke-linejoin="round"/><line x1="22.4" y1="52.800000000000004" x2="33.6" y2="52.800000000000004" fill="none" stroke="#0F172A" stroke-width="2.4" stroke-linecap="round" stroke-linejoin="round"/><line x1="28" y1="68.2" x2="23.1" y2="73.8" fill="none" stroke="#0F172A" stroke-width="2.4" stroke-linecap="round" stroke-linejoin="round"/><line x1="28" y1="68.2" x2="32.9" y2="73.8" fill="none" stroke="#0F172A" stroke-width="2.4" stroke-linecap="round" stroke-linejoin="round"/><ellipse cx="23.8" cy="74.15" rx="2.2399999999999998" ry="1.1199999999999999" fill="url(#fill-base)" stroke="none" stroke-width="3" stroke-linecap="round" stroke-linejoin="round" opacity="0.92"/><ellipse cx="32.2" cy="74.15" rx="2.2399999999999998" ry="1.1199999999999999" fill="url(#fill-base)" stroke="none" stroke-width="3" stroke-linecap="round" stroke-linejoin="round" opacity="0.92"/><circle cx="42" cy="30.150000000000002" r="7.92" fill="url(#fill-accent)" stroke="none" stroke-width="3" stroke-linecap="round" stroke-linejoin="round" opacity="0.18"/><circle cx="42" cy="28.8" r="6.3" fill="url(#fill-base)" stroke="#0F172A" stroke-width="3" stroke-linecap="round" stroke-linejoin="round"/><path d="M 37.68 27.72 Q 42 23.22 46.32 27.72 Q 42 30.42 37.68 27.72 Z" fill="url(#fill-muted)" stroke="none" stroke-width="3" stroke-linecap="round" stroke-linejoin="round" opacity="0.42"/><rect x="33.9" y="41.4" width="16.2" height="18.0" rx="7.2" fill="url(#fill-accent)" stroke="#0F172A" stroke-width="3" stroke-linecap="round" stroke-linejoin="round"/><rect x="36.15" y="44.46" width="11.7" height="4.5" rx="2.3400000000000003" fill="url(#fill-muted)" stroke="none" stroke-width="3" stroke-linecap="round" stroke-linejoin="round" opacity="0.54"/><path d="M 35.699999999999996 57.6 Q 42 63.9 48.3 57.6" fill="none" stroke="#37506A" stroke-width="2.25" stroke-linecap="round" stroke-linejoin="round" opacity="0.52"/><line x1="42" y1="59.4" x2="42" y2="68.4" fill="none" stroke="#0F172A" stroke-width="2.7" stroke-linecap="round" stroke-linejoin="round"/><line x1="34.8" y1="48.6" x2="49.2" y2="48.6" fill="none" stroke="#0F172A" stroke-width="2.7" stroke-linecap="round" stroke-linejoin="round"/><line x1="42" y1="68.4" x2="35.7" y2="75.6" fill="none" stroke="#0F172A" stroke-width="2.7" stroke-linecap="round" stroke-linejoin="round"/><line x1="42" y1="68.4" x2="48.3" y2="75.6" fill="none" stroke="#0F172A" stroke-width="2.7" stroke-linecap="round" stroke-linejoin="round"/><ellipse cx="36.6" cy="76.05" rx="2.8800000000000003" ry="1.4400000000000002" fill="url(#fill-base)" stroke="none" stroke-width="3" stroke-linecap="round" stroke-linejoin="round" opacity="0.92"/><ellipse cx="47.4" cy="76.05" rx="2.8800000000000003" ry="1.4400000000000002" fill="url(#fill-base)" stroke="none" stroke-width="3" stroke-linecap="round" stroke-linejoin="round" opacity="0.92"/><circle cx="58" cy="30.150000000000002" r="7.92" fill="url(#fill-accent)" stroke="none" stroke-width="3" stroke-linecap="round" stroke-linejoin="round" opacity="0.18"/><circle cx="58" cy="28.8" r="6.3" fill="url(#fill-base)" stroke="#0F172A" stroke-width="3" stroke-linecap="round" stroke-linejoin="round"/><path d="M 53.68 27.72 Q 58 23.22 62.32 27.72 Q 58 30.42 53.68 27.72 Z" fill="url(#fill-muted)" stroke="none" stroke-width="3" stroke-linecap="round" stroke-linejoin="round" opacity="0.42"/><rect x="49.9" y="41.4" width="16.2" height="18.0" rx="7.2" fill="url(#fill-accent)" stroke="#0F172A" stroke-width="3" stroke-linecap="round" stroke-linejoin="round"/><rect x="52.15" y="44.46" width="11.7" height="4.5" rx="2.3400000000000003" fill="url(#fill-muted)" stroke="none" stroke-width="3" stroke-linecap="round" stroke-linejoin="round" opacity="0.54"/><path d="M 51.699999999999996 57.6 Q 58 63.9 64.3 57.6" fill="none" stroke="#37506A" stroke-width="2.25" stroke-linecap="round" stroke-linejoin="round" opacity="0.52"/><line x1="58" y1="59.4" x2="58" y2="68.4" fill="none" stroke="#0F172A" stroke-width="2.7" stroke-linecap="round" stroke-linejoin="round"/><line x1="50.8" y1="48.6" x2="65.2" y2="48.6" fill="none" stroke="#0F172A" stroke-width="2.7" stroke-linecap="round" stroke-linejoin="round"/><line x1="58" y1="68.4" x2="51.7" y2="75.6" fill="none" stroke="#0F172A" stroke-width="2.7" stroke-linecap="round" stroke-linejoin="round"/><line x1="58" y1="68.4" x2="64.3" y2="75.6" fill="none" stroke="#0F172A" stroke-width="2.7" stroke-linecap="round" stroke-linejoin="round"/><ellipse cx="52.6" cy="76.05" rx="2.8800000000000003" ry="1.4400000000000002" fill="url(#fill-base)" stroke="none" stroke-width="3" stroke-linecap="round" stroke-linejoin="round" opacity="0.92"/><ellipse cx="63.4" cy="76.05" rx="2.8800000000000003" ry="1.4400000000000002" fill="url(#fill-base)" stroke="none" stroke-width="3" stroke-linecap="round" stroke-linejoin="round" opacity="0.92"/><circle cx="72" cy="38.449999999999996" r="6.159999999999999" fill="url(#fill-accent)" stroke="none" stroke-width="3" stroke-linecap="round" stroke-linejoin="round" opacity="0.18"/><circle cx="72" cy="37.4" r="4.8999999999999995" fill="url(#fill-base)" stroke="#0F172A" stroke-width="3" stroke-linecap="round" stroke-linejoin="round"/><path d="M 68.64 36.559999999999995 Q 72 33.06 75.36 36.559999999999995 Q 72 38.66 68.64 36.559999999999995 Z" fill="url(#fill-muted)" stroke="none" stroke-width="3" stroke-linecap="round" stroke-linejoin="round" opacity="0.42"/><rect x="65.7" y="47.2" width="12.6" height="14.0" rx="5.6" fill="url(#fill-accent)" stroke="#0F172A" stroke-width="3" stroke-linecap="round" stroke-linejoin="round"/><rect x="67.45" y="49.580000000000005" width="9.1" height="3.5" rx="1.8199999999999998" fill="url(#fill-muted)" stroke="none" stroke-width="3" stroke-linecap="round" stroke-linejoin="round" opacity="0.54"/><path d="M 67.10000000000001 59.800000000000004 Q 72 64.7 76.89999999999999 59.800000000000004" fill="none" stroke="#37506A" stroke-width="1.9" stroke-linecap="round" stroke-linejoin="round" opacity="0.52"/><line x1="72" y1="61.2" x2="72" y2="68.2" fill="none" stroke="#0F172A" stroke-width="2.4" stroke-linecap="round" stroke-linejoin="round"/><line x1="66.4" y1="52.800000000000004" x2="77.6" y2="52.800000000000004" fill="none" stroke="#0F172A" stroke-width="2.4" stroke-linecap="round" stroke-linejoin="round"/><line x1="72" y1="68.2" x2="67.1" y2="73.8" fill="none" stroke="#0F172A" stroke-width="2.4" stroke-linecap="round" stroke-linejoin="round"/><line x1="72" y1="68.2" x2="76.9" y2="73.8" fill="none" stroke="#0F172A" stroke-width="2.4" stroke-linecap="round" stroke-linejoin="round"/><ellipse cx="67.8" cy="74.15" rx="2.2399999999999998" ry="1.1199999999999999" fill="url(#fill-base)" stroke="none" stroke-width="3" stroke-linecap="round" stroke-linejoin="round" opacity="0.92"/><ellipse cx="76.2" cy="74.15" rx="2.2399999999999998" ry="1.1199999999999999" fill="url(#fill-base)" stroke="none" stroke-width="3" stroke-linecap="round" stroke-linejoin="round" opacity="0.92"/><circle cx="50" cy="45.625" r="6.6" fill="url(#fill-accent)" stroke="none" stroke-width="3" stroke-linecap="round" stroke-linejoin="round" opacity="0.18"/><circle cx="50" cy="44.5" r="5.25" fill="url(#fill-base)" stroke="#0F172A" stroke-width="3" stroke-linecap="round" stroke-linejoin="round"/><path d="M 46.4 43.6 Q 50 39.85 53.6 43.6 Q 50 45.85 46.4 43.6 Z" fill="url(#fill-muted)" stroke="none" stroke-width="3" stroke-linecap="round" stroke-linejoin="round" opacity="0.42"/><rect x="43.25" y="55.0" width="13.5" height="15.0" rx="6.0" fill="url(#fill-accent)" stroke="#0F172A" stroke-width="3" stroke-linecap="round" stroke-linejoin="round"/><rect x="45.125" y="57.55" width="9.75" height="3.75" rx="1.9500000000000002" fill="url(#fill-muted)" stroke="none" stroke-width="3" stroke-linecap="round" stroke-linejoin="round" opacity="0.54"/><path d="M 44.75 68.5 Q 50 73.75 55.25 68.5" fill="none" stroke="#37506A" stroke-width="1.9" stroke-linecap="round" stroke-linejoin="round" opacity="0.52"/><line x1="50" y1="70.0" x2="50" y2="77.5" fill="none" stroke="#0F172A" stroke-width="2.4" stroke-linecap="round" stroke-linejoin="round"/><line x1="44.0" y1="61.0" x2="56.0" y2="61.0" fill="none" stroke="#0F172A" stroke-width="2.4" stroke-linecap="round" stroke-linejoin="round"/><line x1="50" y1="77.5" x2="44.75" y2="83.5" fill="none" stroke="#0F172A" stroke-width="2.4" stroke-linecap="round" stroke-linejoin="round"/><line x1="50" y1="77.5" x2="55.25" y2="83.5" fill="none" stroke="#0F172A" stroke-width="2.4" stroke-linecap="round" stroke-linejoin="round"/><ellipse cx="45.5" cy="83.875" rx="2.4000000000000004" ry="1.2000000000000002" fill="url(#fill-base)" stroke="none" stroke-width="3" stroke-linecap="round" stroke-linejoin="round" opacity="0.92"/><ellipse cx="54.5" cy="83.875" rx="2.4000000000000004" ry="1.2000000000000002" fill="url(#fill-base)" stroke="none" stroke-width="3" stroke-linecap="round" stroke-linejoin="round" opacity="0.92"/></g>
    <circle cx="74" cy="24" r="3.5" fill="url(#fill-accent)" stroke="none" stroke-width="3" stroke-linecap="round" stroke-linejoin="round" opacity="0.92"/>
    <circle cx="68" cy="30" r="1.8" fill="#FFFFFF" stroke="none" stroke-width="3" stroke-linecap="round" stroke-linejoin="round" opacity="0.82"/>
</svg>
