<?xml version="1.0" encoding="UTF-8"?>
<svg xmlns="http://www.w3.org/2000/svg" viewBox="0 0 100 100" aria-label="family">
    <defs><linearGradient id="plate-fill" x1="12%" y1="10%" x2="88%" y2="92%"><stop offset="0%" stop-color="#FFFFFF" stop-opacity="0.94"/><stop offset="22%" stop-color="#D8E6F2" stop-opacity="0.96"/><stop offset="68%" stop-color="#37506A" stop-opacity="0.22"/><stop offset="100%" stop-color="#0F172A" stop-opacity="0.08"/></linearGradient><linearGradient id="fill-base" x1="18%" y1="10%" x2="84%" y2="92%"><stop offset="0%" stop-color="#D8E6F2" stop-opacity="0.88"/><stop offset="28%" stop-color="#37506A" stop-opacity="0.98"/><stop offset="100%" stop-color="#0F172A" stop-opacity="0.92"/></linearGradient><linearGradient id="fill-accent" x1="10%" y1="8%" x2="88%" y2="94%"><stop offset="0%" stop-color="#FFFFFF" stop-opacity="0.9"/><stop offset="24%" stop-color="#D8E6F2" stop-opacity="0.92"/><stop offset="100%" stop-color="#38BDF8" stop-opacity="1"/></linearGradient><linearGradient id="fill-muted" x1="8%" y1="8%" x2="92%" y2="92%"><stop offset="0%" stop-color="#FFFFFF" stop-opacity="0.96"/><stop offset="100%" stop-color="#D8E6F2" stop-opacity="0.94"/></linearGradient><radialGradient id="ambient-glow" cx="26%" cy="18%" r="84%"><stop offset="0%" stop-color="#38BDF8" stop-opacity="0.22"/><stop offset="42%" stop-color="#D8E6F2" stop-opacity="0.18"/><stop offset="100%" stop-color="#FFFFFF" stop-opacity="0"/></radialGradient></defs>
    <circle cx="50" cy="54" r="39" fill="#0F172A" stroke="none" stroke-width="3" stroke-linecap="round" stroke-linejoin="round" opacity="0.12"/>
    <circle cx="50" cy="50" r="44" fill="url(#ambient-glow)" stroke="none" stroke-width="3" stroke-linecap="round" stroke-linejoin="round"/>
    <circle cx="50" cy="50" r="40" fill="url(#plate-fill)" stroke="#0F172A" stroke-width="2.4" stroke-linecap="round" stroke-linejoin="round" opacity="0.98"/>
    <circle cx="50" cy="50" r="34" fill="none" stroke="#FFFFFF" stroke-width="1.4" stroke-linecap="round" stroke-linejoin="round" opacity="0.34"/>
    <path d="M 28 31 Q 50 20 72 28" fill="none" stroke="#FFFFFF" stroke-width="3" stroke-linecap="round" stroke-linejoin="round" opacity="0.42"/>
    <g transform="translate(0 3)" opacity="0.16"><circle cx="35" cy="33.5" r="8.8" fill="#0F172A" stroke="none" stroke-width="3" stroke-linecap="round" stroke-linejoin="round" opacity="0.18"/><circle cx="35" cy="32.0" r="7.0" fill="#0F172A" stroke="#0F172A" stroke-width="3" stroke-linecap="round" stroke-linejoin="round"/><path d="M 30.2 30.8 Q 35 25.8 39.8 30.8 Q 35 33.8 30.2 30.8 Z" fill="#0F172A" stroke="none" stroke-width="3" stroke-linecap="round" stroke-linejoin="round" opacity="0.42"/><rect x="26.0" y="46.0" width="18.0" height="20.0" rx="8.0" fill="#0F172A" stroke="#0F172A" stroke-width="3" stroke-linecap="round" stroke-linejoin="round"/><rect x="28.5" y="49.4" width="13.0" height="5.0" rx="2.6" fill="#0F172A" stroke="none" stroke-width="3" stroke-linecap="round" stroke-linejoin="round" opacity="0.54"/><path d="M 28.0 64.0 Q 35 71.0 42.0 64.0" fill="none" stroke="#0F172A" stroke-width="2.5" stroke-linecap="round" stroke-linejoin="round" opacity="0.52"/><line x1="35" y1="66.0" x2="35" y2="76.0" fill="none" stroke="#0F172A" stroke-width="3.0" stroke-linecap="round" stroke-linejoin="round"/><line x1="27.0" y1="54.0" x2="43.0" y2="54.0" fill="none" stroke="#0F172A" stroke-width="3.0" stroke-linecap="round" stroke-linejoin="round"/><line x1="35" y1="76.0" x2="28.0" y2="84.0" fill="none" stroke="#0F172A" stroke-width="3.0" stroke-linecap="round" stroke-linejoin="round"/><line x1="35" y1="76.0" x2="42.0" y2="84.0" fill="none" stroke="#0F172A" stroke-width="3.0" stroke-linecap="round" stroke-linejoin="round"/><ellipse cx="29.0" cy="84.5" rx="3.2" ry="1.6" fill="#0F172A" stroke="none" stroke-width="3" stroke-linecap="round" stroke-linejoin="round" opacity="0.92"/><ellipse cx="41.0" cy="84.5" rx="3.2" ry="1.6" fill="#0F172A" stroke="none" stroke-width="3" stroke-linecap="round" stroke-linejoin="round" opacity="0.92"/><circle cx="65" cy="33.5" r="8.8" fill="#0F172A" stroke="none" stroke-width="3" stroke-linecap="round" stroke-linejoin="round" opacity="0.18"/><circle cx="65" cy="32.0" r="7.0" fill="#0F172A" stroke="#0F172A" stroke-width="3" stroke-linecap="round" stroke-linejoin="round"/><path d="M 60.2 30.8 Q 65 25.8 69.8 30.8 Q 65 33.8 60.2 30.8 Z" fill="#0F172A" stroke="none" stroke-width="3" stroke-linecap="round" stroke-linejoin="round" opacity="0.42"/><rect x="56.0" y="46.0" width="18.0" height="20.0" rx="8.0" fill="#0F172A" stroke="#0F172A" stroke-width="3" stroke-linecap="round" stroke-linejoin="round"/><rect x="58.5" y="49.4" width="13.0" height="5.0" rx="2.6" fill="#0F172A" stroke="none" stroke-width="3" stroke-linecap="round" stroke-linejoin="round" opacity="0.54"/><path d="M 58.0 64.0 Q 65 71.0 72.0 64.0" fill="none" stroke="#0F172A" stroke-width="2.5" stroke-linecap="round" stroke-linejoin="round" opacity="0.52"/><line x1="65" y1="66.0" x2="65" y2="76.0" fill="none" stroke="#0F172A" stroke-width="3.0" stroke-linecap="round" stroke-linejoin="round"/><line x1="57.0" y1="54.0" x2="73.0" y2="54.0" fill="none" stroke="#0F172A" stroke-width="3.0" stroke-linecap="round" stroke-linejoin="round"/><line x1="65" y1="76.0" x2="58.0" y2="84.0" fill="none" stroke="#0F172A" stroke-width="3.0" stroke-linecap="round" stroke-linejoin="round"/><line x1="65" y1="76.0" x2="72.0" y2="84.0" fill="none" stroke="#0F172A" stroke-width="3.0" stroke-linecap="round" stroke-linejoin="round"/><ellipse cx="59.0" cy="84.5" rx="3.2" ry="1.6" fill="#0F172A" stroke="none" stroke-width="3" stroke-linecap="round" stroke-linejoin="round" opacity="0.92"/><ellipse cx="71.0" cy="84.5" rx="3.2" ry="1.6" fill="#0F172A" stroke="none" stroke-width="3" stroke-linecap="round" stroke-linejoin="round" opacity="0.92"/><circle cx="50" cy="48.12" r="6.336" fill="#0F172A" stroke="none" stroke-width="3" stroke-linecap="round" stroke-linejoin="round" opacity="0.18"/><circle cx="50" cy="47.04" r="5.04" fill="#0F172A" stroke="#0F172A" stroke-width="3" stroke-linecap="round" stroke-linejoin="round"/><path d="M 46.544 46.176 Q 50 42.576 53.456 46.176 Q 50 48.336 46.544 46.176 Z" fill="#0F172A" stroke="none" stroke-width="3" stroke-linecap="round" stroke-linejoin="round" opacity="0.42"/><rect x="43.52" y="57.12" width="12.959999999999999" height="14.399999999999999" rx="5.76" fill="#0F172A" stroke="#0F172A" stroke-width="3" stroke-linecap="round" stroke-linejoin="round"/><rect x="45.32" y="59.568" width="9.36" height="3.5999999999999996" rx="1.8719999999999999" fill="#0F172A" stroke="none" stroke-width="3" stroke-linecap="round" stroke-linejoin="round" opacity="0.54"/><path d="M 44.96 70.08 Q 50 75.11999999999999 55.040000000000006 70.08" fill="none" stroke="#0F172A" stroke-width="1.9" stroke-linecap="round" stroke-linejoin="round" opacity="0.52"/><line x1="50" y1="71.52" x2="50" y2="78.72" fill="none" stroke="#0F172A" stroke-width="2.4" stroke-linecap="round" stroke-linejoin="round"/><line x1="44.24" y1="62.879999999999995" x2="55.76" y2="62.879999999999995" fill="none" stroke="#0F172A" stroke-width="2.4" stroke-linecap="round" stroke-linejoin="round"/><line x1="50" y1="78.72" x2="44.96" y2="84.47999999999999" fill="none" stroke="#0F172A" stroke-width="2.4" stroke-linecap="round" stroke-linejoin="round"/><line x1="50" y1="78.72" x2="55.04" y2="84.47999999999999" fill="none" stroke="#0F172A" stroke-width="2.4" stroke-linecap="round" stroke-linejoin="round"/><ellipse cx="45.68" cy="84.84" rx="2.304" ry="1.152" fill="#0F172A" stroke="none" stroke-width="3" stroke-linecap="round" stroke-linejoin="round" opacity="0.92"/><ellipse cx="54.32" cy="84.84" rx="2.304" ry="1.152" fill="#0F172A" stroke="none" stroke-width="3" stroke-linecap="round" stroke-linejoin="round" opacity="0.92"/></g>
    <g transform="translate(0 1)"><circle cx="35" cy="33.5" r="8.8" fill="url(#fill-accent)" stroke="none" stroke-width="3" stroke-linecap="round" stroke-linejoin="round" opacity="0.18"/><circle cx="35" cy="32.0" r="7.0" fill="url(#fill-base)" stroke="#0F172A" stroke-width="3" stroke-linecap="round" stroke-linejoin="round"/><path d="M 30.2 30.8 Q 35 25.8 39.8 30.8 Q 35 33.8 30.2 30.8 Z" fill="url(#fill-muted)" stroke="none" stroke-width="3" stroke-linecap="round" stroke-linejoin="round" opacity="0.42"/><rect x="26.0" y="46.0" width="18.0" height="20.0" rx="8.0" fill="url(#fill-accent)" stroke="#0F172A" stroke-width="3" stroke-linecap="round" stroke-linejoin="round"/><rect x="28.5" y="49.4" width="13.0" height="5.0" rx="2.6" fill="url(#fill-muted)" stroke="none" stroke-width="3" stroke-linecap="round" stroke-linejoin="round" opacity="0.54"/><path d="M 28.0 64.0 Q 35 71.0 42.0 64.0" fill="none" stroke="#37506A" stroke-width="2.5" stroke-linecap="round" stroke-linejoin="round" opacity="0.52"/><line x1="35" y1="66.0" x2="35" y2="76.0" fill="none" stroke="#0F172A" stroke-width="3.0" stroke-linecap="round" stroke-linejoin="round"/><line x1="27.0" y1="54.0" x2="43.0" y2="54.0" fill="none" stroke="#0F172A" stroke-width="3.0" stroke-linecap="round" stroke-linejoin="round"/><line x1="35" y1="76.0" x2="28.0" y2="84.0" fill="none" stroke="#0F172A" stroke-width="3.0" stroke-linecap="round" stroke-linejoin="round"/><line x1="35" y1="76.0" x2="42.0" y2="84.0" fill="none" stroke="#0F172A" stroke-width="3.0" stroke-linecap="round" stroke-linejoin="round"/><ellipse cx="29.0" cy="84.5" rx="3.2" ry="1.6" fill="url(#fill-base)" stroke="none" stroke-width="3" stroke-linecap="round" stroke-linejoin="round" opacity="0.92"/><ellipse cx="41.0" cy="84.5" rx="3.2" ry="1.6" fill="url(#fill-base)" stroke="none" stroke-width="3" stroke-linecap="round" stroke-linejoin="round" opacity="0.92"/><circle cx="65" cy="33.5" r="8.8" fill="url(#fill-accent)" stroke="none" stroke-width="3" stroke-linecap="round" stroke-linejoin="round" opacity="0.18"/><circle cx="65" cy="32.0" r="7.0" fill="url(#fill-base)" stroke="#0F172A" stroke-width="3" stroke-linecap="round" stroke-linejoin="round"/><path d="M 60.2 30.8 Q 65 25.8 69.8 30.8 Q 65 33.8 60.2 30.8 Z" fill="url(#fill-muted)" stroke="none" stroke-width="3" stroke-linecap="round" stroke-linejoin="round" opacity="0.42"/><rect x="56.0" y="46.0" width="18.0" height="20.0" rx="8.0" fill="url(#fill-accent)" stroke="#0F172A" stroke-width="3" stroke-linecap="round" stroke-linejoin="round"/><rect x="58.5" y="49.4" width="13.0" height="5.0" rx="2.6" fill="url(#fill-muted)" stroke="none" stroke-width="3" stroke-linecap="round" stroke-linejoin="round" opacity="0.54"/><path d="M 58.0 64.0 Q 65 71.0 72.0 64.0" fill="none" stroke="#37506A" stroke-width="2.5" stroke-linecap="round" stroke-linejoin="round" opacity="0.52"/><line x1="65" y1="66.0" x2="65" y2="76.0" fill="none" stroke="#0F172A" stroke-width="3.0" stroke-linecap="round" stroke-linejoin="round"/><line x1="57.0" y1="54.0" x2="73.0" y2="54.0" fill="none" stroke="#0F172A" stroke-width="3.0" stroke-linecap="round" stroke-linejoin="round"/><line x1="65" y1="76.0" x2="58.0" y2="84.0" fill="none" stroke="#0F172A" stroke-width="3.0" stroke-linecap="round" stroke-linejoin="round"/><line x1="65" y1="76.0" x2="72.0" y2="84.0" fill="none" stroke="#0F172A" stroke-width="3.0" stroke-linecap="round" stroke-linejoin="round"/><ellipse cx="59.0" cy="84.5" rx="3.2" ry="1.6" fill="url(#fill-base)" stroke="none" stroke-width="3" stroke-linecap="round" stroke-linejoin="round" opacity="0.92"/><ellipse cx="71.0" cy="84.5" rx="3.2" ry="1.6" fill="url(#fill-base)" stroke="none" stroke-width="3" stroke-linecap="round" stroke-linejoin="round" opacity="0.92"/><circle cx="50" cy="48.12" r="6.336" fill="url(#fill-accent)" stroke="none" stroke-width="3" stroke-linecap="round" stroke-linejoin="round" opacity="0.18"/><circle cx="50" cy="47.04" r="5.04" fill="url(#fill-base)" stroke="#0F172A" stroke-width="3" stroke-linecap="round" stroke-linejoin="round"/><path d="M 46.544 46.176 Q 50 42.576 53.456 46.176 Q 50 48.336 46.544 46.176 Z" fill="url(#fill-muted)" stroke="none" stroke-width="3" stroke-linecap="round" stroke-linejoin="round" opacity="0.42"/><rect x="43.52" y="57.12" width="12.959999999999999" height="14.399999999999999" rx="5.76" fill="url(#fill-accent)" stroke="#0F172A" stroke-width="3" stroke-linecap="round" stroke-linejoin="round"/><rect x="45.32" y="59.568" width="9.36" height="3.5999999999999996" rx="1.8719999999999999" fill="url(#fill-muted)" stroke="none" stroke-width="3" stroke-linecap="round" stroke-linejoin="round" opacity="0.54"/><path d="M 44.96 70.08 Q 50 75.11999999999999 55.040000000000006 70.08" fill="none" stroke="#37506A" stroke-width="1.9" stroke-linecap="round" stroke-linejoin="round" opacity="0.52"/><line x1="50" y1="71.52" x2="50" y2="78.72" fill="none" stroke="#0F172A" stroke-width="2.4" stroke-linecap="round" stroke-linejoin="round"/><line x1="44.24" y1="62.879999999999995" x2="55.76" y2="62.879999999999995" fill="none" stroke="#0F172A" stroke-width="2.4" stroke-linecap="round" stroke-linejoin="round"/><line x1="50" y1="78.72" x2="44.96" y2="84.47999999999999" fill="none" stroke="#0F172A" stroke-width="2.4" stroke-linecap="round" stroke-linejoin="round"/><line x1="50" y1="78.72" x2="55.04" y2="84.47999999999999" fill="none" stroke="#0F172A" stroke-width="2.4" stroke-linecap="round" stroke-linejoin="round"/><ellipse cx="45.68" cy="84.84" rx="2.304" ry="1.152" fill="url(#fill-base)" stroke="none" stroke-width="3" stroke-linecap="round" stroke-linejoin="round" opacity="0.92"/><ellipse cx="54.32" cy="84.84" rx="2.304" ry="1.152" fill="url(#fill-base)" stroke="none" stroke-width="3" stroke-linecap="round" stroke-linejoin="round" opacity="0.92"/></g>
    <circle cx="74" cy="24" r="3.5" fill="url(#fill-accent)" stroke="none" stroke-width="3" stroke-linecap="round" stroke-linejoin="round" opacity="0.92"/>
    <circle cx="68" cy="30" r="1.8" fill="#FFFFFF" stroke="none" stroke-width="3" stroke-linecap="round" stroke-linejoin="round" opacity="0.82"/>
</svg>
