<?xml version="1.0" encoding="UTF-8"?>
<svg xmlns="http://www.w3.org/2000/svg" viewBox="0 0 100 100" aria-label="future_city">
    <defs><linearGradient id="plate-fill" x1="12%" y1="10%" x2="88%" y2="92%"><stop offset="0%" stop-color="#FFFFFF" stop-opacity="0.94"/><stop offset="22%" stop-color="#D8E6F2" stop-opacity="0.96"/><stop offset="68%" stop-color="#37506A" stop-opacity="0.22"/><stop offset="100%" stop-color="#0F172A" stop-opacity="0.08"/></linearGradient><linearGradient id="fill-base" x1="18%" y1="10%" x2="84%" y2="92%"><stop offset="0%" stop-color="#D8E6F2" stop-opacity="0.88"/><stop offset="28%" stop-color="#37506A" stop-opacity="0.98"/><stop offset="100%" stop-color="#0F172A" stop-opacity="0.92"/></linearGradient><linearGradient id="fill-accent" x1="10%" y1="8%" x2="88%" y2="94%"><stop offset="0%" stop-color="#FFFFFF" stop-opacity="0.9"/><stop offset="24%" stop-color="#D8E6F2" stop-opacity="0.92"/><stop offset="100%" stop-color="#38BDF8" stop-opacity="1"/></linearGradient><linearGradient id="fill-muted" x1="8%" y1="8%" x2="92%" y2="92%"><stop offset="0%" stop-color="#FFFFFF" stop-opacity="0.96"/><stop offset="100%" stop-color="#D8E6F2" stop-opacity="0.94"/></linearGradient><radialGradient id="ambient-glow" cx="26%" cy="18%" r="84%"><stop offset="0%" stop-color="#38BDF8" stop-opacity="0.22"/><stop offset="42%" stop-color="#D8E6F2" stop-opacity="0.18"/><stop offset="100%" stop-color="#FFFFFF" stop-opacity="0"/></radialGradient></defs>
    <rect x="14" y="16" width="72" height="72" rx="22" fill="#0F172A" stroke="none" stroke-width="3" stroke-linecap="round" stroke-linejoin="round" opacity="0.12"/>
    <rect x="12" y="12" width="76" height="76" rx="22" fill="url(#ambient-glow)" stroke="none" stroke-width="3" stroke-linecap="round" stroke-linejoin="round"/>
    <rect x="12" y="12" width="76" height="76" rx="22" fill="url(#plate-fill)" stroke="#0F172A" stroke-width="2.4" stroke-linecap="round" stroke-linejoin="round" opacity="0.98"/>
    <rect x="18" y="18" width="64" height="64" rx="16" fill="none" stroke="#FFFFFF" stroke-width="1.4" stroke-linecap="round" stroke-linejoin="round" opacity="0.28"/>
    <path d="M 22 24 H 64" fill="none" stroke="#FFFFFF" stroke-width="3" stroke-linecap="round" stroke-linejoin="round" opacity="0.34"/>
    <g transform="translate(0 3)" opacity="0.16"><rect x="16" y="38" width="18" height="40" rx="8" fill="#0F172A" stroke="none" stroke-width="3" stroke-linecap="round" stroke-linejoin="round" opacity="0.12"/><rect x="16" y="36" width="18" height="40" rx="8" fill="#0F172A" stroke="#0F172A" stroke-width="3" stroke-linecap="round" stroke-linejoin="round"/><rect x="19" y="40" width="12" height="6" rx="2.5" fill="#0F172A" stroke="none" stroke-width="3" stroke-linecap="round" stroke-linejoin="round" opacity="0.28"/><rect x="21.0" y="42.0" width="5.5" height="6" rx="1.5" fill="#0F172A" stroke="none" stroke-width="3" stroke-linecap="round" stroke-linejoin="round"/><line x1="22.1" y1="44.1" x2="25.4" y2="44.1" fill="none" stroke="#0F172A" stroke-width="1.1" stroke-linecap="round" stroke-linejoin="round" opacity="0.46"/><rect x="21.0" y="50.72727272727273" width="5.5" height="6" rx="1.5" fill="#0F172A" stroke="none" stroke-width="3" stroke-linecap="round" stroke-linejoin="round"/><line x1="22.1" y1="52.82727272727273" x2="25.4" y2="52.82727272727273" fill="none" stroke="#0F172A" stroke-width="1.1" stroke-linecap="round" stroke-linejoin="round" opacity="0.46"/><rect x="21.0" y="59.45454545454545" width="5.5" height="6" rx="1.5" fill="#0F172A" stroke="none" stroke-width="3" stroke-linecap="round" stroke-linejoin="round"/><line x1="22.1" y1="61.554545454545455" x2="25.4" y2="61.554545454545455" fill="none" stroke="#0F172A" stroke-width="1.1" stroke-linecap="round" stroke-linejoin="round" opacity="0.46"/><rect x="27.0" y="42.0" width="5.5" height="6" rx="1.5" fill="#0F172A" stroke="none" stroke-width="3" stroke-linecap="round" stroke-linejoin="round"/><line x1="28.1" y1="44.1" x2="31.4" y2="44.1" fill="none" stroke="#0F172A" stroke-width="1.1" stroke-linecap="round" stroke-linejoin="round" opacity="0.46"/><rect x="27.0" y="50.72727272727273" width="5.5" height="6" rx="1.5" fill="#0F172A" stroke="none" stroke-width="3" stroke-linecap="round" stroke-linejoin="round"/><line x1="28.1" y1="52.82727272727273" x2="31.4" y2="52.82727272727273" fill="none" stroke="#0F172A" stroke-width="1.1" stroke-linecap="round" stroke-linejoin="round" opacity="0.46"/><rect x="27.0" y="59.45454545454545" width="5.5" height="6" rx="1.5" fill="#0F172A" stroke="none" stroke-width="3" stroke-linecap="round" stroke-linejoin="round"/><line x1="28.1" y1="61.554545454545455" x2="31.4" y2="61.554545454545455" fill="none" stroke="#0F172A" stroke-width="1.1" stroke-linecap="round" stroke-linejoin="round" opacity="0.46"/><rect x="22.84" y="64" width="4.32" height="12" rx="2.5" fill="#0F172A" stroke="none" stroke-width="3" stroke-linecap="round" stroke-linejoin="round" opacity="0.9"/><rect x="34" y="30" width="20" height="48" rx="8" fill="#0F172A" stroke="none" stroke-width="3" stroke-linecap="round" stroke-linejoin="round" opacity="0.12"/><rect x="34" y="28" width="20" height="48" rx="8" fill="#0F172A" stroke="#0F172A" stroke-width="3" stroke-linecap="round" stroke-linejoin="round"/><rect x="37" y="32" width="14" height="6" rx="2.5" fill="#0F172A" stroke="none" stroke-width="3" stroke-linecap="round" stroke-linejoin="round" opacity="0.28"/><rect x="39.0" y="34.0" width="5.5" height="6" rx="1.5" fill="#0F172A" stroke="none" stroke-width="3" stroke-linecap="round" stroke-linejoin="round"/><line x1="40.1" y1="36.1" x2="43.4" y2="36.1" fill="none" stroke="#0F172A" stroke-width="1.1" stroke-linecap="round" stroke-linejoin="round" opacity="0.46"/><rect x="39.0" y="42.53333333333333" width="5.5" height="6" rx="1.5" fill="#0F172A" stroke="none" stroke-width="3" stroke-linecap="round" stroke-linejoin="round"/><line x1="40.1" y1="44.63333333333333" x2="43.4" y2="44.63333333333333" fill="none" stroke="#0F172A" stroke-width="1.1" stroke-linecap="round" stroke-linejoin="round" opacity="0.46"/><rect x="39.0" y="51.06666666666666" width="5.5" height="6" rx="1.5" fill="#0F172A" stroke="none" stroke-width="3" stroke-linecap="round" stroke-linejoin="round"/><line x1="40.1" y1="53.166666666666664" x2="43.4" y2="53.166666666666664" fill="none" stroke="#0F172A" stroke-width="1.1" stroke-linecap="round" stroke-linejoin="round" opacity="0.46"/><rect x="39.0" y="59.6" width="5.5" height="6" rx="1.5" fill="#0F172A" stroke="none" stroke-width="3" stroke-linecap="round" stroke-linejoin="round"/><line x1="40.1" y1="61.7" x2="43.4" y2="61.7" fill="none" stroke="#0F172A" stroke-width="1.1" stroke-linecap="round" stroke-linejoin="round" opacity="0.46"/><rect x="45.666666666666664" y="34.0" width="5.5" height="6" rx="1.5" fill="#0F172A" stroke="none" stroke-width="3" stroke-linecap="round" stroke-linejoin="round"/><line x1="46.766666666666666" y1="36.1" x2="50.06666666666666" y2="36.1" fill="none" stroke="#0F172A" stroke-width="1.1" stroke-linecap="round" stroke-linejoin="round" opacity="0.46"/><rect x="45.666666666666664" y="42.53333333333333" width="5.5" height="6" rx="1.5" fill="#0F172A" stroke="none" stroke-width="3" stroke-linecap="round" stroke-linejoin="round"/><line x1="46.766666666666666" y1="44.63333333333333" x2="50.06666666666666" y2="44.63333333333333" fill="none" stroke="#0F172A" stroke-width="1.1" stroke-linecap="round" stroke-linejoin="round" opacity="0.46"/><rect x="45.666666666666664" y="51.06666666666666" width="5.5" height="6" rx="1.5" fill="#0F172A" stroke="none" stroke-width="3" stroke-linecap="round" stroke-linejoin="round"/><line x1="46.766666666666666" y1="53.166666666666664" x2="50.06666666666666" y2="53.166666666666664" fill="none" stroke="#0F172A" stroke-width="1.1" stroke-linecap="round" stroke-linejoin="round" opacity="0.46"/><rect x="45.666666666666664" y="59.6" width="5.5" height="6" rx="1.5" fill="#0F172A" stroke="none" stroke-width="3" stroke-linecap="round" stroke-linejoin="round"/><line x1="46.766666666666666" y1="61.7" x2="50.06666666666666" y2="61.7" fill="none" stroke="#0F172A" stroke-width="1.1" stroke-linecap="round" stroke-linejoin="round" opacity="0.46"/><rect x="41.6" y="64" width="4.8" height="12" rx="2.5" fill="#0F172A" stroke="none" stroke-width="3" stroke-linecap="round" stroke-linejoin="round" opacity="0.9"/><rect x="54" y="24" width="14" height="54" rx="8" fill="#0F172A" stroke="none" stroke-width="3" stroke-linecap="round" stroke-linejoin="round" opacity="0.12"/><rect x="54" y="22" width="14" height="54" rx="8" fill="#0F172A" stroke="#0F172A" stroke-width="3" stroke-linecap="round" stroke-linejoin="round"/><rect x="57" y="26" width="8" height="6" rx="2.5" fill="#0F172A" stroke="none" stroke-width="3" stroke-linecap="round" stroke-linejoin="round" opacity="0.28"/><rect x="59.0" y="28.0" width="5.5" height="6" rx="1.5" fill="#0F172A" stroke="none" stroke-width="3" stroke-linecap="round" stroke-linejoin="round"/><line x1="60.1" y1="30.1" x2="63.4" y2="30.1" fill="none" stroke="#0F172A" stroke-width="1.1" stroke-linecap="round" stroke-linejoin="round" opacity="0.46"/><rect x="59.0" y="36.0" width="5.5" height="6" rx="1.5" fill="#0F172A" stroke="none" stroke-width="3" stroke-linecap="round" stroke-linejoin="round"/><line x1="60.1" y1="38.1" x2="63.4" y2="38.1" fill="none" stroke="#0F172A" stroke-width="1.1" stroke-linecap="round" stroke-linejoin="round" opacity="0.46"/><rect x="59.0" y="44.0" width="5.5" height="6" rx="1.5" fill="#0F172A" stroke="none" stroke-width="3" stroke-linecap="round" stroke-linejoin="round"/><line x1="60.1" y1="46.1" x2="63.4" y2="46.1" fill="none" stroke="#0F172A" stroke-width="1.1" stroke-linecap="round" stroke-linejoin="round" opacity="0.46"/><rect x="59.0" y="52.0" width="5.5" height="6" rx="1.5" fill="#0F172A" stroke="none" stroke-width="3" stroke-linecap="round" stroke-linejoin="round"/><line x1="60.1" y1="54.1" x2="63.4" y2="54.1" fill="none" stroke="#0F172A" stroke-width="1.1" stroke-linecap="round" stroke-linejoin="round" opacity="0.46"/><rect x="59.0" y="60.0" width="5.5" height="6" rx="1.5" fill="#0F172A" stroke="none" stroke-width="3" stroke-linecap="round" stroke-linejoin="round"/><line x1="60.1" y1="62.1" x2="63.4" y2="62.1" fill="none" stroke="#0F172A" stroke-width="1.1" stroke-linecap="round" stroke-linejoin="round" opacity="0.46"/><rect x="63.666666666666664" y="28.0" width="5.5" height="6" rx="1.5" fill="#0F172A" stroke="none" stroke-width="3" stroke-linecap="round" stroke-linejoin="round"/><line x1="64.76666666666667" y1="30.1" x2="68.06666666666666" y2="30.1" fill="none" stroke="#0F172A" stroke-width="1.1" stroke-linecap="round" stroke-linejoin="round" opacity="0.46"/><rect x="63.666666666666664" y="36.0" width="5.5" height="6" rx="1.5" fill="#0F172A" stroke="none" stroke-width="3" stroke-linecap="round" stroke-linejoin="round"/><line x1="64.76666666666667" y1="38.1" x2="68.06666666666666" y2="38.1" fill="none" stroke="#0F172A" stroke-width="1.1" stroke-linecap="round" stroke-linejoin="round" opacity="0.46"/><rect x="63.666666666666664" y="44.0" width="5.5" height="6" rx="1.5" fill="#0F172A" stroke="none" stroke-width="3" stroke-linecap="round" stroke-linejoin="round"/><line x1="64.76666666666667" y1="46.1" x2="68.06666666666666" y2="46.1" fill="none" stroke="#0F172A" stroke-width="1.1" stroke-linecap="round" stroke-linejoin="round" opacity="0.46"/><rect x="63.666666666666664" y="52.0" width="5.5" height="6" rx="1.5" fill="#0F172A" stroke="none" stroke-width="3" stroke-linecap="round" stroke-linejoin="round"/><line x1="64.76666666666667" y1="54.1" x2="68.06666666666666" y2="54.1" fill="none" stroke="#0F172A" stroke-width="1.1" stroke-linecap="round" stroke-linejoin="round" opacity="0.46"/><rect x="63.666666666666664" y="60.0" width="5.5" height="6" rx="1.5" fill="#0F172A" stroke="none" stroke-width="3" stroke-linecap="round" stroke-linejoin="round"/><line x1="64.76666666666667" y1="62.1" x2="68.06666666666666" y2="62.1" fill="none" stroke="#0F172A" stroke-width="1.1" stroke-linecap="round" stroke-linejoin="round" opacity="0.46"/><rect x="59.32" y="64" width="3.36" height="12" rx="2.5" fill="#0F172A" stroke="none" stroke-width="3" stroke-linecap="round" stroke-linejoin="round" opacity="0.9"/><rect x="68" y="36" width="16" height="42" rx="8" fill="#0F172A" stroke="none" stroke-width="3" stroke-linecap="round" stroke-linejoin="round" opacity="0.12"/><rect x="68" y="34" width="16" height="42" rx="8" fill="#0F172A" stroke="#0F172A" stroke-width="3" stroke-linecap="round" stroke-linejoin="round"/><rect x="71" y="38" width="10" height="6" rx="2.5" fill="#0F172A" stroke="none" stroke-width="3" stroke-linecap="round" stroke-linejoin="round" opacity="0.28"/><rect x="73.0" y="40.0" width="5.5" height="6" rx="1.5" fill="#0F172A" stroke="none" stroke-width="3" stroke-linecap="round" stroke-linejoin="round"/><line x1="74.1" y1="42.1" x2="77.4" y2="42.1" fill="none" stroke="#0F172A" stroke-width="1.1" stroke-linecap="round" stroke-linejoin="round" opacity="0.46"/><rect x="73.0" y="49.45454545454545" width="5.5" height="6" rx="1.5" fill="#0F172A" stroke="none" stroke-width="3" stroke-linecap="round" stroke-linejoin="round"/><line x1="74.1" y1="51.554545454545455" x2="77.4" y2="51.554545454545455" fill="none" stroke="#0F172A" stroke-width="1.1" stroke-linecap="round" stroke-linejoin="round" opacity="0.46"/><rect x="73.0" y="58.90909090909091" width="5.5" height="6" rx="1.5" fill="#0F172A" stroke="none" stroke-width="3" stroke-linecap="round" stroke-linejoin="round"/><line x1="74.1" y1="61.00909090909091" x2="77.4" y2="61.00909090909091" fill="none" stroke="#0F172A" stroke-width="1.1" stroke-linecap="round" stroke-linejoin="round" opacity="0.46"/><rect x="78.33333333333333" y="40.0" width="5.5" height="6" rx="1.5" fill="#0F172A" stroke="none" stroke-width="3" stroke-linecap="round" stroke-linejoin="round"/><line x1="79.43333333333332" y1="42.1" x2="82.73333333333333" y2="42.1" fill="none" stroke="#0F172A" stroke-width="1.1" stroke-linecap="round" stroke-linejoin="round" opacity="0.46"/><rect x="78.33333333333333" y="49.45454545454545" width="5.5" height="6" rx="1.5" fill="#0F172A" stroke="none" stroke-width="3" stroke-linecap="round" stroke-linejoin="round"/><line x1="79.43333333333332" y1="51.554545454545455" x2="82.73333333333333" y2="51.554545454545455" fill="none" stroke="#0F172A" stroke-width="1.1" stroke-linecap="round" stroke-linejoin="round" opacity="0.46"/><rect x="78.33333333333333" y="58.90909090909091" width="5.5" height="6" rx="1.5" fill="#0F172A" stroke="none" stroke-width="3" stroke-linecap="round" stroke-linejoin="round"/><line x1="79.43333333333332" y1="61.00909090909091" x2="82.73333333333333" y2="61.00909090909091" fill="none" stroke="#0F172A" stroke-width="1.1" stroke-linecap="round" stroke-linejoin="round" opacity="0.46"/><rect x="74.08" y="64" width="3.84" height="12" rx="2.5" fill="#0F172A" stroke="none" stroke-width="3" stroke-linecap="round" stroke-linejoin="round" opacity="0.9"/><line x1="22" y1="76" x2="78" y2="76" fill="none" stroke="#0F172A" stroke-width="3" stroke-linecap="round" stroke-linejoin="round"/><circle cx="72" cy="24" r="4" fill="#0F172A" stroke="#0F172A" stroke-width="3" stroke-linecap="round" stroke-linejoin="round"/></g>
    <g transform="translate(0 1)"><rect x="16" y="38" width="18" height="40" rx="8" fill="#0F172A" stroke="none" stroke-width="3" stroke-linecap="round" stroke-linejoin="round" opacity="0.12"/><rect x="16" y="36" width="18" height="40" rx="8" fill="url(#fill-base)" stroke="#0F172A" stroke-width="3" stroke-linecap="round" stroke-linejoin="round"/><rect x="19" y="40" width="12" height="6" rx="2.5" fill="url(#fill-muted)" stroke="none" stroke-width="3" stroke-linecap="round" stroke-linejoin="round" opacity="0.28"/><rect x="21.0" y="42.0" width="5.5" height="6" rx="1.5" fill="url(#fill-accent)" stroke="none" stroke-width="3" stroke-linecap="round" stroke-linejoin="round"/><line x1="22.1" y1="44.1" x2="25.4" y2="44.1" fill="none" stroke="#D8E6F2" stroke-width="1.1" stroke-linecap="round" stroke-linejoin="round" opacity="0.46"/><rect x="21.0" y="50.72727272727273" width="5.5" height="6" rx="1.5" fill="url(#fill-accent)" stroke="none" stroke-width="3" stroke-linecap="round" stroke-linejoin="round"/><line x1="22.1" y1="52.82727272727273" x2="25.4" y2="52.82727272727273" fill="none" stroke="#D8E6F2" stroke-width="1.1" stroke-linecap="round" stroke-linejoin="round" opacity="0.46"/><rect x="21.0" y="59.45454545454545" width="5.5" height="6" rx="1.5" fill="url(#fill-accent)" stroke="none" stroke-width="3" stroke-linecap="round" stroke-linejoin="round"/><line x1="22.1" y1="61.554545454545455" x2="25.4" y2="61.554545454545455" fill="none" stroke="#D8E6F2" stroke-width="1.1" stroke-linecap="round" stroke-linejoin="round" opacity="0.46"/><rect x="27.0" y="42.0" width="5.5" height="6" rx="1.5" fill="url(#fill-accent)" stroke="none" stroke-width="3" stroke-linecap="round" stroke-linejoin="round"/><line x1="28.1" y1="44.1" x2="31.4" y2="44.1" fill="none" stroke="#D8E6F2" stroke-width="1.1" stroke-linecap="round" stroke-linejoin="round" opacity="0.46"/><rect x="27.0" y="50.72727272727273" width="5.5" height="6" rx="1.5" fill="url(#fill-accent)" stroke="none" stroke-width="3" stroke-linecap="round" stroke-linejoin="round"/><line x1="28.1" y1="52.82727272727273" x2="31.4" y2="52.82727272727273" fill="none" stroke="#D8E6F2" stroke-width="1.1" stroke-linecap="round" stroke-linejoin="round" opacity="0.46"/><rect x="27.0" y="59.45454545454545" width="5.5" height="6" rx="1.5" fill="url(#fill-accent)" stroke="none" stroke-width="3" stroke-linecap="round" stroke-linejoin="round"/><line x1="28.1" y1="61.554545454545455" x2="31.4" y2="61.554545454545455" fill="none" stroke="#D8E6F2" stroke-width="1.1" stroke-linecap="round" stroke-linejoin="round" opacity="0.46"/><rect x="22.84" y="64" width="4.32" height="12" rx="2.5" fill="url(#fill-muted)" stroke="none" stroke-width="3" stroke-linecap="round" stroke-linejoin="round" opacity="0.9"/><rect x="34" y="30" width="20" height="48" rx="8" fill="#0F172A" stroke="none" stroke-width="3" stroke-linecap="round" stroke-linejoin="round" opacity="0.12"/><rect x="34" y="28" width="20" height="48" rx="8" fill="url(#fill-accent)" stroke="#0F172A" stroke-width="3" stroke-linecap="round" stroke-linejoin="round"/><rect x="37" y="32" width="14" height="6" rx="2.5" fill="url(#fill-muted)" stroke="none" stroke-width="3" stroke-linecap="round" stroke-linejoin="round" opacity="0.28"/><rect x="39.0" y="34.0" width="5.5" height="6" rx="1.5" fill="url(#fill-muted)" stroke="none" stroke-width="3" stroke-linecap="round" stroke-linejoin="round"/><line x1="40.1" y1="36.1" x2="43.4" y2="36.1" fill="none" stroke="#FFFFFF" stroke-width="1.1" stroke-linecap="round" stroke-linejoin="round" opacity="0.46"/><rect x="39.0" y="42.53333333333333" width="5.5" height="6" rx="1.5" fill="url(#fill-muted)" stroke="none" stroke-width="3" stroke-linecap="round" stroke-linejoin="round"/><line x1="40.1" y1="44.63333333333333" x2="43.4" y2="44.63333333333333" fill="none" stroke="#FFFFFF" stroke-width="1.1" stroke-linecap="round" stroke-linejoin="round" opacity="0.46"/><rect x="39.0" y="51.06666666666666" width="5.5" height="6" rx="1.5" fill="url(#fill-muted)" stroke="none" stroke-width="3" stroke-linecap="round" stroke-linejoin="round"/><line x1="40.1" y1="53.166666666666664" x2="43.4" y2="53.166666666666664" fill="none" stroke="#FFFFFF" stroke-width="1.1" stroke-linecap="round" stroke-linejoin="round" opacity="0.46"/><rect x="39.0" y="59.6" width="5.5" height="6" rx="1.5" fill="url(#fill-muted)" stroke="none" stroke-width="3" stroke-linecap="round" stroke-linejoin="round"/><line x1="40.1" y1="61.7" x2="43.4" y2="61.7" fill="none" stroke="#FFFFFF" stroke-width="1.1" stroke-linecap="round" stroke-linejoin="round" opacity="0.46"/><rect x="45.666666666666664" y="34.0" width="5.5" height="6" rx="1.5" fill="url(#fill-muted)" stroke="none" stroke-width="3" stroke-linecap="round" stroke-linejoin="round"/><line x1="46.766666666666666" y1="36.1" x2="50.06666666666666" y2="36.1" fill="none" stroke="#FFFFFF" stroke-width="1.1" stroke-linecap="round" stroke-linejoin="round" opacity="0.46"/><rect x="45.666666666666664" y="42.53333333333333" width="5.5" height="6" rx="1.5" fill="url(#fill-muted)" stroke="none" stroke-width="3" stroke-linecap="round" stroke-linejoin="round"/><line x1="46.766666666666666" y1="44.63333333333333" x2="50.06666666666666" y2="44.63333333333333" fill="none" stroke="#FFFFFF" stroke-width="1.1" stroke-linecap="round" stroke-linejoin="round" opacity="0.46"/><rect x="45.666666666666664" y="51.06666666666666" width="5.5" height="6" rx="1.5" fill="url(#fill-muted)" stroke="none" stroke-width="3" stroke-linecap="round" stroke-linejoin="round"/><line x1="46.766666666666666" y1="53.166666666666664" x2="50.06666666666666" y2="53.166666666666664" fill="none" stroke="#FFFFFF" stroke-width="1.1" stroke-linecap="round" stroke-linejoin="round" opacity="0.46"/><rect x="45.666666666666664" y="59.6" width="5.5" height="6" rx="1.5" fill="url(#fill-muted)" stroke="none" stroke-width="3" stroke-linecap="round" stroke-linejoin="round"/><line x1="46.766666666666666" y1="61.7" x2="50.06666666666666" y2="61.7" fill="none" stroke="#FFFFFF" stroke-width="1.1" stroke-linecap="round" stroke-linejoin="round" opacity="0.46"/><rect x="41.6" y="64" width="4.8" height="12" rx="2.5" fill="url(#fill-muted)" stroke="none" stroke-width="3" stroke-linecap="round" stroke-linejoin="round" opacity="0.9"/><rect x="54" y="24" width="14" height="54" rx="8" fill="#0F172A" stroke="none" stroke-width="3" stroke-linecap="round" stroke-linejoin="round" opacity="0.12"/><rect x="54" y="22" width="14" height="54" rx="8" fill="url(#fill-base)" stroke="#0F172A" stroke-width="3" stroke-linecap="round" stroke-linejoin="round"/><rect x="57" y="26" width="8" height="6" rx="2.5" fill="url(#fill-muted)" stroke="none" stroke-width="3" stroke-linecap="round" stroke-linejoin="round" opacity="0.28"/><rect x="59.0" y="28.0" width="5.5" height="6" rx="1.5" fill="url(#fill-accent)" stroke="none" stroke-width="3" stroke-linecap="round" stroke-linejoin="round"/><line x1="60.1" y1="30.1" x2="63.4" y2="30.1" fill="none" stroke="#D8E6F2" stroke-width="1.1" stroke-linecap="round" stroke-linejoin="round" opacity="0.46"/><rect x="59.0" y="36.0" width="5.5" height="6" rx="1.5" fill="url(#fill-accent)" stroke="none" stroke-width="3" stroke-linecap="round" stroke-linejoin="round"/><line x1="60.1" y1="38.1" x2="63.4" y2="38.1" fill="none" stroke="#D8E6F2" stroke-width="1.1" stroke-linecap="round" stroke-linejoin="round" opacity="0.46"/><rect x="59.0" y="44.0" width="5.5" height="6" rx="1.5" fill="url(#fill-accent)" stroke="none" stroke-width="3" stroke-linecap="round" stroke-linejoin="round"/><line x1="60.1" y1="46.1" x2="63.4" y2="46.1" fill="none" stroke="#D8E6F2" stroke-width="1.1" stroke-linecap="round" stroke-linejoin="round" opacity="0.46"/><rect x="59.0" y="52.0" width="5.5" height="6" rx="1.5" fill="url(#fill-accent)" stroke="none" stroke-width="3" stroke-linecap="round" stroke-linejoin="round"/><line x1="60.1" y1="54.1" x2="63.4" y2="54.1" fill="none" stroke="#D8E6F2" stroke-width="1.1" stroke-linecap="round" stroke-linejoin="round" opacity="0.46"/><rect x="59.0" y="60.0" width="5.5" height="6" rx="1.5" fill="url(#fill-accent)" stroke="none" stroke-width="3" stroke-linecap="round" stroke-linejoin="round"/><line x1="60.1" y1="62.1" x2="63.4" y2="62.1" fill="none" stroke="#D8E6F2" stroke-width="1.1" stroke-linecap="round" stroke-linejoin="round" opacity="0.46"/><rect x="63.666666666666664" y="28.0" width="5.5" height="6" rx="1.5" fill="url(#fill-accent)" stroke="none" stroke-width="3" stroke-linecap="round" stroke-linejoin="round"/><line x1="64.76666666666667" y1="30.1" x2="68.06666666666666" y2="30.1" fill="none" stroke="#D8E6F2" stroke-width="1.1" stroke-linecap="round" stroke-linejoin="round" opacity="0.46"/><rect x="63.666666666666664" y="36.0" width="5.5" height="6" rx="1.5" fill="url(#fill-accent)" stroke="none" stroke-width="3" stroke-linecap="round" stroke-linejoin="round"/><line x1="64.76666666666667" y1="38.1" x2="68.06666666666666" y2="38.1" fill="none" stroke="#D8E6F2" stroke-width="1.1" stroke-linecap="round" stroke-linejoin="round" opacity="0.46"/><rect x="63.666666666666664" y="44.0" width="5.5" height="6" rx="1.5" fill="url(#fill-accent)" stroke="none" stroke-width="3" stroke-linecap="round" stroke-linejoin="round"/><line x1="64.76666666666667" y1="46.1" x2="68.06666666666666" y2="46.1" fill="none" stroke="#D8E6F2" stroke-width="1.1" stroke-linecap="round" stroke-linejoin="round" opacity="0.46"/><rect x="63.666666666666664" y="52.0" width="5.5" height="6" rx="1.5" fill="url(#fill-accent)" stroke="none" stroke-width="3" stroke-linecap="round" stroke-linejoin="round"/><line x1="64.76666666666667" y1="54.1" x2="68.06666666666666" y2="54.1" fill="none" stroke="#D8E6F2" stroke-width="1.1" stroke-linecap="round" stroke-linejoin="round" opacity="0.46"/><rect x="63.666666666666664" y="60.0" width="5.5" height="6" rx="1.5" fill="url(#fill-accent)" stroke="none" stroke-width="3" stroke-linecap="round" stroke-linejoin="round"/><line x1="64.76666666666667" y1="62.1" x2="68.06666666666666" y2="62.1" fill="none" stroke="#D8E6F2" stroke-width="1.1" stroke-linecap="round" stroke-linejoin="round" opacity="0.46"/><rect x="59.32" y="64" width="3.36" height="12" rx="2.5" fill="url(#fill-muted)" stroke="none" stroke-width="3" stroke-linecap="round" stroke-linejoin="round" opacity="0.9"/><rect x="68" y="36" width="16" height="42" rx="8" fill="#0F172A" stroke="none" stroke-width="3" stroke-linecap="round" stroke-linejoin="round" opacity="0.12"/><rect x="68" y="34" width="16" height="42" rx="8" fill="url(#fill-accent)" stroke="#0F172A" stroke-width="3" stroke-linecap="round" stroke-linejoin="round"/><rect x="71" y="38" width="10" height="6" rx="2.5" fill="url(#fill-muted)" stroke="none" stroke-width="3" stroke-linecap="round" stroke-linejoin="round" opacity="0.28"/><rect x="73.0" y="40.0" width="5.5" height="6" rx="1.5" fill="url(#fill-muted)" stroke="none" stroke-width="3" stroke-linecap="round" stroke-linejoin="round"/><line x1="74.1" y1="42.1" x2="77.4" y2="42.1" fill="none" stroke="#FFFFFF" stroke-width="1.1" stroke-linecap="round" stroke-linejoin="round" opacity="0.46"/><rect x="73.0" y="49.45454545454545" width="5.5" height="6" rx="1.5" fill="url(#fill-muted)" stroke="none" stroke-width="3" stroke-linecap="round" stroke-linejoin="round"/><line x1="74.1" y1="51.554545454545455" x2="77.4" y2="51.554545454545455" fill="none" stroke="#FFFFFF" stroke-width="1.1" stroke-linecap="round" stroke-linejoin="round" opacity="0.46"/><rect x="73.0" y="58.90909090909091" width="5.5" height="6" rx="1.5" fill="url(#fill-muted)" stroke="none" stroke-width="3" stroke-linecap="round" stroke-linejoin="round"/><line x1="74.1" y1="61.00909090909091" x2="77.4" y2="61.00909090909091" fill="none" stroke="#FFFFFF" stroke-width="1.1" stroke-linecap="round" stroke-linejoin="round" opacity="0.46"/><rect x="78.33333333333333" y="40.0" width="5.5" height="6" rx="1.5" fill="url(#fill-muted)" stroke="none" stroke-width="3" stroke-linecap="round" stroke-linejoin="round"/><line x1="79.43333333333332" y1="42.1" x2="82.73333333333333" y2="42.1" fill="none" stroke="#FFFFFF" stroke-width="1.1" stroke-linecap="round" stroke-linejoin="round" opacity="0.46"/><rect x="78.33333333333333" y="49.45454545454545" width="5.5" height="6" rx="1.5" fill="url(#fill-muted)" stroke="none" stroke-width="3" stroke-linecap="round" stroke-linejoin="round"/><line x1="79.43333333333332" y1="51.554545454545455" x2="82.73333333333333" y2="51.554545454545455" fill="none" stroke="#FFFFFF" stroke-width="1.1" stroke-linecap="round" stroke-linejoin="round" opacity="0.46"/><rect x="78.33333333333333" y="58.90909090909091" width="5.5" height="6" rx="1.5" fill="url(#fill-muted)" stroke="none" stroke-width="3" stroke-linecap="round" stroke-linejoin="round"/><line x1="79.43333333333332" y1="61.00909090909091" x2="82.73333333333333" y2="61.00909090909091" fill="none" stroke="#FFFFFF" stroke-width="1.1" stroke-linecap="round" stroke-linejoin="round" opacity="0.46"/><rect x="74.08" y="64" width="3.84" height="12" rx="2.5" fill="url(#fill-muted)" stroke="none" stroke-width="3" stroke-linecap="round" stroke-linejoin="round" opacity="0.9"/><line x1="22" y1="76" x2="78" y2="76" fill="none" stroke="#0F172A" stroke-width="3" stroke-linecap="round" stroke-linejoin="round"/><circle cx="72" cy="24" r="4" fill="url(#fill-accent)" stroke="#0F172A" stroke-width="3" stroke-linecap="round" stroke-linejoin="round"/></g>
    <circle cx="74" cy="24" r="3.5" fill="url(#fill-accent)" stroke="none" stroke-width="3" stroke-linecap="round" stroke-linejoin="round" opacity="0.92"/>
    <circle cx="68" cy="30" r="1.8" fill="#FFFFFF" stroke="none" stroke-width="3" stroke-linecap="round" stroke-linejoin="round" opacity="0.82"/>
</svg>
