<?xml version="1.0" encoding="UTF-8"?>
<svg xmlns="http://www.w3.org/2000/svg" viewBox="0 0 800 800">
    <defs>
        <radialGradient id="glowGrad_building-2" cx="50%" cy="50%" r="50%">
            <stop offset="0%" stop-color="#22c55e" stop-opacity="0.3" />
            <stop offset="100%" stop-color="#22c55e" stop-opacity="0" />
        </radialGradient>
        <linearGradient id="baseGrad_building-2" x1="0%" y1="0%" x2="100%" y2="100%">
            <stop offset="0%" stop-color="#334155" />
            <stop offset="100%" stop-color="#0f172a" />
        </linearGradient>
    </defs>
    <g id="building-2-container">
        <!-- Floating Base Tile -->
        <rect x="100" y="100" width="600" height="600" rx="120" fill="url(#baseGrad_building-2)" stroke="#1e293b" stroke-width="2.5"/>
        
        <!-- Glow backing behind the icon -->
        <circle cx="400" cy="400" r="250" fill="url(#glowGrad_building-2)"/>

        <!-- The actual Lucide icon, scaled up -->
        <g transform="translate(160, 160) scale(20)" 
           fill="none" 
           stroke="#22c55e" 
           stroke-width="1.5" 
           stroke-linecap="round" 
           stroke-linejoin="round">
            <path d="M10 12h4" />
  <path d="M10 8h4" />
  <path d="M14 21v-3a2 2 0 0 0-4 0v3" />
  <path d="M6 10H4a2 2 0 0 0-2 2v7a2 2 0 0 0 2 2h16a2 2 0 0 0 2-2V9a2 2 0 0 0-2-2h-2" />
  <path d="M6 21V5a2 2 0 0 1 2-2h8a2 2 0 0 1 2 2v16" />
        </g>
        
        <!-- Minor accent details -->
        <circle cx="200" cy="200" r="10" fill="#22c55e"/>
        <circle cx="600" cy="600" r="10" fill="#22c55e"/>
    </g>
</svg>