<?xml version="1.0" encoding="UTF-8"?>
<svg xmlns="http://www.w3.org/2000/svg" viewBox="0 0 800 800">
    <defs>
        <radialGradient id="glowGrad_fan" cx="50%" cy="50%" r="50%">
            <stop offset="0%" stop-color="#fbbf24" stop-opacity="0.3" />
            <stop offset="100%" stop-color="#fbbf24" stop-opacity="0" />
        </radialGradient>
        <linearGradient id="baseGrad_fan" x1="0%" y1="0%" x2="100%" y2="100%">
            <stop offset="0%" stop-color="#334155" />
            <stop offset="100%" stop-color="#0f172a" />
        </linearGradient>
    </defs>
    <g id="fan-container">
        <!-- Floating Base Tile -->
        <rect x="100" y="100" width="600" height="600" rx="120" fill="url(#baseGrad_fan)" stroke="#1e293b" stroke-width="2.5"/>
        
        <!-- Glow backing behind the icon -->
        <circle cx="400" cy="400" r="250" fill="url(#glowGrad_fan)"/>

        <!-- The actual Lucide icon, scaled up -->
        <g transform="translate(160, 160) scale(20)" 
           fill="none" 
           stroke="#fbbf24" 
           stroke-width="1.5" 
           stroke-linecap="round" 
           stroke-linejoin="round">
            <path d="M10.827 16.379a6.082 6.082 0 0 1-8.618-7.002l5.412 1.45a6.082 6.082 0 0 1 7.002-8.618l-1.45 5.412a6.082 6.082 0 0 1 8.618 7.002l-5.412-1.45a6.082 6.082 0 0 1-7.002 8.618l1.45-5.412Z" />
  <path d="M12 12v.01" />
        </g>
        
        <!-- Minor accent details -->
        <circle cx="200" cy="200" r="10" fill="#fbbf24"/>
        <circle cx="600" cy="600" r="10" fill="#fbbf24"/>
    </g>
</svg>