<?xml version="1.0" encoding="UTF-8"?>
<svg xmlns="http://www.w3.org/2000/svg" viewBox="0 0 800 800">
    <defs>
        <radialGradient id="glowGrad_car" cx="50%" cy="50%" r="50%">
            <stop offset="0%" stop-color="#a78bfa" stop-opacity="0.3" />
            <stop offset="100%" stop-color="#a78bfa" stop-opacity="0" />
        </radialGradient>
        <linearGradient id="baseGrad_car" x1="0%" y1="0%" x2="100%" y2="100%">
            <stop offset="0%" stop-color="#334155" />
            <stop offset="100%" stop-color="#0f172a" />
        </linearGradient>
    </defs>
    <g id="car-container">
        <!-- Floating Base Tile -->
        <rect x="100" y="100" width="600" height="600" rx="120" fill="url(#baseGrad_car)" stroke="#1e293b" stroke-width="2.5"/>
        
        <!-- Glow backing behind the icon -->
        <circle cx="400" cy="400" r="250" fill="url(#glowGrad_car)"/>

        <!-- The actual Lucide icon, scaled up -->
        <g transform="translate(160, 160) scale(20)" 
           fill="none" 
           stroke="#a78bfa" 
           stroke-width="1.5" 
           stroke-linecap="round" 
           stroke-linejoin="round">
            <path d="M19 17h2c.6 0 1-.4 1-1v-3c0-.9-.7-1.7-1.5-1.9C18.7 10.6 16 10 16 10s-1.3-1.4-2.2-2.3c-.5-.4-1.1-.7-1.8-.7H5c-.6 0-1.1.4-1.4.9l-1.4 2.9A3.7 3.7 0 0 0 2 12v4c0 .6.4 1 1 1h2" />
  <circle cx="7" cy="17" r="2" />
  <path d="M9 17h6" />
  <circle cx="17" cy="17" r="2" />
        </g>
        
        <!-- Minor accent details -->
        <circle cx="200" cy="200" r="10" fill="#a78bfa"/>
        <circle cx="600" cy="600" r="10" fill="#a78bfa"/>
    </g>
</svg>