<?xml version="1.0" encoding="UTF-8"?>
<svg xmlns="http://www.w3.org/2000/svg" viewBox="0 0 800 800">
    <defs>
        <radialGradient id="glowGrad_bitcoin" cx="50%" cy="50%" r="50%">
            <stop offset="0%" stop-color="#fbbf24" stop-opacity="0.3" />
            <stop offset="100%" stop-color="#fbbf24" stop-opacity="0" />
        </radialGradient>
        <linearGradient id="baseGrad_bitcoin" x1="0%" y1="0%" x2="100%" y2="100%">
            <stop offset="0%" stop-color="#334155" />
            <stop offset="100%" stop-color="#0f172a" />
        </linearGradient>
    </defs>
    <g id="bitcoin-container">
        <!-- Floating Base Tile -->
        <rect x="100" y="100" width="600" height="600" rx="120" fill="url(#baseGrad_bitcoin)" stroke="#1e293b" stroke-width="2.5"/>
        
        <!-- Glow backing behind the icon -->
        <circle cx="400" cy="400" r="250" fill="url(#glowGrad_bitcoin)"/>

        <!-- The actual Lucide icon, scaled up -->
        <g transform="translate(160, 160) scale(20)" 
           fill="none" 
           stroke="#fbbf24" 
           stroke-width="1.5" 
           stroke-linecap="round" 
           stroke-linejoin="round">
            <path d="M11.767 19.089c4.924.868 6.14-6.025 1.216-6.894m-1.216 6.894L5.86 18.047m5.908 1.042-.347 1.97m1.563-8.864c4.924.869 6.14-6.025 1.215-6.893m-1.215 6.893-3.94-.694m5.155-6.2L8.29 4.26m5.908 1.042.348-1.97M7.48 20.364l3.126-17.727" />
        </g>
        
        <!-- Minor accent details -->
        <circle cx="200" cy="200" r="10" fill="#fbbf24"/>
        <circle cx="600" cy="600" r="10" fill="#fbbf24"/>
    </g>
</svg>