<?xml version="1.0" encoding="utf-8" ?>
<svg baseProfile="full" height="800" version="1.1" viewBox="0,0,800,800" width="800" xmlns="http://www.w3.org/2000/svg" xmlns:ev="http://www.w3.org/2001/xml-events" xmlns:xlink="http://www.w3.org/1999/xlink"><defs><linearGradient id="baseGrad" x1="0" x2="1" y1="0" y2="1"><stop offset="0.0" stop-color="#334155" /><stop offset="0.6" stop-color="#334155" /><stop offset="1.0" stop-color="#0f172a" /></linearGradient><linearGradient id="strokeGrad" x1="0" x2="1" y1="0" y2="1"><stop offset="0.0" stop-color="#ffffff" stop-opacity="0.9" /><stop offset="0.5" stop-color="#1e293b" stop-opacity="0.6" /><stop offset="1.0" stop-color="#1e293b" stop-opacity="0.2" /></linearGradient><radialGradient cx="0.5" cy="0.5" id="glowGrad" r="0.5"><stop offset="0.0" stop-color="#a78bfa" stop-opacity="0.4" /><stop offset="1.0" stop-color="#a78bfa" stop-opacity="0.0" /></radialGradient><filter height="160%" id="dropShadow" width="160%" x="-30%" y="-30%"><feGaussianBlur in="SourceAlpha" result="blur" stdDeviation="25" /><feOffset dx="0" dy="20" in="blur" result="offsetBlur" /><feFlood flood-color="#000000" flood-opacity="0.6" result="shadowColor" /><feComposite in="shadowColor" in2="offsetBlur" operator="in" result="shadow" /><feMerge><feMergeNode in="shadow" /><feMergeNode in="SourceGraphic" /></feMerge></filter><pattern height="40" id="dotGrid" patternUnits="userSpaceOnUse" width="40"><circle cx="20" cy="20" fill="#ffffff" opacity="0.08" r="2" /></pattern></defs><circle cx="400" cy="400" fill="url(#glowGrad)" r="380" /><circle cx="400" cy="400" fill="none" opacity="0.15" r="240" stroke="#a78bfa" stroke-width="1.5" /><circle cx="400" cy="400" fill="none" opacity="0.25" r="320" stroke="#a78bfa" stroke-dasharray="8 16" stroke-width="2" /><circle cx="400" cy="400" fill="none" opacity="0.08" r="400" stroke="#a78bfa" stroke-dasharray="2 8" stroke-width="4" /><rect fill="url(#baseGrad)" filter="url(#dropShadow)" height="600" rx="120" stroke="url(#strokeGrad)" stroke-width="2.5" width="600" x="100" y="100" /><rect fill="none" height="540" opacity="0.3" rx="90" stroke="#a78bfa" stroke-dasharray="4 8" stroke-width="1.5" width="540" x="130" y="130" /><circle cx="130" cy="130" fill="#a78bfa" opacity="0.9" r="5" /><path d="M 112 130 L 148 130 M 130 112 L 130 148" opacity="0.6" stroke="#a78bfa" stroke-width="2" /><circle cx="670" cy="130" fill="#a78bfa" opacity="0.9" r="5" /><path d="M 652 130 L 688 130 M 670 112 L 670 148" opacity="0.6" stroke="#a78bfa" stroke-width="2" /><circle cx="130" cy="670" fill="#a78bfa" opacity="0.9" r="5" /><path d="M 112 670 L 148 670 M 130 652 L 130 688" opacity="0.6" stroke="#a78bfa" stroke-width="2" /><circle cx="670" cy="670" fill="#a78bfa" opacity="0.9" r="5" /><path d="M 652 670 L 688 670 M 670 652 L 670 688" opacity="0.6" stroke="#a78bfa" stroke-width="2" /><rect fill="url(#dotGrid)" height="600" rx="120" width="600" x="100" y="100" /><g opacity="0.5"><path d="M 200 250 L 280 200 L 350 280 Z" fill="none" stroke="#a78bfa" stroke-dasharray="4 4" stroke-width="1.5" /><path d="M 600 550 L 520 600 L 450 520 Z" fill="none" stroke="#a78bfa" stroke-dasharray="4 4" stroke-width="1.5" /><circle cx="200" cy="250" fill="url(#baseGrad)" r="6" stroke="#a78bfa" stroke-width="2" /><circle cx="280" cy="200" fill="url(#baseGrad)" r="6" stroke="#a78bfa" stroke-width="2" /><circle cx="350" cy="280" fill="url(#baseGrad)" r="6" stroke="#a78bfa" stroke-width="2" /><circle cx="600" cy="550" fill="url(#baseGrad)" r="6" stroke="#a78bfa" stroke-width="2" /><circle cx="520" cy="600" fill="url(#baseGrad)" r="6" stroke="#a78bfa" stroke-width="2" /><circle cx="450" cy="520" fill="url(#baseGrad)" r="6" stroke="#a78bfa" stroke-width="2" /></g><path d="M 100 220 Q 400 -20 700 220 L 700 300 Q 400 80 100 300 Z" fill="#ffffff" opacity="0.06" /><g filter="url(#dropShadow)" id="ProceduralItems"><rect fill="#475569" height="200" rx="0" stroke="none" stroke-width="2.5" width="100" x="200" y="350" /><rect fill="#0f172a" height="37.5" rx="0" stroke="none" stroke-width="2.5" width="25.0" x="258.3333333333333" y="370.0" /><rect fill="#0f172a" height="37.5" rx="0" stroke="none" stroke-width="2.5" width="25.0" x="216.66666666666666" y="424.1666666666667" /><rect fill="#0f172a" height="37.5" rx="0" stroke="none" stroke-width="2.5" width="25.0" x="258.3333333333333" y="424.1666666666667" /><rect fill="#0f172a" height="37.5" rx="0" stroke="none" stroke-width="2.5" width="25.0" x="216.66666666666666" y="478.33333333333337" /><rect fill="#0f172a" height="37.5" rx="0" stroke="none" stroke-width="2.5" width="25.0" x="258.3333333333333" y="478.33333333333337" /><rect fill="#a78bfa" height="350" rx="0" stroke="none" stroke-width="2.5" width="120" x="300" y="200" /><rect fill="#0f172a" height="30.0" rx="0" stroke="none" stroke-width="2.5" width="20.0" x="350.0" y="220.0" /><rect fill="#0f172a" height="30.0" rx="0" stroke="none" stroke-width="2.5" width="20.0" x="385.0" y="220.0" /><rect fill="#0f172a" height="30.0" rx="0" stroke="none" stroke-width="2.5" width="20.0" x="315.0" y="265.0" /><rect fill="#0f172a" height="30.0" rx="0" stroke="none" stroke-width="2.5" width="20.0" x="350.0" y="265.0" /><rect fill="#0f172a" height="30.0" rx="0" stroke="none" stroke-width="2.5" width="20.0" x="385.0" y="265.0" /><rect fill="#0f172a" height="30.0" rx="0" stroke="none" stroke-width="2.5" width="20.0" x="315.0" y="310.0" /><rect fill="#0f172a" height="30.0" rx="0" stroke="none" stroke-width="2.5" width="20.0" x="350.0" y="310.0" /><rect fill="#0f172a" height="30.0" rx="0" stroke="none" stroke-width="2.5" width="20.0" x="385.0" y="310.0" /><rect fill="#0f172a" height="30.0" rx="0" stroke="none" stroke-width="2.5" width="20.0" x="315.0" y="355.0" /><rect fill="#0f172a" height="30.0" rx="0" stroke="none" stroke-width="2.5" width="20.0" x="385.0" y="355.0" /><rect fill="#0f172a" height="30.0" rx="0" stroke="none" stroke-width="2.5" width="20.0" x="315.0" y="400.0" /><rect fill="#0f172a" height="30.0" rx="0" stroke="none" stroke-width="2.5" width="20.0" x="350.0" y="400.0" /><rect fill="#0f172a" height="30.0" rx="0" stroke="none" stroke-width="2.5" width="20.0" x="315.0" y="445.0" /><rect fill="#0f172a" height="30.0" rx="0" stroke="none" stroke-width="2.5" width="20.0" x="350.0" y="445.0" /><rect fill="#0f172a" height="30.0" rx="0" stroke="none" stroke-width="2.5" width="20.0" x="385.0" y="445.0" /><rect fill="#0f172a" height="30.0" rx="0" stroke="none" stroke-width="2.5" width="20.0" x="315.0" y="490.0" /><rect fill="#0f172a" height="30.0" rx="0" stroke="none" stroke-width="2.5" width="20.0" x="350.0" y="490.0" /><rect fill="#0f172a" height="30.0" rx="0" stroke="none" stroke-width="2.5" width="20.0" x="385.0" y="490.0" /><rect fill="#334155" height="270" rx="0" stroke="none" stroke-width="2.5" width="140" x="420" y="280" /><rect fill="#0f172a" height="26.25" rx="0" stroke="none" stroke-width="2.5" width="17.5" x="465.5" y="300.0" /><rect fill="#0f172a" height="26.25" rx="0" stroke="none" stroke-width="2.5" width="17.5" x="497.0" y="300.0" /><rect fill="#0f172a" height="26.25" rx="0" stroke="none" stroke-width="2.5" width="17.5" x="528.5" y="300.0" /><rect fill="#0f172a" height="26.25" rx="0" stroke="none" stroke-width="2.5" width="17.5" x="434.0" y="340.25" /><rect fill="#0f172a" height="26.25" rx="0" stroke="none" stroke-width="2.5" width="17.5" x="465.5" y="340.25" /><rect fill="#0f172a" height="26.25" rx="0" stroke="none" stroke-width="2.5" width="17.5" x="497.0" y="340.25" /><rect fill="#0f172a" height="26.25" rx="0" stroke="none" stroke-width="2.5" width="17.5" x="434.0" y="380.5" /><rect fill="#0f172a" height="26.25" rx="0" stroke="none" stroke-width="2.5" width="17.5" x="465.5" y="380.5" /><rect fill="#0f172a" height="26.25" rx="0" stroke="none" stroke-width="2.5" width="17.5" x="497.0" y="380.5" /><rect fill="#0f172a" height="26.25" rx="0" stroke="none" stroke-width="2.5" width="17.5" x="528.5" y="380.5" /><rect fill="#0f172a" height="26.25" rx="0" stroke="none" stroke-width="2.5" width="17.5" x="434.0" y="420.75" /><rect fill="#0f172a" height="26.25" rx="0" stroke="none" stroke-width="2.5" width="17.5" x="497.0" y="420.75" /><rect fill="#0f172a" height="26.25" rx="0" stroke="none" stroke-width="2.5" width="17.5" x="528.5" y="420.75" /><rect fill="#0f172a" height="26.25" rx="0" stroke="none" stroke-width="2.5" width="17.5" x="434.0" y="461.0" /><rect fill="#0f172a" height="26.25" rx="0" stroke="none" stroke-width="2.5" width="17.5" x="465.5" y="461.0" /><rect fill="#0f172a" height="26.25" rx="0" stroke="none" stroke-width="2.5" width="17.5" x="528.5" y="461.0" /><rect fill="#0f172a" height="26.25" rx="0" stroke="none" stroke-width="2.5" width="17.5" x="434.0" y="501.25" /><rect fill="#0f172a" height="26.25" rx="0" stroke="none" stroke-width="2.5" width="17.5" x="465.5" y="501.25" /><rect fill="#0f172a" height="26.25" rx="0" stroke="none" stroke-width="2.5" width="17.5" x="497.0" y="501.25" /><rect fill="#0f172a" height="26.25" rx="0" stroke="none" stroke-width="2.5" width="17.5" x="528.5" y="501.25" /><rect fill="#475569" height="150" rx="0" stroke="none" stroke-width="2.5" width="80" x="560" y="400" /></g></svg>