<?xml version="1.0" encoding="UTF-8"?>
<svg xmlns="http://www.w3.org/2000/svg" viewBox="0 0 800 800">
    <defs>
        <radialGradient id="glowGrad_thermometer-sun" cx="50%" cy="50%" r="50%">
            <stop offset="0%" stop-color="#22c55e" stop-opacity="0.3" />
            <stop offset="100%" stop-color="#22c55e" stop-opacity="0" />
        </radialGradient>
        <linearGradient id="baseGrad_thermometer-sun" x1="0%" y1="0%" x2="100%" y2="100%">
            <stop offset="0%" stop-color="#334155" />
            <stop offset="100%" stop-color="#0f172a" />
        </linearGradient>
    </defs>
    <g id="thermometer-sun-container">
        <!-- Floating Base Tile -->
        <rect x="100" y="100" width="600" height="600" rx="120" fill="url(#baseGrad_thermometer-sun)" stroke="#1e293b" stroke-width="2.5"/>
        
        <!-- Glow backing behind the icon -->
        <circle cx="400" cy="400" r="250" fill="url(#glowGrad_thermometer-sun)"/>

        <!-- The actual Lucide icon, scaled up -->
        <g transform="translate(160, 160) scale(20)" 
           fill="none" 
           stroke="#22c55e" 
           stroke-width="1.5" 
           stroke-linecap="round" 
           stroke-linejoin="round">
            <path d="M12 2v2" />
  <path d="M12 8a4 4 0 0 0-1.645 7.647" />
  <path d="M2 12h2" />
  <path d="M20 14.54a4 4 0 1 1-4 0V4a2 2 0 0 1 4 0z" />
  <path d="m4.93 4.93 1.41 1.41" />
  <path d="m6.34 17.66-1.41 1.41" />
        </g>
        
        <!-- Minor accent details -->
        <circle cx="200" cy="200" r="10" fill="#22c55e"/>
        <circle cx="600" cy="600" r="10" fill="#22c55e"/>
    </g>
</svg>