<?xml version="1.0" encoding="UTF-8"?>
<svg xmlns="http://www.w3.org/2000/svg" viewBox="0 0 800 800">
    <defs>
        <radialGradient id="glowGrad_users" cx="50%" cy="50%" r="50%">
            <stop offset="0%" stop-color="#f472b6" stop-opacity="0.3" />
            <stop offset="100%" stop-color="#f472b6" stop-opacity="0" />
        </radialGradient>
        <linearGradient id="baseGrad_users" x1="0%" y1="0%" x2="100%" y2="100%">
            <stop offset="0%" stop-color="#334155" />
            <stop offset="100%" stop-color="#0f172a" />
        </linearGradient>
    </defs>
    <g id="users-container">
        <!-- Floating Base Tile -->
        <rect x="100" y="100" width="600" height="600" rx="120" fill="url(#baseGrad_users)" stroke="#1e293b" stroke-width="2.5"/>
        
        <!-- Glow backing behind the icon -->
        <circle cx="400" cy="400" r="250" fill="url(#glowGrad_users)"/>

        <!-- The actual Lucide icon, scaled up -->
        <g transform="translate(160, 160) scale(20)" 
           fill="none" 
           stroke="#f472b6" 
           stroke-width="1.5" 
           stroke-linecap="round" 
           stroke-linejoin="round">
            <path d="M16 21v-2a4 4 0 0 0-4-4H6a4 4 0 0 0-4 4v2" />
  <path d="M16 3.128a4 4 0 0 1 0 7.744" />
  <path d="M22 21v-2a4 4 0 0 0-3-3.87" />
  <circle cx="9" cy="7" r="4" />
        </g>
        
        <!-- Minor accent details -->
        <circle cx="200" cy="200" r="10" fill="#f472b6"/>
        <circle cx="600" cy="600" r="10" fill="#f472b6"/>
    </g>
</svg>