<?xml version="1.0" encoding="utf-8" ?>
<svg baseProfile="full" height="800" version="1.1" viewBox="0,0,800,800" width="800" xmlns="http://www.w3.org/2000/svg" xmlns:ev="http://www.w3.org/2001/xml-events" xmlns:xlink="http://www.w3.org/1999/xlink"><defs><linearGradient id="baseGrad" x1="0" x2="1" y1="0" y2="1"><stop offset="0.0" stop-color="#334155" /><stop offset="0.6" stop-color="#334155" /><stop offset="1.0" stop-color="#0f172a" /></linearGradient><linearGradient id="strokeGrad" x1="0" x2="1" y1="0" y2="1"><stop offset="0.0" stop-color="#ffffff" stop-opacity="0.9" /><stop offset="0.5" stop-color="#1e293b" stop-opacity="0.6" /><stop offset="1.0" stop-color="#1e293b" stop-opacity="0.2" /></linearGradient><radialGradient cx="0.5" cy="0.5" id="glowGrad" r="0.5"><stop offset="0.0" stop-color="#22c55e" stop-opacity="0.4" /><stop offset="1.0" stop-color="#22c55e" stop-opacity="0.0" /></radialGradient><filter height="160%" id="dropShadow" width="160%" x="-30%" y="-30%"><feGaussianBlur in="SourceAlpha" result="blur" stdDeviation="25" /><feOffset dx="0" dy="20" in="blur" result="offsetBlur" /><feFlood flood-color="#000000" flood-opacity="0.6" result="shadowColor" /><feComposite in="shadowColor" in2="offsetBlur" operator="in" result="shadow" /><feMerge><feMergeNode in="shadow" /><feMergeNode in="SourceGraphic" /></feMerge></filter><pattern height="40" id="dotGrid" patternUnits="userSpaceOnUse" width="40"><circle cx="20" cy="20" fill="#ffffff" opacity="0.08" r="2" /></pattern></defs><circle cx="400" cy="400" fill="url(#glowGrad)" r="380" /><circle cx="400" cy="400" fill="none" opacity="0.15" r="240" stroke="#22c55e" stroke-width="1.5" /><circle cx="400" cy="400" fill="none" opacity="0.25" r="320" stroke="#22c55e" stroke-dasharray="8 16" stroke-width="2" /><circle cx="400" cy="400" fill="none" opacity="0.08" r="400" stroke="#22c55e" stroke-dasharray="2 8" stroke-width="4" /><rect fill="url(#baseGrad)" filter="url(#dropShadow)" height="600" rx="120" stroke="url(#strokeGrad)" stroke-width="2.5" width="600" x="100" y="100" /><rect fill="none" height="540" opacity="0.3" rx="90" stroke="#22c55e" stroke-dasharray="4 8" stroke-width="1.5" width="540" x="130" y="130" /><circle cx="130" cy="130" fill="#22c55e" opacity="0.9" r="5" /><path d="M 112 130 L 148 130 M 130 112 L 130 148" opacity="0.6" stroke="#22c55e" stroke-width="2" /><circle cx="670" cy="130" fill="#22c55e" opacity="0.9" r="5" /><path d="M 652 130 L 688 130 M 670 112 L 670 148" opacity="0.6" stroke="#22c55e" stroke-width="2" /><circle cx="130" cy="670" fill="#22c55e" opacity="0.9" r="5" /><path d="M 112 670 L 148 670 M 130 652 L 130 688" opacity="0.6" stroke="#22c55e" stroke-width="2" /><circle cx="670" cy="670" fill="#22c55e" opacity="0.9" r="5" /><path d="M 652 670 L 688 670 M 670 652 L 670 688" opacity="0.6" stroke="#22c55e" stroke-width="2" /><rect fill="url(#dotGrid)" height="600" rx="120" width="600" x="100" y="100" /><g opacity="0.5"><path d="M 200 250 L 280 200 L 350 280 Z" fill="none" stroke="#22c55e" stroke-dasharray="4 4" stroke-width="1.5" /><path d="M 600 550 L 520 600 L 450 520 Z" fill="none" stroke="#22c55e" stroke-dasharray="4 4" stroke-width="1.5" /><circle cx="200" cy="250" fill="url(#baseGrad)" r="6" stroke="#22c55e" stroke-width="2" /><circle cx="280" cy="200" fill="url(#baseGrad)" r="6" stroke="#22c55e" stroke-width="2" /><circle cx="350" cy="280" fill="url(#baseGrad)" r="6" stroke="#22c55e" stroke-width="2" /><circle cx="600" cy="550" fill="url(#baseGrad)" r="6" stroke="#22c55e" stroke-width="2" /><circle cx="520" cy="600" fill="url(#baseGrad)" r="6" stroke="#22c55e" stroke-width="2" /><circle cx="450" cy="520" fill="url(#baseGrad)" r="6" stroke="#22c55e" stroke-width="2" /></g><path d="M 100 220 Q 400 -20 700 220 L 700 300 Q 400 80 100 300 Z" fill="#ffffff" opacity="0.06" /><g filter="url(#dropShadow)" id="ProceduralItems"><circle cx="400" cy="400" fill="none" r="200" stroke="#0ea5e9" stroke-width="20" /><ellipse cx="400" cy="400" fill="none" rx="200" ry="80" stroke="#0ea5e9" stroke-width="10" /><ellipse cx="400" cy="400" fill="none" rx="80" ry="200" stroke="#0ea5e9" stroke-width="10" /><circle cx="300" cy="300" fill="#bae6fd" r="20" stroke="url(#strokeGrad)" stroke-width="2.5" /></g></svg>