<?xml version="1.0" encoding="UTF-8"?>
<svg xmlns="http://www.w3.org/2000/svg" viewBox="0 0 800 800">
    <defs>
        <radialGradient id="glowGrad_zap" cx="50%" cy="50%" r="50%">
            <stop offset="0%" stop-color="#22c55e" stop-opacity="0.3" />
            <stop offset="100%" stop-color="#22c55e" stop-opacity="0" />
        </radialGradient>
        <linearGradient id="baseGrad_zap" x1="0%" y1="0%" x2="100%" y2="100%">
            <stop offset="0%" stop-color="#334155" />
            <stop offset="100%" stop-color="#0f172a" />
        </linearGradient>
    </defs>
    <g id="zap-container">
        <!-- Floating Base Tile -->
        <rect x="100" y="100" width="600" height="600" rx="120" fill="url(#baseGrad_zap)" stroke="#1e293b" stroke-width="2.5"/>
        
        <!-- Glow backing behind the icon -->
        <circle cx="400" cy="400" r="250" fill="url(#glowGrad_zap)"/>

        <!-- The actual Lucide icon, scaled up -->
        <g transform="translate(160, 160) scale(20)" 
           fill="none" 
           stroke="#22c55e" 
           stroke-width="1.5" 
           stroke-linecap="round" 
           stroke-linejoin="round">
            <path d="M4 14a1 1 0 0 1-.78-1.63l9.9-10.2a.5.5 0 0 1 .86.46l-1.92 6.02A1 1 0 0 0 13 10h7a1 1 0 0 1 .78 1.63l-9.9 10.2a.5.5 0 0 1-.86-.46l1.92-6.02A1 1 0 0 0 11 14z" />
        </g>
        
        <!-- Minor accent details -->
        <circle cx="200" cy="200" r="10" fill="#22c55e"/>
        <circle cx="600" cy="600" r="10" fill="#22c55e"/>
    </g>
</svg>