<?xml version="1.0" encoding="UTF-8"?>
<svg xmlns="http://www.w3.org/2000/svg" viewBox="0 0 800 800">
    <defs>
        <radialGradient id="glowGrad_brain-circuit" cx="50%" cy="50%" r="50%">
            <stop offset="0%" stop-color="#38bdf8" stop-opacity="0.3" />
            <stop offset="100%" stop-color="#38bdf8" stop-opacity="0" />
        </radialGradient>
        <linearGradient id="baseGrad_brain-circuit" x1="0%" y1="0%" x2="100%" y2="100%">
            <stop offset="0%" stop-color="#334155" />
            <stop offset="100%" stop-color="#0f172a" />
        </linearGradient>
    </defs>
    <g id="brain-circuit-container">
        <!-- Floating Base Tile -->
        <rect x="100" y="100" width="600" height="600" rx="120" fill="url(#baseGrad_brain-circuit)" stroke="#1e293b" stroke-width="2.5"/>
        
        <!-- Glow backing behind the icon -->
        <circle cx="400" cy="400" r="250" fill="url(#glowGrad_brain-circuit)"/>

        <!-- The actual Lucide icon, scaled up -->
        <g transform="translate(160, 160) scale(20)" 
           fill="none" 
           stroke="#38bdf8" 
           stroke-width="1.5" 
           stroke-linecap="round" 
           stroke-linejoin="round">
            <path d="M12 5a3 3 0 1 0-5.997.125 4 4 0 0 0-2.526 5.77 4 4 0 0 0 .556 6.588A4 4 0 1 0 12 18Z" />
  <path d="M9 13a4.5 4.5 0 0 0 3-4" />
  <path d="M6.003 5.125A3 3 0 0 0 6.401 6.5" />
  <path d="M3.477 10.896a4 4 0 0 1 .585-.396" />
  <path d="M6 18a4 4 0 0 1-1.967-.516" />
  <path d="M12 13h4" />
  <path d="M12 18h6a2 2 0 0 1 2 2v1" />
  <path d="M12 8h8" />
  <path d="M16 8V5a2 2 0 0 1 2-2" />
  <circle cx="16" cy="13" r=".5" />
  <circle cx="18" cy="3" r=".5" />
  <circle cx="20" cy="21" r=".5" />
  <circle cx="20" cy="8" r=".5" />
        </g>
        
        <!-- Minor accent details -->
        <circle cx="200" cy="200" r="10" fill="#38bdf8"/>
        <circle cx="600" cy="600" r="10" fill="#38bdf8"/>
    </g>
</svg>