<?xml version="1.0" encoding="UTF-8"?>
<svg xmlns="http://www.w3.org/2000/svg" viewBox="0 0 100 100" aria-label="influencer">
    <defs><linearGradient id="plate-fill" x1="12%" y1="10%" x2="88%" y2="92%"><stop offset="0%" stop-color="#FFFFFF" stop-opacity="0.94"/><stop offset="22%" stop-color="#D8E6F2" stop-opacity="0.96"/><stop offset="68%" stop-color="#37506A" stop-opacity="0.22"/><stop offset="100%" stop-color="#0F172A" stop-opacity="0.08"/></linearGradient><linearGradient id="fill-base" x1="18%" y1="10%" x2="84%" y2="92%"><stop offset="0%" stop-color="#D8E6F2" stop-opacity="0.88"/><stop offset="28%" stop-color="#37506A" stop-opacity="0.98"/><stop offset="100%" stop-color="#0F172A" stop-opacity="0.92"/></linearGradient><linearGradient id="fill-accent" x1="10%" y1="8%" x2="88%" y2="94%"><stop offset="0%" stop-color="#FFFFFF" stop-opacity="0.9"/><stop offset="24%" stop-color="#D8E6F2" stop-opacity="0.92"/><stop offset="100%" stop-color="#38BDF8" stop-opacity="1"/></linearGradient><linearGradient id="fill-muted" x1="8%" y1="8%" x2="92%" y2="92%"><stop offset="0%" stop-color="#FFFFFF" stop-opacity="0.96"/><stop offset="100%" stop-color="#D8E6F2" stop-opacity="0.94"/></linearGradient><radialGradient id="ambient-glow" cx="26%" cy="18%" r="84%"><stop offset="0%" stop-color="#38BDF8" stop-opacity="0.22"/><stop offset="42%" stop-color="#D8E6F2" stop-opacity="0.18"/><stop offset="100%" stop-color="#FFFFFF" stop-opacity="0"/></radialGradient></defs>
    <circle cx="50" cy="54" r="39" fill="#0F172A" stroke="none" stroke-width="3" stroke-linecap="round" stroke-linejoin="round" opacity="0.12"/>
    <circle cx="50" cy="50" r="44" fill="url(#ambient-glow)" stroke="none" stroke-width="3" stroke-linecap="round" stroke-linejoin="round"/>
    <circle cx="50" cy="50" r="40" fill="url(#plate-fill)" stroke="#0F172A" stroke-width="2.4" stroke-linecap="round" stroke-linejoin="round" opacity="0.98"/>
    <circle cx="50" cy="50" r="34" fill="none" stroke="#FFFFFF" stroke-width="1.4" stroke-linecap="round" stroke-linejoin="round" opacity="0.34"/>
    <path d="M 28 31 Q 50 20 72 28" fill="none" stroke="#FFFFFF" stroke-width="3" stroke-linecap="round" stroke-linejoin="round" opacity="0.42"/>
    <g transform="translate(0 3)" opacity="0.16"><circle cx="50" cy="33.5" r="8.8" fill="#0F172A" stroke="none" stroke-width="3" stroke-linecap="round" stroke-linejoin="round" opacity="0.18"/><circle cx="50" cy="32.0" r="7.0" fill="#0F172A" stroke="#0F172A" stroke-width="3" stroke-linecap="round" stroke-linejoin="round"/><path d="M 45.2 30.8 Q 50 25.8 54.8 30.8 Q 50 33.8 45.2 30.8 Z" fill="#0F172A" stroke="none" stroke-width="3" stroke-linecap="round" stroke-linejoin="round" opacity="0.42"/><rect x="41.0" y="46.0" width="18.0" height="20.0" rx="8.0" fill="#0F172A" stroke="#0F172A" stroke-width="3" stroke-linecap="round" stroke-linejoin="round"/><rect x="43.5" y="49.4" width="13.0" height="5.0" rx="2.6" fill="#0F172A" stroke="none" stroke-width="3" stroke-linecap="round" stroke-linejoin="round" opacity="0.54"/><path d="M 43.0 64.0 Q 50 71.0 57.0 64.0" fill="none" stroke="#0F172A" stroke-width="2.5" stroke-linecap="round" stroke-linejoin="round" opacity="0.52"/><line x1="50" y1="66.0" x2="50" y2="76.0" fill="none" stroke="#0F172A" stroke-width="3.0" stroke-linecap="round" stroke-linejoin="round"/><line x1="42.0" y1="54.0" x2="58.0" y2="54.0" fill="none" stroke="#0F172A" stroke-width="3.0" stroke-linecap="round" stroke-linejoin="round"/><line x1="50" y1="76.0" x2="43.0" y2="84.0" fill="none" stroke="#0F172A" stroke-width="3.0" stroke-linecap="round" stroke-linejoin="round"/><line x1="50" y1="76.0" x2="57.0" y2="84.0" fill="none" stroke="#0F172A" stroke-width="3.0" stroke-linecap="round" stroke-linejoin="round"/><ellipse cx="44.0" cy="84.5" rx="3.2" ry="1.6" fill="#0F172A" stroke="none" stroke-width="3" stroke-linecap="round" stroke-linejoin="round" opacity="0.92"/><ellipse cx="56.0" cy="84.5" rx="3.2" ry="1.6" fill="#0F172A" stroke="none" stroke-width="3" stroke-linecap="round" stroke-linejoin="round" opacity="0.92"/><rect x="60.0" y="54.0" width="14.0" height="10.0" rx="3.0" fill="#0F172A" stroke="#0F172A" stroke-width="3" stroke-linecap="round" stroke-linejoin="round"/><circle cx="67.0" cy="59.0" r="3.0" fill="#0F172A" stroke="#0F172A" stroke-width="3" stroke-linecap="round" stroke-linejoin="round"/></g>
    <g transform="translate(0 1)"><circle cx="50" cy="33.5" r="8.8" fill="url(#fill-accent)" stroke="none" stroke-width="3" stroke-linecap="round" stroke-linejoin="round" opacity="0.18"/><circle cx="50" cy="32.0" r="7.0" fill="url(#fill-base)" stroke="#0F172A" stroke-width="3" stroke-linecap="round" stroke-linejoin="round"/><path d="M 45.2 30.8 Q 50 25.8 54.8 30.8 Q 50 33.8 45.2 30.8 Z" fill="url(#fill-muted)" stroke="none" stroke-width="3" stroke-linecap="round" stroke-linejoin="round" opacity="0.42"/><rect x="41.0" y="46.0" width="18.0" height="20.0" rx="8.0" fill="url(#fill-accent)" stroke="#0F172A" stroke-width="3" stroke-linecap="round" stroke-linejoin="round"/><rect x="43.5" y="49.4" width="13.0" height="5.0" rx="2.6" fill="url(#fill-muted)" stroke="none" stroke-width="3" stroke-linecap="round" stroke-linejoin="round" opacity="0.54"/><path d="M 43.0 64.0 Q 50 71.0 57.0 64.0" fill="none" stroke="#37506A" stroke-width="2.5" stroke-linecap="round" stroke-linejoin="round" opacity="0.52"/><line x1="50" y1="66.0" x2="50" y2="76.0" fill="none" stroke="#0F172A" stroke-width="3.0" stroke-linecap="round" stroke-linejoin="round"/><line x1="42.0" y1="54.0" x2="58.0" y2="54.0" fill="none" stroke="#0F172A" stroke-width="3.0" stroke-linecap="round" stroke-linejoin="round"/><line x1="50" y1="76.0" x2="43.0" y2="84.0" fill="none" stroke="#0F172A" stroke-width="3.0" stroke-linecap="round" stroke-linejoin="round"/><line x1="50" y1="76.0" x2="57.0" y2="84.0" fill="none" stroke="#0F172A" stroke-width="3.0" stroke-linecap="round" stroke-linejoin="round"/><ellipse cx="44.0" cy="84.5" rx="3.2" ry="1.6" fill="url(#fill-base)" stroke="none" stroke-width="3" stroke-linecap="round" stroke-linejoin="round" opacity="0.92"/><ellipse cx="56.0" cy="84.5" rx="3.2" ry="1.6" fill="url(#fill-base)" stroke="none" stroke-width="3" stroke-linecap="round" stroke-linejoin="round" opacity="0.92"/><rect x="60.0" y="54.0" width="14.0" height="10.0" rx="3.0" fill="url(#fill-base)" stroke="#0F172A" stroke-width="3" stroke-linecap="round" stroke-linejoin="round"/><circle cx="67.0" cy="59.0" r="3.0" fill="url(#fill-muted)" stroke="#0F172A" stroke-width="3" stroke-linecap="round" stroke-linejoin="round"/></g>
    <circle cx="74" cy="24" r="3.5" fill="url(#fill-accent)" stroke="none" stroke-width="3" stroke-linecap="round" stroke-linejoin="round" opacity="0.92"/>
    <circle cx="68" cy="30" r="1.8" fill="#FFFFFF" stroke="none" stroke-width="3" stroke-linecap="round" stroke-linejoin="round" opacity="0.82"/>
</svg>
