<?xml version="1.0" encoding="UTF-8"?>
<svg xmlns="http://www.w3.org/2000/svg" viewBox="0 0 100 100" aria-label="meeting_table">
    <defs><linearGradient id="plate-fill" x1="12%" y1="10%" x2="88%" y2="92%"><stop offset="0%" stop-color="#FFFFFF" stop-opacity="0.94"/><stop offset="22%" stop-color="#D8E6F2" stop-opacity="0.96"/><stop offset="68%" stop-color="#37506A" stop-opacity="0.22"/><stop offset="100%" stop-color="#0F172A" stop-opacity="0.08"/></linearGradient><linearGradient id="fill-base" x1="18%" y1="10%" x2="84%" y2="92%"><stop offset="0%" stop-color="#D8E6F2" stop-opacity="0.88"/><stop offset="28%" stop-color="#37506A" stop-opacity="0.98"/><stop offset="100%" stop-color="#0F172A" stop-opacity="0.92"/></linearGradient><linearGradient id="fill-accent" x1="10%" y1="8%" x2="88%" y2="94%"><stop offset="0%" stop-color="#FFFFFF" stop-opacity="0.9"/><stop offset="24%" stop-color="#D8E6F2" stop-opacity="0.92"/><stop offset="100%" stop-color="#38BDF8" stop-opacity="1"/></linearGradient><linearGradient id="fill-muted" x1="8%" y1="8%" x2="92%" y2="92%"><stop offset="0%" stop-color="#FFFFFF" stop-opacity="0.96"/><stop offset="100%" stop-color="#D8E6F2" stop-opacity="0.94"/></linearGradient><radialGradient id="ambient-glow" cx="26%" cy="18%" r="84%"><stop offset="0%" stop-color="#38BDF8" stop-opacity="0.22"/><stop offset="42%" stop-color="#D8E6F2" stop-opacity="0.18"/><stop offset="100%" stop-color="#FFFFFF" stop-opacity="0"/></radialGradient></defs>
    <rect x="14" y="16" width="72" height="72" rx="22" fill="#0F172A" stroke="none" stroke-width="3" stroke-linecap="round" stroke-linejoin="round" opacity="0.12"/>
    <rect x="12" y="12" width="76" height="76" rx="22" fill="url(#ambient-glow)" stroke="none" stroke-width="3" stroke-linecap="round" stroke-linejoin="round"/>
    <rect x="12" y="12" width="76" height="76" rx="22" fill="url(#plate-fill)" stroke="#0F172A" stroke-width="2.4" stroke-linecap="round" stroke-linejoin="round" opacity="0.98"/>
    <rect x="18" y="18" width="64" height="64" rx="16" fill="none" stroke="#FFFFFF" stroke-width="1.4" stroke-linecap="round" stroke-linejoin="round" opacity="0.28"/>
    <path d="M 22 24 H 64" fill="none" stroke="#FFFFFF" stroke-width="3" stroke-linecap="round" stroke-linejoin="round" opacity="0.34"/>
    <g transform="translate(0 3)" opacity="0.16"><ellipse cx="50" cy="50" rx="26" ry="14" fill="#0F172A" stroke="#0F172A" stroke-width="3" stroke-linecap="round" stroke-linejoin="round"/><circle cx="28" cy="40.574999999999996" r="3.96" fill="#0F172A" stroke="none" stroke-width="3" stroke-linecap="round" stroke-linejoin="round" opacity="0.18"/><circle cx="28" cy="39.9" r="3.15" fill="#0F172A" stroke="#0F172A" stroke-width="3" stroke-linecap="round" stroke-linejoin="round"/><path d="M 25.84 39.36 Q 28 37.11 30.16 39.36 Q 28 40.71 25.84 39.36 Z" fill="#0F172A" stroke="none" stroke-width="3" stroke-linecap="round" stroke-linejoin="round" opacity="0.42"/><rect x="23.95" y="46.2" width="8.1" height="9.0" rx="3.6" fill="#0F172A" stroke="#0F172A" stroke-width="3" stroke-linecap="round" stroke-linejoin="round"/><rect x="25.075" y="47.730000000000004" width="5.85" height="2.25" rx="1.1700000000000002" fill="#0F172A" stroke="none" stroke-width="3" stroke-linecap="round" stroke-linejoin="round" opacity="0.54"/><path d="M 24.849999999999998 54.300000000000004 Q 28 57.45 31.15 54.300000000000004" fill="none" stroke="#0F172A" stroke-width="1.9" stroke-linecap="round" stroke-linejoin="round" opacity="0.52"/><line x1="28" y1="55.2" x2="28" y2="59.7" fill="none" stroke="#0F172A" stroke-width="2.4" stroke-linecap="round" stroke-linejoin="round"/><line x1="24.4" y1="49.800000000000004" x2="31.6" y2="49.800000000000004" fill="none" stroke="#0F172A" stroke-width="2.4" stroke-linecap="round" stroke-linejoin="round"/><line x1="28" y1="59.7" x2="24.85" y2="63.300000000000004" fill="none" stroke="#0F172A" stroke-width="2.4" stroke-linecap="round" stroke-linejoin="round"/><line x1="28" y1="59.7" x2="31.15" y2="63.300000000000004" fill="none" stroke="#0F172A" stroke-width="2.4" stroke-linecap="round" stroke-linejoin="round"/><ellipse cx="25.3" cy="63.525000000000006" rx="1.4400000000000002" ry="0.7200000000000001" fill="#0F172A" stroke="none" stroke-width="3" stroke-linecap="round" stroke-linejoin="round" opacity="0.92"/><ellipse cx="30.7" cy="63.525000000000006" rx="1.4400000000000002" ry="0.7200000000000001" fill="#0F172A" stroke="none" stroke-width="3" stroke-linecap="round" stroke-linejoin="round" opacity="0.92"/><circle cx="50" cy="26.575" r="3.96" fill="#0F172A" stroke="none" stroke-width="3" stroke-linecap="round" stroke-linejoin="round" opacity="0.18"/><circle cx="50" cy="25.9" r="3.15" fill="#0F172A" stroke="#0F172A" stroke-width="3" stroke-linecap="round" stroke-linejoin="round"/><path d="M 47.84 25.36 Q 50 23.11 52.16 25.36 Q 50 26.709999999999997 47.84 25.36 Z" fill="#0F172A" stroke="none" stroke-width="3" stroke-linecap="round" stroke-linejoin="round" opacity="0.42"/><rect x="45.95" y="32.2" width="8.1" height="9.0" rx="3.6" fill="#0F172A" stroke="#0F172A" stroke-width="3" stroke-linecap="round" stroke-linejoin="round"/><rect x="47.075" y="33.730000000000004" width="5.85" height="2.25" rx="1.1700000000000002" fill="#0F172A" stroke="none" stroke-width="3" stroke-linecap="round" stroke-linejoin="round" opacity="0.54"/><path d="M 46.85 40.300000000000004 Q 50 43.45 53.150000000000006 40.300000000000004" fill="none" stroke="#0F172A" stroke-width="1.9" stroke-linecap="round" stroke-linejoin="round" opacity="0.52"/><line x1="50" y1="41.2" x2="50" y2="45.7" fill="none" stroke="#0F172A" stroke-width="2.4" stroke-linecap="round" stroke-linejoin="round"/><line x1="46.4" y1="35.800000000000004" x2="53.6" y2="35.800000000000004" fill="none" stroke="#0F172A" stroke-width="2.4" stroke-linecap="round" stroke-linejoin="round"/><line x1="50" y1="45.7" x2="46.85" y2="49.300000000000004" fill="none" stroke="#0F172A" stroke-width="2.4" stroke-linecap="round" stroke-linejoin="round"/><line x1="50" y1="45.7" x2="53.15" y2="49.300000000000004" fill="none" stroke="#0F172A" stroke-width="2.4" stroke-linecap="round" stroke-linejoin="round"/><ellipse cx="47.3" cy="49.525000000000006" rx="1.4400000000000002" ry="0.7200000000000001" fill="#0F172A" stroke="none" stroke-width="3" stroke-linecap="round" stroke-linejoin="round" opacity="0.92"/><ellipse cx="52.7" cy="49.525000000000006" rx="1.4400000000000002" ry="0.7200000000000001" fill="#0F172A" stroke="none" stroke-width="3" stroke-linecap="round" stroke-linejoin="round" opacity="0.92"/><circle cx="72" cy="40.574999999999996" r="3.96" fill="#0F172A" stroke="none" stroke-width="3" stroke-linecap="round" stroke-linejoin="round" opacity="0.18"/><circle cx="72" cy="39.9" r="3.15" fill="#0F172A" stroke="#0F172A" stroke-width="3" stroke-linecap="round" stroke-linejoin="round"/><path d="M 69.84 39.36 Q 72 37.11 74.16 39.36 Q 72 40.71 69.84 39.36 Z" fill="#0F172A" stroke="none" stroke-width="3" stroke-linecap="round" stroke-linejoin="round" opacity="0.42"/><rect x="67.95" y="46.2" width="8.1" height="9.0" rx="3.6" fill="#0F172A" stroke="#0F172A" stroke-width="3" stroke-linecap="round" stroke-linejoin="round"/><rect x="69.075" y="47.730000000000004" width="5.85" height="2.25" rx="1.1700000000000002" fill="#0F172A" stroke="none" stroke-width="3" stroke-linecap="round" stroke-linejoin="round" opacity="0.54"/><path d="M 68.85000000000001 54.300000000000004 Q 72 57.45 75.14999999999999 54.300000000000004" fill="none" stroke="#0F172A" stroke-width="1.9" stroke-linecap="round" stroke-linejoin="round" opacity="0.52"/><line x1="72" y1="55.2" x2="72" y2="59.7" fill="none" stroke="#0F172A" stroke-width="2.4" stroke-linecap="round" stroke-linejoin="round"/><line x1="68.4" y1="49.800000000000004" x2="75.6" y2="49.800000000000004" fill="none" stroke="#0F172A" stroke-width="2.4" stroke-linecap="round" stroke-linejoin="round"/><line x1="72" y1="59.7" x2="68.85" y2="63.300000000000004" fill="none" stroke="#0F172A" stroke-width="2.4" stroke-linecap="round" stroke-linejoin="round"/><line x1="72" y1="59.7" x2="75.15" y2="63.300000000000004" fill="none" stroke="#0F172A" stroke-width="2.4" stroke-linecap="round" stroke-linejoin="round"/><ellipse cx="69.3" cy="63.525000000000006" rx="1.4400000000000002" ry="0.7200000000000001" fill="#0F172A" stroke="none" stroke-width="3" stroke-linecap="round" stroke-linejoin="round" opacity="0.92"/><ellipse cx="74.7" cy="63.525000000000006" rx="1.4400000000000002" ry="0.7200000000000001" fill="#0F172A" stroke="none" stroke-width="3" stroke-linecap="round" stroke-linejoin="round" opacity="0.92"/></g>
    <g transform="translate(0 1)"><ellipse cx="50" cy="50" rx="26" ry="14" fill="url(#fill-base)" stroke="#0F172A" stroke-width="3" stroke-linecap="round" stroke-linejoin="round"/><circle cx="28" cy="40.574999999999996" r="3.96" fill="url(#fill-accent)" stroke="none" stroke-width="3" stroke-linecap="round" stroke-linejoin="round" opacity="0.18"/><circle cx="28" cy="39.9" r="3.15" fill="url(#fill-base)" stroke="#0F172A" stroke-width="3" stroke-linecap="round" stroke-linejoin="round"/><path d="M 25.84 39.36 Q 28 37.11 30.16 39.36 Q 28 40.71 25.84 39.36 Z" fill="url(#fill-muted)" stroke="none" stroke-width="3" stroke-linecap="round" stroke-linejoin="round" opacity="0.42"/><rect x="23.95" y="46.2" width="8.1" height="9.0" rx="3.6" fill="url(#fill-accent)" stroke="#0F172A" stroke-width="3" stroke-linecap="round" stroke-linejoin="round"/><rect x="25.075" y="47.730000000000004" width="5.85" height="2.25" rx="1.1700000000000002" fill="url(#fill-muted)" stroke="none" stroke-width="3" stroke-linecap="round" stroke-linejoin="round" opacity="0.54"/><path d="M 24.849999999999998 54.300000000000004 Q 28 57.45 31.15 54.300000000000004" fill="none" stroke="#37506A" stroke-width="1.9" stroke-linecap="round" stroke-linejoin="round" opacity="0.52"/><line x1="28" y1="55.2" x2="28" y2="59.7" fill="none" stroke="#0F172A" stroke-width="2.4" stroke-linecap="round" stroke-linejoin="round"/><line x1="24.4" y1="49.800000000000004" x2="31.6" y2="49.800000000000004" fill="none" stroke="#0F172A" stroke-width="2.4" stroke-linecap="round" stroke-linejoin="round"/><line x1="28" y1="59.7" x2="24.85" y2="63.300000000000004" fill="none" stroke="#0F172A" stroke-width="2.4" stroke-linecap="round" stroke-linejoin="round"/><line x1="28" y1="59.7" x2="31.15" y2="63.300000000000004" fill="none" stroke="#0F172A" stroke-width="2.4" stroke-linecap="round" stroke-linejoin="round"/><ellipse cx="25.3" cy="63.525000000000006" rx="1.4400000000000002" ry="0.7200000000000001" fill="url(#fill-base)" stroke="none" stroke-width="3" stroke-linecap="round" stroke-linejoin="round" opacity="0.92"/><ellipse cx="30.7" cy="63.525000000000006" rx="1.4400000000000002" ry="0.7200000000000001" fill="url(#fill-base)" stroke="none" stroke-width="3" stroke-linecap="round" stroke-linejoin="round" opacity="0.92"/><circle cx="50" cy="26.575" r="3.96" fill="url(#fill-accent)" stroke="none" stroke-width="3" stroke-linecap="round" stroke-linejoin="round" opacity="0.18"/><circle cx="50" cy="25.9" r="3.15" fill="url(#fill-base)" stroke="#0F172A" stroke-width="3" stroke-linecap="round" stroke-linejoin="round"/><path d="M 47.84 25.36 Q 50 23.11 52.16 25.36 Q 50 26.709999999999997 47.84 25.36 Z" fill="url(#fill-muted)" stroke="none" stroke-width="3" stroke-linecap="round" stroke-linejoin="round" opacity="0.42"/><rect x="45.95" y="32.2" width="8.1" height="9.0" rx="3.6" fill="url(#fill-accent)" stroke="#0F172A" stroke-width="3" stroke-linecap="round" stroke-linejoin="round"/><rect x="47.075" y="33.730000000000004" width="5.85" height="2.25" rx="1.1700000000000002" fill="url(#fill-muted)" stroke="none" stroke-width="3" stroke-linecap="round" stroke-linejoin="round" opacity="0.54"/><path d="M 46.85 40.300000000000004 Q 50 43.45 53.150000000000006 40.300000000000004" fill="none" stroke="#37506A" stroke-width="1.9" stroke-linecap="round" stroke-linejoin="round" opacity="0.52"/><line x1="50" y1="41.2" x2="50" y2="45.7" fill="none" stroke="#0F172A" stroke-width="2.4" stroke-linecap="round" stroke-linejoin="round"/><line x1="46.4" y1="35.800000000000004" x2="53.6" y2="35.800000000000004" fill="none" stroke="#0F172A" stroke-width="2.4" stroke-linecap="round" stroke-linejoin="round"/><line x1="50" y1="45.7" x2="46.85" y2="49.300000000000004" fill="none" stroke="#0F172A" stroke-width="2.4" stroke-linecap="round" stroke-linejoin="round"/><line x1="50" y1="45.7" x2="53.15" y2="49.300000000000004" fill="none" stroke="#0F172A" stroke-width="2.4" stroke-linecap="round" stroke-linejoin="round"/><ellipse cx="47.3" cy="49.525000000000006" rx="1.4400000000000002" ry="0.7200000000000001" fill="url(#fill-base)" stroke="none" stroke-width="3" stroke-linecap="round" stroke-linejoin="round" opacity="0.92"/><ellipse cx="52.7" cy="49.525000000000006" rx="1.4400000000000002" ry="0.7200000000000001" fill="url(#fill-base)" stroke="none" stroke-width="3" stroke-linecap="round" stroke-linejoin="round" opacity="0.92"/><circle cx="72" cy="40.574999999999996" r="3.96" fill="url(#fill-accent)" stroke="none" stroke-width="3" stroke-linecap="round" stroke-linejoin="round" opacity="0.18"/><circle cx="72" cy="39.9" r="3.15" fill="url(#fill-base)" stroke="#0F172A" stroke-width="3" stroke-linecap="round" stroke-linejoin="round"/><path d="M 69.84 39.36 Q 72 37.11 74.16 39.36 Q 72 40.71 69.84 39.36 Z" fill="url(#fill-muted)" stroke="none" stroke-width="3" stroke-linecap="round" stroke-linejoin="round" opacity="0.42"/><rect x="67.95" y="46.2" width="8.1" height="9.0" rx="3.6" fill="url(#fill-accent)" stroke="#0F172A" stroke-width="3" stroke-linecap="round" stroke-linejoin="round"/><rect x="69.075" y="47.730000000000004" width="5.85" height="2.25" rx="1.1700000000000002" fill="url(#fill-muted)" stroke="none" stroke-width="3" stroke-linecap="round" stroke-linejoin="round" opacity="0.54"/><path d="M 68.85000000000001 54.300000000000004 Q 72 57.45 75.14999999999999 54.300000000000004" fill="none" stroke="#37506A" stroke-width="1.9" stroke-linecap="round" stroke-linejoin="round" opacity="0.52"/><line x1="72" y1="55.2" x2="72" y2="59.7" fill="none" stroke="#0F172A" stroke-width="2.4" stroke-linecap="round" stroke-linejoin="round"/><line x1="68.4" y1="49.800000000000004" x2="75.6" y2="49.800000000000004" fill="none" stroke="#0F172A" stroke-width="2.4" stroke-linecap="round" stroke-linejoin="round"/><line x1="72" y1="59.7" x2="68.85" y2="63.300000000000004" fill="none" stroke="#0F172A" stroke-width="2.4" stroke-linecap="round" stroke-linejoin="round"/><line x1="72" y1="59.7" x2="75.15" y2="63.300000000000004" fill="none" stroke="#0F172A" stroke-width="2.4" stroke-linecap="round" stroke-linejoin="round"/><ellipse cx="69.3" cy="63.525000000000006" rx="1.4400000000000002" ry="0.7200000000000001" fill="url(#fill-base)" stroke="none" stroke-width="3" stroke-linecap="round" stroke-linejoin="round" opacity="0.92"/><ellipse cx="74.7" cy="63.525000000000006" rx="1.4400000000000002" ry="0.7200000000000001" fill="url(#fill-base)" stroke="none" stroke-width="3" stroke-linecap="round" stroke-linejoin="round" opacity="0.92"/></g>
    <circle cx="76" cy="24" r="2.8" fill="url(#fill-accent)" stroke="none" stroke-width="3" stroke-linecap="round" stroke-linejoin="round" opacity="0.78"/>
</svg>
