<?xml version="1.0" encoding="UTF-8"?>
<svg xmlns="http://www.w3.org/2000/svg" viewBox="0 0 100 100" aria-label="skyscraper">
    <defs><linearGradient id="plate-fill" x1="12%" y1="10%" x2="88%" y2="92%"><stop offset="0%" stop-color="#FFFFFF" stop-opacity="0.94"/><stop offset="22%" stop-color="#D8E6F2" stop-opacity="0.96"/><stop offset="68%" stop-color="#37506A" stop-opacity="0.22"/><stop offset="100%" stop-color="#0F172A" stop-opacity="0.08"/></linearGradient><linearGradient id="fill-base" x1="18%" y1="10%" x2="84%" y2="92%"><stop offset="0%" stop-color="#D8E6F2" stop-opacity="0.88"/><stop offset="28%" stop-color="#37506A" stop-opacity="0.98"/><stop offset="100%" stop-color="#0F172A" stop-opacity="0.92"/></linearGradient><linearGradient id="fill-accent" x1="10%" y1="8%" x2="88%" y2="94%"><stop offset="0%" stop-color="#FFFFFF" stop-opacity="0.9"/><stop offset="24%" stop-color="#D8E6F2" stop-opacity="0.92"/><stop offset="100%" stop-color="#38BDF8" stop-opacity="1"/></linearGradient><linearGradient id="fill-muted" x1="8%" y1="8%" x2="92%" y2="92%"><stop offset="0%" stop-color="#FFFFFF" stop-opacity="0.96"/><stop offset="100%" stop-color="#D8E6F2" stop-opacity="0.94"/></linearGradient><radialGradient id="ambient-glow" cx="26%" cy="18%" r="84%"><stop offset="0%" stop-color="#38BDF8" stop-opacity="0.22"/><stop offset="42%" stop-color="#D8E6F2" stop-opacity="0.18"/><stop offset="100%" stop-color="#FFFFFF" stop-opacity="0"/></radialGradient></defs>
    <rect x="14" y="16" width="72" height="72" rx="22" fill="#0F172A" stroke="none" stroke-width="3" stroke-linecap="round" stroke-linejoin="round" opacity="0.12"/>
    <rect x="12" y="12" width="76" height="76" rx="22" fill="url(#ambient-glow)" stroke="none" stroke-width="3" stroke-linecap="round" stroke-linejoin="round"/>
    <rect x="12" y="12" width="76" height="76" rx="22" fill="url(#plate-fill)" stroke="#0F172A" stroke-width="2.4" stroke-linecap="round" stroke-linejoin="round" opacity="0.98"/>
    <rect x="18" y="18" width="64" height="64" rx="16" fill="none" stroke="#FFFFFF" stroke-width="1.4" stroke-linecap="round" stroke-linejoin="round" opacity="0.28"/>
    <path d="M 22 24 H 64" fill="none" stroke="#FFFFFF" stroke-width="3" stroke-linecap="round" stroke-linejoin="round" opacity="0.34"/>
    <g transform="translate(0 3)" opacity="0.16"><rect x="32" y="20" width="36" height="56" rx="8" fill="#0F172A" stroke="none" stroke-width="3" stroke-linecap="round" stroke-linejoin="round" opacity="0.12"/><rect x="32" y="18" width="36" height="56" rx="8" fill="#0F172A" stroke="#0F172A" stroke-width="3" stroke-linecap="round" stroke-linejoin="round"/><rect x="35" y="22" width="30" height="6" rx="2.5" fill="#0F172A" stroke="none" stroke-width="3" stroke-linecap="round" stroke-linejoin="round" opacity="0.28"/><rect x="37.0" y="24.0" width="5.5" height="6" rx="1.5" fill="#0F172A" stroke="none" stroke-width="3" stroke-linecap="round" stroke-linejoin="round"/><line x1="38.1" y1="26.1" x2="41.4" y2="26.1" fill="none" stroke="#0F172A" stroke-width="1.1" stroke-linecap="round" stroke-linejoin="round" opacity="0.46"/><rect x="37.0" y="32.421052631578945" width="5.5" height="6" rx="1.5" fill="#0F172A" stroke="none" stroke-width="3" stroke-linecap="round" stroke-linejoin="round"/><line x1="38.1" y1="34.52105263157895" x2="41.4" y2="34.52105263157895" fill="none" stroke="#0F172A" stroke-width="1.1" stroke-linecap="round" stroke-linejoin="round" opacity="0.46"/><rect x="37.0" y="40.84210526315789" width="5.5" height="6" rx="1.5" fill="#0F172A" stroke="none" stroke-width="3" stroke-linecap="round" stroke-linejoin="round"/><line x1="38.1" y1="42.94210526315789" x2="41.4" y2="42.94210526315789" fill="none" stroke="#0F172A" stroke-width="1.1" stroke-linecap="round" stroke-linejoin="round" opacity="0.46"/><rect x="37.0" y="49.26315789473684" width="5.5" height="6" rx="1.5" fill="#0F172A" stroke="none" stroke-width="3" stroke-linecap="round" stroke-linejoin="round"/><line x1="38.1" y1="51.363157894736844" x2="41.4" y2="51.363157894736844" fill="none" stroke="#0F172A" stroke-width="1.1" stroke-linecap="round" stroke-linejoin="round" opacity="0.46"/><rect x="37.0" y="57.68421052631579" width="5.5" height="6" rx="1.5" fill="#0F172A" stroke="none" stroke-width="3" stroke-linecap="round" stroke-linejoin="round"/><line x1="38.1" y1="59.78421052631579" x2="41.4" y2="59.78421052631579" fill="none" stroke="#0F172A" stroke-width="1.1" stroke-linecap="round" stroke-linejoin="round" opacity="0.46"/><rect x="46.0" y="24.0" width="5.5" height="6" rx="1.5" fill="#0F172A" stroke="none" stroke-width="3" stroke-linecap="round" stroke-linejoin="round"/><line x1="47.1" y1="26.1" x2="50.4" y2="26.1" fill="none" stroke="#0F172A" stroke-width="1.1" stroke-linecap="round" stroke-linejoin="round" opacity="0.46"/><rect x="46.0" y="32.421052631578945" width="5.5" height="6" rx="1.5" fill="#0F172A" stroke="none" stroke-width="3" stroke-linecap="round" stroke-linejoin="round"/><line x1="47.1" y1="34.52105263157895" x2="50.4" y2="34.52105263157895" fill="none" stroke="#0F172A" stroke-width="1.1" stroke-linecap="round" stroke-linejoin="round" opacity="0.46"/><rect x="46.0" y="40.84210526315789" width="5.5" height="6" rx="1.5" fill="#0F172A" stroke="none" stroke-width="3" stroke-linecap="round" stroke-linejoin="round"/><line x1="47.1" y1="42.94210526315789" x2="50.4" y2="42.94210526315789" fill="none" stroke="#0F172A" stroke-width="1.1" stroke-linecap="round" stroke-linejoin="round" opacity="0.46"/><rect x="46.0" y="49.26315789473684" width="5.5" height="6" rx="1.5" fill="#0F172A" stroke="none" stroke-width="3" stroke-linecap="round" stroke-linejoin="round"/><line x1="47.1" y1="51.363157894736844" x2="50.4" y2="51.363157894736844" fill="none" stroke="#0F172A" stroke-width="1.1" stroke-linecap="round" stroke-linejoin="round" opacity="0.46"/><rect x="46.0" y="57.68421052631579" width="5.5" height="6" rx="1.5" fill="#0F172A" stroke="none" stroke-width="3" stroke-linecap="round" stroke-linejoin="round"/><line x1="47.1" y1="59.78421052631579" x2="50.4" y2="59.78421052631579" fill="none" stroke="#0F172A" stroke-width="1.1" stroke-linecap="round" stroke-linejoin="round" opacity="0.46"/><rect x="55.0" y="24.0" width="5.5" height="6" rx="1.5" fill="#0F172A" stroke="none" stroke-width="3" stroke-linecap="round" stroke-linejoin="round"/><line x1="56.1" y1="26.1" x2="59.4" y2="26.1" fill="none" stroke="#0F172A" stroke-width="1.1" stroke-linecap="round" stroke-linejoin="round" opacity="0.46"/><rect x="55.0" y="32.421052631578945" width="5.5" height="6" rx="1.5" fill="#0F172A" stroke="none" stroke-width="3" stroke-linecap="round" stroke-linejoin="round"/><line x1="56.1" y1="34.52105263157895" x2="59.4" y2="34.52105263157895" fill="none" stroke="#0F172A" stroke-width="1.1" stroke-linecap="round" stroke-linejoin="round" opacity="0.46"/><rect x="55.0" y="40.84210526315789" width="5.5" height="6" rx="1.5" fill="#0F172A" stroke="none" stroke-width="3" stroke-linecap="round" stroke-linejoin="round"/><line x1="56.1" y1="42.94210526315789" x2="59.4" y2="42.94210526315789" fill="none" stroke="#0F172A" stroke-width="1.1" stroke-linecap="round" stroke-linejoin="round" opacity="0.46"/><rect x="55.0" y="49.26315789473684" width="5.5" height="6" rx="1.5" fill="#0F172A" stroke="none" stroke-width="3" stroke-linecap="round" stroke-linejoin="round"/><line x1="56.1" y1="51.363157894736844" x2="59.4" y2="51.363157894736844" fill="none" stroke="#0F172A" stroke-width="1.1" stroke-linecap="round" stroke-linejoin="round" opacity="0.46"/><rect x="55.0" y="57.68421052631579" width="5.5" height="6" rx="1.5" fill="#0F172A" stroke="none" stroke-width="3" stroke-linecap="round" stroke-linejoin="round"/><line x1="56.1" y1="59.78421052631579" x2="59.4" y2="59.78421052631579" fill="none" stroke="#0F172A" stroke-width="1.1" stroke-linecap="round" stroke-linejoin="round" opacity="0.46"/><rect x="45.68" y="62" width="8.64" height="12" rx="2.5" fill="#0F172A" stroke="none" stroke-width="3" stroke-linecap="round" stroke-linejoin="round" opacity="0.9"/></g>
    <g transform="translate(0 1)"><rect x="32" y="20" width="36" height="56" rx="8" fill="#0F172A" stroke="none" stroke-width="3" stroke-linecap="round" stroke-linejoin="round" opacity="0.12"/><rect x="32" y="18" width="36" height="56" rx="8" fill="url(#fill-base)" stroke="#0F172A" stroke-width="3" stroke-linecap="round" stroke-linejoin="round"/><rect x="35" y="22" width="30" height="6" rx="2.5" fill="url(#fill-muted)" stroke="none" stroke-width="3" stroke-linecap="round" stroke-linejoin="round" opacity="0.28"/><rect x="37.0" y="24.0" width="5.5" height="6" rx="1.5" fill="url(#fill-accent)" stroke="none" stroke-width="3" stroke-linecap="round" stroke-linejoin="round"/><line x1="38.1" y1="26.1" x2="41.4" y2="26.1" fill="none" stroke="#D8E6F2" stroke-width="1.1" stroke-linecap="round" stroke-linejoin="round" opacity="0.46"/><rect x="37.0" y="32.421052631578945" width="5.5" height="6" rx="1.5" fill="url(#fill-accent)" stroke="none" stroke-width="3" stroke-linecap="round" stroke-linejoin="round"/><line x1="38.1" y1="34.52105263157895" x2="41.4" y2="34.52105263157895" fill="none" stroke="#D8E6F2" stroke-width="1.1" stroke-linecap="round" stroke-linejoin="round" opacity="0.46"/><rect x="37.0" y="40.84210526315789" width="5.5" height="6" rx="1.5" fill="url(#fill-accent)" stroke="none" stroke-width="3" stroke-linecap="round" stroke-linejoin="round"/><line x1="38.1" y1="42.94210526315789" x2="41.4" y2="42.94210526315789" fill="none" stroke="#D8E6F2" stroke-width="1.1" stroke-linecap="round" stroke-linejoin="round" opacity="0.46"/><rect x="37.0" y="49.26315789473684" width="5.5" height="6" rx="1.5" fill="url(#fill-accent)" stroke="none" stroke-width="3" stroke-linecap="round" stroke-linejoin="round"/><line x1="38.1" y1="51.363157894736844" x2="41.4" y2="51.363157894736844" fill="none" stroke="#D8E6F2" stroke-width="1.1" stroke-linecap="round" stroke-linejoin="round" opacity="0.46"/><rect x="37.0" y="57.68421052631579" width="5.5" height="6" rx="1.5" fill="url(#fill-accent)" stroke="none" stroke-width="3" stroke-linecap="round" stroke-linejoin="round"/><line x1="38.1" y1="59.78421052631579" x2="41.4" y2="59.78421052631579" fill="none" stroke="#D8E6F2" stroke-width="1.1" stroke-linecap="round" stroke-linejoin="round" opacity="0.46"/><rect x="46.0" y="24.0" width="5.5" height="6" rx="1.5" fill="url(#fill-accent)" stroke="none" stroke-width="3" stroke-linecap="round" stroke-linejoin="round"/><line x1="47.1" y1="26.1" x2="50.4" y2="26.1" fill="none" stroke="#D8E6F2" stroke-width="1.1" stroke-linecap="round" stroke-linejoin="round" opacity="0.46"/><rect x="46.0" y="32.421052631578945" width="5.5" height="6" rx="1.5" fill="url(#fill-accent)" stroke="none" stroke-width="3" stroke-linecap="round" stroke-linejoin="round"/><line x1="47.1" y1="34.52105263157895" x2="50.4" y2="34.52105263157895" fill="none" stroke="#D8E6F2" stroke-width="1.1" stroke-linecap="round" stroke-linejoin="round" opacity="0.46"/><rect x="46.0" y="40.84210526315789" width="5.5" height="6" rx="1.5" fill="url(#fill-accent)" stroke="none" stroke-width="3" stroke-linecap="round" stroke-linejoin="round"/><line x1="47.1" y1="42.94210526315789" x2="50.4" y2="42.94210526315789" fill="none" stroke="#D8E6F2" stroke-width="1.1" stroke-linecap="round" stroke-linejoin="round" opacity="0.46"/><rect x="46.0" y="49.26315789473684" width="5.5" height="6" rx="1.5" fill="url(#fill-accent)" stroke="none" stroke-width="3" stroke-linecap="round" stroke-linejoin="round"/><line x1="47.1" y1="51.363157894736844" x2="50.4" y2="51.363157894736844" fill="none" stroke="#D8E6F2" stroke-width="1.1" stroke-linecap="round" stroke-linejoin="round" opacity="0.46"/><rect x="46.0" y="57.68421052631579" width="5.5" height="6" rx="1.5" fill="url(#fill-accent)" stroke="none" stroke-width="3" stroke-linecap="round" stroke-linejoin="round"/><line x1="47.1" y1="59.78421052631579" x2="50.4" y2="59.78421052631579" fill="none" stroke="#D8E6F2" stroke-width="1.1" stroke-linecap="round" stroke-linejoin="round" opacity="0.46"/><rect x="55.0" y="24.0" width="5.5" height="6" rx="1.5" fill="url(#fill-accent)" stroke="none" stroke-width="3" stroke-linecap="round" stroke-linejoin="round"/><line x1="56.1" y1="26.1" x2="59.4" y2="26.1" fill="none" stroke="#D8E6F2" stroke-width="1.1" stroke-linecap="round" stroke-linejoin="round" opacity="0.46"/><rect x="55.0" y="32.421052631578945" width="5.5" height="6" rx="1.5" fill="url(#fill-accent)" stroke="none" stroke-width="3" stroke-linecap="round" stroke-linejoin="round"/><line x1="56.1" y1="34.52105263157895" x2="59.4" y2="34.52105263157895" fill="none" stroke="#D8E6F2" stroke-width="1.1" stroke-linecap="round" stroke-linejoin="round" opacity="0.46"/><rect x="55.0" y="40.84210526315789" width="5.5" height="6" rx="1.5" fill="url(#fill-accent)" stroke="none" stroke-width="3" stroke-linecap="round" stroke-linejoin="round"/><line x1="56.1" y1="42.94210526315789" x2="59.4" y2="42.94210526315789" fill="none" stroke="#D8E6F2" stroke-width="1.1" stroke-linecap="round" stroke-linejoin="round" opacity="0.46"/><rect x="55.0" y="49.26315789473684" width="5.5" height="6" rx="1.5" fill="url(#fill-accent)" stroke="none" stroke-width="3" stroke-linecap="round" stroke-linejoin="round"/><line x1="56.1" y1="51.363157894736844" x2="59.4" y2="51.363157894736844" fill="none" stroke="#D8E6F2" stroke-width="1.1" stroke-linecap="round" stroke-linejoin="round" opacity="0.46"/><rect x="55.0" y="57.68421052631579" width="5.5" height="6" rx="1.5" fill="url(#fill-accent)" stroke="none" stroke-width="3" stroke-linecap="round" stroke-linejoin="round"/><line x1="56.1" y1="59.78421052631579" x2="59.4" y2="59.78421052631579" fill="none" stroke="#D8E6F2" stroke-width="1.1" stroke-linecap="round" stroke-linejoin="round" opacity="0.46"/><rect x="45.68" y="62" width="8.64" height="12" rx="2.5" fill="url(#fill-muted)" stroke="none" stroke-width="3" stroke-linecap="round" stroke-linejoin="round" opacity="0.9"/></g>
    <circle cx="76" cy="24" r="2.8" fill="url(#fill-accent)" stroke="none" stroke-width="3" stroke-linecap="round" stroke-linejoin="round" opacity="0.78"/>
</svg>
