<svg xmlns="http://www.w3.org/2000/svg" aria-label="balance_scale" viewBox="0 0 100 100"><defs><linearGradient id="b" x1="12%" x2="88%" y1="10%" y2="92%"><stop offset="0%" stop-color="#fff" stop-opacity=".94"/><stop offset="22%" stop-color="#d8e6f2" stop-opacity=".96"/><stop offset="68%" stop-color="#37506a" stop-opacity=".22"/><stop offset="100%" stop-color="#0f172a" stop-opacity=".08"/></linearGradient><linearGradient id="c" x1="18%" x2="84%" y1="10%" y2="92%"><stop offset="0%" stop-color="#d8e6f2" stop-opacity=".88"/><stop offset="28%" stop-color="#37506a" stop-opacity=".98"/><stop offset="100%" stop-color="#0f172a" stop-opacity=".92"/></linearGradient><linearGradient id="d" x1="10%" x2="88%" y1="8%" y2="94%"><stop offset="0%" stop-color="#fff" stop-opacity=".9"/><stop offset="24%" stop-color="#d8e6f2" stop-opacity=".92"/><stop offset="100%" stop-color="#38bdf8"/></linearGradient><radialGradient id="a" cx="26%" cy="18%" r="84%"><stop offset="0%" stop-color="#38bdf8" stop-opacity=".22"/><stop offset="42%" stop-color="#d8e6f2" stop-opacity=".18"/><stop offset="100%" stop-color="#fff" stop-opacity="0"/></radialGradient></defs><circle cx="50" cy="54" r="39" fill="#0f172a" opacity=".12"/><circle cx="50" cy="50" r="44" fill="url(#a)"/><circle cx="50" cy="50" r="40" fill="url(#b)" stroke="#0f172a" stroke-linecap="round" stroke-linejoin="round" stroke-width="2.4" opacity=".98"/><circle cx="50" cy="50" r="34" fill="none" stroke="#fff" stroke-linecap="round" stroke-linejoin="round" stroke-width="1.4" opacity=".34"/><path fill="none" stroke="#fff" stroke-linecap="round" stroke-linejoin="round" stroke-width="3" d="M28 31q22-11 44-3" opacity=".42"/><g stroke="#0f172a" stroke-linecap="round" stroke-linejoin="round" opacity=".16"><path fill="none" stroke-width="4" d="M50 27v50M34 37h32"/><path fill="none" stroke-width="3" d="m34 37-6 18m38-18 6 18"/><path fill="#0f172a" stroke-width="3" d="M20 55h16q-2 12-8 12t-8-12m44 0h16q-2 12-8 12t-8-12"/></g><g stroke="#0f172a" stroke-linecap="round" stroke-linejoin="round"><path fill="none" stroke-width="4" d="M50 25v50M34 35h32"/><path fill="none" stroke-width="3" d="m34 35-6 18m38-18 6 18"/><path fill="url(#c)" stroke-width="3" d="M20 52h16q-2 12-8 12t-8-12" transform="translate(0 1)"/><path fill="url(#d)" stroke-width="3" d="M64 52h16q-2 12-8 12t-8-12" transform="translate(0 1)"/></g><circle cx="76" cy="24" r="2.8" fill="url(#d)" opacity=".78"/></svg>