<svg xmlns="http://www.w3.org/2000/svg" aria-label="bank_building" viewBox="0 0 100 100"><defs><linearGradient id="b" x1="12%" x2="88%" y1="10%" y2="92%"><stop offset="0%" stop-color="#fff" stop-opacity=".94"/><stop offset="22%" stop-color="#d8e6f2" stop-opacity=".96"/><stop offset="68%" stop-color="#37506a" stop-opacity=".22"/><stop offset="100%" stop-color="#0f172a" stop-opacity=".08"/></linearGradient><linearGradient id="d" x1="18%" x2="84%" y1="10%" y2="92%"><stop offset="0%" stop-color="#d8e6f2" stop-opacity=".88"/><stop offset="28%" stop-color="#37506a" stop-opacity=".98"/><stop offset="100%" stop-color="#0f172a" stop-opacity=".92"/></linearGradient><linearGradient id="c" x1="10%" x2="88%" y1="8%" y2="94%"><stop offset="0%" stop-color="#fff" stop-opacity=".9"/><stop offset="24%" stop-color="#d8e6f2" stop-opacity=".92"/><stop offset="100%" stop-color="#38bdf8"/></linearGradient><linearGradient id="e" x1="8%" x2="92%" y1="8%" y2="92%"><stop offset="0%" stop-color="#fff" stop-opacity=".96"/><stop offset="100%" stop-color="#d8e6f2" stop-opacity=".94"/></linearGradient><radialGradient id="a" cx="26%" cy="18%" r="84%"><stop offset="0%" stop-color="#38bdf8" stop-opacity=".22"/><stop offset="42%" stop-color="#d8e6f2" stop-opacity=".18"/><stop offset="100%" stop-color="#fff" stop-opacity="0"/></radialGradient></defs><rect width="72" height="72" x="14" y="16" fill="#0f172a" opacity=".12" rx="22"/><rect width="76" height="76" x="12" y="12" fill="url(#a)" rx="22"/><rect width="76" height="76" x="12" y="12" fill="url(#b)" stroke="#0f172a" stroke-linecap="round" stroke-linejoin="round" stroke-width="2.4" opacity=".98" rx="22"/><rect width="64" height="64" x="18" y="18" fill="none" stroke="#fff" stroke-linecap="round" stroke-linejoin="round" stroke-width="1.4" opacity=".28" rx="16"/><path fill="none" stroke="#fff" stroke-linecap="round" stroke-linejoin="round" stroke-width="3" d="M22 24h42" opacity=".34"/><g fill="#0f172a" stroke="#0f172a" stroke-linecap="round" stroke-linejoin="round" stroke-width="3" opacity=".16" transform="translate(0 3)"><path d="M50 18 20 34h60z"/><rect width="56" height="8" x="22" y="34" rx="2"/><rect width="8" height="26" x="28" y="42" rx="3"/><rect width="8" height="26" x="46" y="42" rx="3"/><rect width="8" height="26" x="64" y="42" rx="3"/><rect width="60" height="8" x="20" y="68" rx="2"/></g><g stroke="#0f172a" stroke-linecap="round" stroke-linejoin="round" stroke-width="3" transform="translate(0 1)"><path fill="url(#c)" d="M50 18 20 34h60z"/><rect width="56" height="8" x="22" y="34" fill="url(#d)" rx="2"/><rect width="8" height="26" x="28" y="42" fill="url(#e)" rx="3"/><rect width="8" height="26" x="46" y="42" fill="url(#e)" rx="3"/><rect width="8" height="26" x="64" y="42" fill="url(#e)" rx="3"/><rect width="60" height="8" x="20" y="68" fill="url(#d)" rx="2"/></g><circle cx="76" cy="24" r="2.8" fill="url(#c)" opacity=".78"/></svg>