<?xml version="1.0" encoding="UTF-8" standalone="no"?>
<svg
   viewBox="0 0 200 400"
   version="1.1"
   id="svg8"
   xmlns="http://www.w3.org/2000/svg"
   xmlns:svg="http://www.w3.org/2000/svg">
  <defs
     id="defs8" />
  <g
     id="CharacterGroup">
    <!-- Body -->
    <rect
       x="70"
       y="150"
       width="60"
       height="120"
       rx="30"
       fill="#22c55e"
       stroke="#1e293b"
       stroke-width="2.5"
       id="rect1" />
    <!-- Dynamic Belt -->
    <rect
       x="70"
       y="240"
       width="60"
       height="10"
       fill="#1e293b"
       id="rect2" />
    <!-- Arms -->
    <path
       d="M70,180 C40,200 40,250 50,280"
       fill="none"
       stroke="#22c55e"
       stroke-width="20"
       stroke-linecap="round"
       id="path2" />
    <path
       d="M130,180 C160,200 160,250 150,280"
       fill="none"
       stroke="#22c55e"
       stroke-width="20"
       stroke-linecap="round"
       id="path3" />
    <!-- Hands -->
    <circle
       cx="50"
       cy="280"
       r="15"
       fill="#c68642"
       stroke="#1e293b"
       stroke-width="2.5"
       id="circle3" />
    <circle
       cx="150"
       cy="280"
       r="15"
       fill="#c68642"
       stroke="#1e293b"
       stroke-width="2.5"
       id="circle4" />
    <!-- Legs -->
    <rect
       x="80"
       y="270"
       width="15"
       height="100"
       rx="7.5"
       fill="#c68642"
       stroke="#1e293b"
       stroke-width="2.5"
       id="rect4" />
    <rect
       x="105"
       y="270"
       width="15"
       height="100"
       rx="7.5"
       fill="#c68642"
       stroke="#1e293b"
       stroke-width="2.5"
       id="rect5" />
    <!-- Feet -->
    <path
       d="M70,370 L95,370 C95,360 85,355 70,360 Z"
       fill="#2d2d2d"
       id="path5" />
    <path
       d="M105,370 L130,370 C130,360 120,355 105,360 Z"
       fill="#2d2d2d"
       id="path6" />
    <!-- Head -->
    <circle
       cx="100"
       cy="100"
       r="45"
       fill="#c68642"
       stroke="#1e293b"
       stroke-width="2.5"
       id="circle6" />
    <!-- Hair Long -->
    <path
       d="M 55 100 A 45 45 0 0 1 145 100 L 150 160 C 120 180 80 180 50 160 Z"
       fill="#a03d33"
       stroke="#1e293b"
       stroke-width="2.5"
       id="path7" />
    <!-- Eyes -->
    <line
       x1="80"
       y1="90"
       x2="95"
       y2="95"
       stroke="#000"
       stroke-width="3"
       stroke-linecap="round"
       id="line7" />
    <circle
       cx="88"
       cy="100"
       r="3"
       fill="#000"
       id="circle7" />
    <line
       x1="120"
       y1="90"
       x2="105"
       y2="95"
       stroke="#000"
       stroke-width="3"
       stroke-linecap="round"
       id="line8" />
    <circle
       cx="112"
       cy="100"
       r="3"
       fill="#000"
       id="circle8" />
    <!-- Mouth -->
    <path
       d="M90,120 L110,120"
       fill="none"
       stroke="#000"
       stroke-width="3"
       stroke-linecap="round"
       id="path8" />
  </g>
</svg>
