<svg xmlns="http://www.w3.org/2000/svg" viewBox="0 0 200 400"><rect width="60" height="120" x="70" y="150" fill="#38bdf8" stroke="#1e293b" stroke-width="2.5" rx="30"/><path fill="#1e293b" d="M70 240h60v10H70z"/><path fill="none" stroke="#38bdf8" stroke-linecap="round" stroke-width="20" d="M70 180c-30 20-30 70-20 100m80-100c30 20 30 70 20 100"/><circle cx="50" cy="280" r="15" fill="#f1c27d" stroke="#1e293b" stroke-width="2.5"/><circle cx="150" cy="280" r="15" fill="#f1c27d" stroke="#1e293b" stroke-width="2.5"/><rect width="15" height="100" x="80" y="270" fill="#f1c27d" stroke="#1e293b" stroke-width="2.5" rx="7.5"/><rect width="15" height="100" x="105" y="270" fill="#f1c27d" stroke="#1e293b" stroke-width="2.5" rx="7.5"/><path fill="#2d2d2d" d="M70 370h25c0-10-10-15-25-10Zm35 0h25c0-10-10-15-25-10Z"/><circle cx="100" cy="100" r="45" fill="#f1c27d" stroke="#1e293b" stroke-width="2.5"/><path fill="#4a4a4a" stroke="#1e293b" stroke-width="2.5" d="m55 90 5-40 15 20 15-40 20 40 15-30 15 40a45 45 0 0 0-85 10Z"/><path fill="none" stroke="#000" stroke-linecap="round" stroke-width="3" d="M85 95q5-10 10 0m10 0q5-10 10 0m-25 20q10 15 20 0"/><rect width="20" height="15" x="75" y="85" fill="none" stroke="#000" stroke-width="3" rx="3"/><rect width="20" height="15" x="105" y="85" fill="none" stroke="#000" stroke-width="3" rx="3"/><path stroke="#000" stroke-width="2" d="M95 92h10m-30 0H55m70 0h20"/></svg>