<svg xmlns="http://www.w3.org/2000/svg" aria-label="child" viewBox="0 0 100 100"><defs><linearGradient id="b" x1="12%" x2="88%" y1="10%" y2="92%"><stop offset="0%" stop-color="#fff" stop-opacity=".94"/><stop offset="22%" stop-color="#d8e6f2" stop-opacity=".96"/><stop offset="68%" stop-color="#37506a" stop-opacity=".22"/><stop offset="100%" stop-color="#0f172a" stop-opacity=".08"/></linearGradient><linearGradient id="d" x1="18%" x2="84%" y1="10%" y2="92%"><stop offset="0%" stop-color="#d8e6f2" stop-opacity=".88"/><stop offset="28%" stop-color="#37506a" stop-opacity=".98"/><stop offset="100%" stop-color="#0f172a" stop-opacity=".92"/></linearGradient><linearGradient id="c" x1="10%" x2="88%" y1="8%" y2="94%"><stop offset="0%" stop-color="#fff" stop-opacity=".9"/><stop offset="24%" stop-color="#d8e6f2" stop-opacity=".92"/><stop offset="100%" stop-color="#38bdf8"/></linearGradient><linearGradient id="e" x1="8%" x2="92%" y1="8%" y2="92%"><stop offset="0%" stop-color="#fff" stop-opacity=".96"/><stop offset="100%" stop-color="#d8e6f2" stop-opacity=".94"/></linearGradient><radialGradient id="a" cx="26%" cy="18%" r="84%"><stop offset="0%" stop-color="#38bdf8" stop-opacity=".22"/><stop offset="42%" stop-color="#d8e6f2" stop-opacity=".18"/><stop offset="100%" stop-color="#fff" stop-opacity="0"/></radialGradient></defs><circle cx="50" cy="54" r="39" fill="#0f172a" opacity=".12"/><circle cx="50" cy="50" r="44" fill="url(#a)"/><circle cx="50" cy="50" r="40" fill="url(#b)" stroke="#0f172a" stroke-linecap="round" stroke-linejoin="round" stroke-width="2.4" opacity=".98"/><circle cx="50" cy="50" r="34" fill="none" stroke="#fff" stroke-linecap="round" stroke-linejoin="round" stroke-width="1.4" opacity=".34"/><path fill="none" stroke="#fff" stroke-linecap="round" stroke-linejoin="round" stroke-width="3" d="M28 31q22-11 44-3" opacity=".42"/><g opacity=".16" transform="translate(0 3)"><circle cx="50" cy="41.46" r="6.688" fill="#0f172a" opacity=".18"/><circle cx="50" cy="40.32" r="5.32" fill="#0f172a" stroke="#0f172a" stroke-linecap="round" stroke-linejoin="round" stroke-width="3"/><path fill="#0f172a" d="M46.352 39.408q3.648-3.8 7.296 0-3.648 2.28-7.296 0" opacity=".42"/><rect width="13.68" height="15.2" x="43.16" y="50.96" fill="#0f172a" stroke="#0f172a" stroke-linecap="round" stroke-linejoin="round" stroke-width="3" rx="6.08"/><rect width="9.88" height="3.8" x="45.06" y="53.544" fill="#0f172a" opacity=".54" rx="1.976"/><path fill="none" stroke="#0f172a" stroke-linecap="round" stroke-linejoin="round" stroke-width="1.9" d="M44.68 64.64q5.32 5.32 10.64 0" opacity=".52"/><path fill="none" stroke="#0f172a" stroke-linecap="round" stroke-linejoin="round" stroke-width="2.4" d="M50 66.16v7.6m-6.08-16.72h12.16M50 73.76l-5.32 6.08M50 73.76l5.32 6.08"/><ellipse cx="45.44" cy="80.22" fill="#0f172a" opacity=".92" rx="2.432" ry="1.216"/><ellipse cx="54.56" cy="80.22" fill="#0f172a" opacity=".92" rx="2.432" ry="1.216"/></g><g transform="translate(0 1)"><circle cx="50" cy="41.46" r="6.688" fill="url(#c)" opacity=".18"/><circle cx="50" cy="40.32" r="5.32" fill="url(#d)" stroke="#0f172a" stroke-linecap="round" stroke-linejoin="round" stroke-width="3"/><path fill="url(#e)" d="M46.352 39.408q3.648-3.8 7.296 0-3.648 2.28-7.296 0" opacity=".42"/><rect width="13.68" height="15.2" x="43.16" y="50.96" fill="url(#c)" stroke="#0f172a" stroke-linecap="round" stroke-linejoin="round" stroke-width="3" rx="6.08"/><rect width="9.88" height="3.8" x="45.06" y="53.544" fill="url(#e)" opacity=".54" rx="1.976"/><path fill="none" stroke="#37506a" stroke-linecap="round" stroke-linejoin="round" stroke-width="1.9" d="M44.68 64.64q5.32 5.32 10.64 0" opacity=".52"/><path fill="none" stroke="#0f172a" stroke-linecap="round" stroke-linejoin="round" stroke-width="2.4" d="M50 66.16v7.6m-6.08-16.72h12.16M50 73.76l-5.32 6.08M50 73.76l5.32 6.08"/><ellipse cx="45.44" cy="80.22" fill="url(#d)" opacity=".92" rx="2.432" ry="1.216"/><ellipse cx="54.56" cy="80.22" fill="url(#d)" opacity=".92" rx="2.432" ry="1.216"/></g><circle cx="74" cy="24" r="3.5" fill="url(#c)" opacity=".92"/><circle cx="68" cy="30" r="1.8" fill="#fff" opacity=".82"/></svg>