<svg xmlns="http://www.w3.org/2000/svg" aria-label="corporate_headquarters" viewBox="0 0 100 100"><defs><linearGradient id="b" x1="12%" x2="88%" y1="10%" y2="92%"><stop offset="0%" stop-color="#fff" stop-opacity=".94"/><stop offset="22%" stop-color="#d8e6f2" stop-opacity=".96"/><stop offset="68%" stop-color="#37506a" stop-opacity=".22"/><stop offset="100%" stop-color="#0f172a" stop-opacity=".08"/></linearGradient><linearGradient id="c" x1="10%" x2="88%" y1="8%" y2="94%"><stop offset="0%" stop-color="#fff" stop-opacity=".9"/><stop offset="24%" stop-color="#d8e6f2" stop-opacity=".92"/><stop offset="100%" stop-color="#38bdf8"/></linearGradient><linearGradient id="d" x1="8%" x2="92%" y1="8%" y2="92%"><stop offset="0%" stop-color="#fff" stop-opacity=".96"/><stop offset="100%" stop-color="#d8e6f2" stop-opacity=".94"/></linearGradient><radialGradient id="a" cx="26%" cy="18%" r="84%"><stop offset="0%" stop-color="#38bdf8" stop-opacity=".22"/><stop offset="42%" stop-color="#d8e6f2" stop-opacity=".18"/><stop offset="100%" stop-color="#fff" stop-opacity="0"/></radialGradient></defs><rect width="72" height="72" x="14" y="16" fill="#0f172a" opacity=".12" rx="22"/><rect width="76" height="76" x="12" y="12" fill="url(#a)" rx="22"/><rect width="76" height="76" x="12" y="12" fill="url(#b)" stroke="#0f172a" stroke-linecap="round" stroke-linejoin="round" stroke-width="2.4" opacity=".98" rx="22"/><rect width="64" height="64" x="18" y="18" fill="none" stroke="#fff" stroke-linecap="round" stroke-linejoin="round" stroke-width="1.4" opacity=".28" rx="16"/><path fill="none" stroke="#fff" stroke-linecap="round" stroke-linejoin="round" stroke-width="3" d="M22 24h42" opacity=".34"/><g opacity=".16" transform="translate(0 3)"><rect width="36" height="56" x="32" y="20" fill="#0f172a" opacity=".12" rx="8"/><rect width="36" height="56" x="32" y="18" fill="#0f172a" stroke="#0f172a" stroke-linecap="round" stroke-linejoin="round" stroke-width="3" rx="8"/><rect width="30" height="6" x="35" y="22" fill="#0f172a" opacity=".28" rx="2.5"/><rect width="5.5" height="6" x="37" y="24" fill="#0f172a" rx="1.5"/><path fill="none" stroke="#0f172a" stroke-linecap="round" stroke-linejoin="round" stroke-width="1.1" d="M38.1 26.1h3.3" opacity=".46"/><rect width="5.5" height="6" x="37" y="32.421" fill="#0f172a" rx="1.5"/><path fill="none" stroke="#0f172a" stroke-linecap="round" stroke-linejoin="round" stroke-width="1.1" d="M38.1 34.521h3.3" opacity=".46"/><rect width="5.5" height="6" x="37" y="40.842" fill="#0f172a" rx="1.5"/><path fill="none" stroke="#0f172a" stroke-linecap="round" stroke-linejoin="round" stroke-width="1.1" d="M38.1 42.942h3.3" opacity=".46"/><rect width="5.5" height="6" x="37" y="49.263" fill="#0f172a" rx="1.5"/><path fill="none" stroke="#0f172a" stroke-linecap="round" stroke-linejoin="round" stroke-width="1.1" d="M38.1 51.363h3.3" opacity=".46"/><rect width="5.5" height="6" x="37" y="57.684" fill="#0f172a" rx="1.5"/><path fill="none" stroke="#0f172a" stroke-linecap="round" stroke-linejoin="round" stroke-width="1.1" d="M38.1 59.784h3.3" opacity=".46"/><rect width="5.5" height="6" x="46" y="24" fill="#0f172a" rx="1.5"/><path fill="none" stroke="#0f172a" stroke-linecap="round" stroke-linejoin="round" stroke-width="1.1" d="M47.1 26.1h3.3" opacity=".46"/><rect width="5.5" height="6" x="46" y="32.421" fill="#0f172a" rx="1.5"/><path fill="none" stroke="#0f172a" stroke-linecap="round" stroke-linejoin="round" stroke-width="1.1" d="M47.1 34.521h3.3" opacity=".46"/><rect width="5.5" height="6" x="46" y="40.842" fill="#0f172a" rx="1.5"/><path fill="none" stroke="#0f172a" stroke-linecap="round" stroke-linejoin="round" stroke-width="1.1" d="M47.1 42.942h3.3" opacity=".46"/><rect width="5.5" height="6" x="46" y="49.263" fill="#0f172a" rx="1.5"/><path fill="none" stroke="#0f172a" stroke-linecap="round" stroke-linejoin="round" stroke-width="1.1" d="M47.1 51.363h3.3" opacity=".46"/><rect width="5.5" height="6" x="46" y="57.684" fill="#0f172a" rx="1.5"/><path fill="none" stroke="#0f172a" stroke-linecap="round" stroke-linejoin="round" stroke-width="1.1" d="M47.1 59.784h3.3" opacity=".46"/><rect width="5.5" height="6" x="55" y="24" fill="#0f172a" rx="1.5"/><path fill="none" stroke="#0f172a" stroke-linecap="round" stroke-linejoin="round" stroke-width="1.1" d="M56.1 26.1h3.3" opacity=".46"/><rect width="5.5" height="6" x="55" y="32.421" fill="#0f172a" rx="1.5"/><path fill="none" stroke="#0f172a" stroke-linecap="round" stroke-linejoin="round" stroke-width="1.1" d="M56.1 34.521h3.3" opacity=".46"/><rect width="5.5" height="6" x="55" y="40.842" fill="#0f172a" rx="1.5"/><path fill="none" stroke="#0f172a" stroke-linecap="round" stroke-linejoin="round" stroke-width="1.1" d="M56.1 42.942h3.3" opacity=".46"/><rect width="5.5" height="6" x="55" y="49.263" fill="#0f172a" rx="1.5"/><path fill="none" stroke="#0f172a" stroke-linecap="round" stroke-linejoin="round" stroke-width="1.1" d="M56.1 51.363h3.3" opacity=".46"/><rect width="5.5" height="6" x="55" y="57.684" fill="#0f172a" rx="1.5"/><path fill="none" stroke="#0f172a" stroke-linecap="round" stroke-linejoin="round" stroke-width="1.1" d="M56.1 59.784h3.3" opacity=".46"/><rect width="8.64" height="12" x="45.68" y="62" fill="#0f172a" opacity=".9" rx="2.5"/><path fill="none" stroke="#0f172a" stroke-linecap="round" stroke-linejoin="round" stroke-width="3" d="M50 10v12"/><path fill="#0f172a" stroke="#0f172a" stroke-linecap="round" stroke-linejoin="round" stroke-width="3" d="m50 10 10 4-10 4z"/></g><g transform="translate(0 1)"><rect width="36" height="56" x="32" y="20" fill="#0f172a" opacity=".12" rx="8"/><rect width="36" height="56" x="32" y="18" fill="url(#c)" stroke="#0f172a" stroke-linecap="round" stroke-linejoin="round" stroke-width="3" rx="8"/><rect width="30" height="6" x="35" y="22" fill="url(#d)" opacity=".28" rx="2.5"/><rect width="5.5" height="6" x="37" y="24" fill="url(#d)" rx="1.5"/><path fill="none" stroke="#fff" stroke-linecap="round" stroke-linejoin="round" stroke-width="1.1" d="M38.1 26.1h3.3" opacity=".46"/><rect width="5.5" height="6" x="37" y="32.421" fill="url(#d)" rx="1.5"/><path fill="none" stroke="#fff" stroke-linecap="round" stroke-linejoin="round" stroke-width="1.1" d="M38.1 34.521h3.3" opacity=".46"/><rect width="5.5" height="6" x="37" y="40.842" fill="url(#d)" rx="1.5"/><path fill="none" stroke="#fff" stroke-linecap="round" stroke-linejoin="round" stroke-width="1.1" d="M38.1 42.942h3.3" opacity=".46"/><rect width="5.5" height="6" x="37" y="49.263" fill="url(#d)" rx="1.5"/><path fill="none" stroke="#fff" stroke-linecap="round" stroke-linejoin="round" stroke-width="1.1" d="M38.1 51.363h3.3" opacity=".46"/><rect width="5.5" height="6" x="37" y="57.684" fill="url(#d)" rx="1.5"/><path fill="none" stroke="#fff" stroke-linecap="round" stroke-linejoin="round" stroke-width="1.1" d="M38.1 59.784h3.3" opacity=".46"/><rect width="5.5" height="6" x="46" y="24" fill="url(#d)" rx="1.5"/><path fill="none" stroke="#fff" stroke-linecap="round" stroke-linejoin="round" stroke-width="1.1" d="M47.1 26.1h3.3" opacity=".46"/><rect width="5.5" height="6" x="46" y="32.421" fill="url(#d)" rx="1.5"/><path fill="none" stroke="#fff" stroke-linecap="round" stroke-linejoin="round" stroke-width="1.1" d="M47.1 34.521h3.3" opacity=".46"/><rect width="5.5" height="6" x="46" y="40.842" fill="url(#d)" rx="1.5"/><path fill="none" stroke="#fff" stroke-linecap="round" stroke-linejoin="round" stroke-width="1.1" d="M47.1 42.942h3.3" opacity=".46"/><rect width="5.5" height="6" x="46" y="49.263" fill="url(#d)" rx="1.5"/><path fill="none" stroke="#fff" stroke-linecap="round" stroke-linejoin="round" stroke-width="1.1" d="M47.1 51.363h3.3" opacity=".46"/><rect width="5.5" height="6" x="46" y="57.684" fill="url(#d)" rx="1.5"/><path fill="none" stroke="#fff" stroke-linecap="round" stroke-linejoin="round" stroke-width="1.1" d="M47.1 59.784h3.3" opacity=".46"/><rect width="5.5" height="6" x="55" y="24" fill="url(#d)" rx="1.5"/><path fill="none" stroke="#fff" stroke-linecap="round" stroke-linejoin="round" stroke-width="1.1" d="M56.1 26.1h3.3" opacity=".46"/><rect width="5.5" height="6" x="55" y="32.421" fill="url(#d)" rx="1.5"/><path fill="none" stroke="#fff" stroke-linecap="round" stroke-linejoin="round" stroke-width="1.1" d="M56.1 34.521h3.3" opacity=".46"/><rect width="5.5" height="6" x="55" y="40.842" fill="url(#d)" rx="1.5"/><path fill="none" stroke="#fff" stroke-linecap="round" stroke-linejoin="round" stroke-width="1.1" d="M56.1 42.942h3.3" opacity=".46"/><rect width="5.5" height="6" x="55" y="49.263" fill="url(#d)" rx="1.5"/><path fill="none" stroke="#fff" stroke-linecap="round" stroke-linejoin="round" stroke-width="1.1" d="M56.1 51.363h3.3" opacity=".46"/><rect width="5.5" height="6" x="55" y="57.684" fill="url(#d)" rx="1.5"/><path fill="none" stroke="#fff" stroke-linecap="round" stroke-linejoin="round" stroke-width="1.1" d="M56.1 59.784h3.3" opacity=".46"/><rect width="8.64" height="12" x="45.68" y="62" fill="url(#d)" opacity=".9" rx="2.5"/><path fill="none" stroke="#0f172a" stroke-linecap="round" stroke-linejoin="round" stroke-width="3" d="M50 10v12"/><path fill="url(#d)" stroke="#0f172a" stroke-linecap="round" stroke-linejoin="round" stroke-width="3" d="m50 10 10 4-10 4z"/></g><circle cx="76" cy="24" r="2.8" fill="url(#c)" opacity=".78"/></svg>