<svg xmlns="http://www.w3.org/2000/svg" aria-label="creator_icon" viewBox="0 0 100 100"><defs><linearGradient id="b" x1="12%" x2="88%" y1="10%" y2="92%"><stop offset="0%" stop-color="#fff" stop-opacity=".94"/><stop offset="22%" stop-color="#d8e6f2" stop-opacity=".96"/><stop offset="68%" stop-color="#37506a" stop-opacity=".22"/><stop offset="100%" stop-color="#0f172a" stop-opacity=".08"/></linearGradient><linearGradient id="d" x1="18%" x2="84%" y1="10%" y2="92%"><stop offset="0%" stop-color="#d8e6f2" stop-opacity=".88"/><stop offset="28%" stop-color="#37506a" stop-opacity=".98"/><stop offset="100%" stop-color="#0f172a" stop-opacity=".92"/></linearGradient><linearGradient id="c" x1="10%" x2="88%" y1="8%" y2="94%"><stop offset="0%" stop-color="#fff" stop-opacity=".9"/><stop offset="24%" stop-color="#d8e6f2" stop-opacity=".92"/><stop offset="100%" stop-color="#38bdf8"/></linearGradient><linearGradient id="e" x1="8%" x2="92%" y1="8%" y2="92%"><stop offset="0%" stop-color="#fff" stop-opacity=".96"/><stop offset="100%" stop-color="#d8e6f2" stop-opacity=".94"/></linearGradient><radialGradient id="a" cx="26%" cy="18%" r="84%"><stop offset="0%" stop-color="#38bdf8" stop-opacity=".22"/><stop offset="42%" stop-color="#d8e6f2" stop-opacity=".18"/><stop offset="100%" stop-color="#fff" stop-opacity="0"/></radialGradient></defs><circle cx="50" cy="54" r="39" fill="#0f172a" opacity=".12"/><circle cx="50" cy="50" r="44" fill="url(#a)"/><circle cx="50" cy="50" r="40" fill="url(#b)" stroke="#0f172a" stroke-linecap="round" stroke-linejoin="round" stroke-width="2.4" opacity=".98"/><circle cx="50" cy="50" r="34" fill="none" stroke="#fff" stroke-linecap="round" stroke-linejoin="round" stroke-width="1.4" opacity=".34"/><path fill="none" stroke="#fff" stroke-linecap="round" stroke-linejoin="round" stroke-width="3" d="M28 31q22-11 44-3" opacity=".42"/><g opacity=".16" transform="translate(0 3)"><circle cx="40" cy="38.8" r="7.04" fill="#0f172a" opacity=".18"/><circle cx="40" cy="37.6" r="5.6" fill="#0f172a" stroke="#0f172a" stroke-linecap="round" stroke-linejoin="round" stroke-width="3"/><path fill="#0f172a" d="M36.16 36.64q3.84-4 7.68 0-3.84 2.4-7.68 0" opacity=".42"/><rect width="14.4" height="16" x="32.8" y="48.8" fill="#0f172a" stroke="#0f172a" stroke-linecap="round" stroke-linejoin="round" stroke-width="3" rx="6.4"/><rect width="10.4" height="4" x="34.8" y="51.52" fill="#0f172a" opacity=".54" rx="2.08"/><path fill="none" stroke="#0f172a" stroke-linecap="round" stroke-linejoin="round" stroke-width="2" d="M34.4 63.2q5.6 5.6 11.2 0" opacity=".52"/><path fill="none" stroke="#0f172a" stroke-linecap="round" stroke-linejoin="round" stroke-width="2.4" d="M40 64.8v8m-6.4-17.6h12.8M40 72.8l-5.6 6.4m5.6-6.4 5.6 6.4"/><ellipse cx="35.2" cy="79.6" fill="#0f172a" opacity=".92" rx="2.56" ry="1.28"/><ellipse cx="44.8" cy="79.6" fill="#0f172a" opacity=".92" rx="2.56" ry="1.28"/><rect width="11.2" height="8" x="48" y="55.2" fill="#0f172a" stroke="#0f172a" stroke-linecap="round" stroke-linejoin="round" stroke-width="3" rx="2.4"/><circle cx="53.6" cy="59.2" r="2.4" fill="#0f172a" stroke="#0f172a" stroke-linecap="round" stroke-linejoin="round" stroke-width="3"/><circle cx="68" cy="34" r="8" fill="#0f172a" stroke="#0f172a" stroke-linecap="round" stroke-linejoin="round" stroke-width="3"/></g><g transform="translate(0 1)"><circle cx="40" cy="38.8" r="7.04" fill="url(#c)" opacity=".18"/><circle cx="40" cy="37.6" r="5.6" fill="url(#d)" stroke="#0f172a" stroke-linecap="round" stroke-linejoin="round" stroke-width="3"/><path fill="url(#e)" d="M36.16 36.64q3.84-4 7.68 0-3.84 2.4-7.68 0" opacity=".42"/><rect width="14.4" height="16" x="32.8" y="48.8" fill="url(#c)" stroke="#0f172a" stroke-linecap="round" stroke-linejoin="round" stroke-width="3" rx="6.4"/><rect width="10.4" height="4" x="34.8" y="51.52" fill="url(#e)" opacity=".54" rx="2.08"/><path fill="none" stroke="#37506a" stroke-linecap="round" stroke-linejoin="round" stroke-width="2" d="M34.4 63.2q5.6 5.6 11.2 0" opacity=".52"/><path fill="none" stroke="#0f172a" stroke-linecap="round" stroke-linejoin="round" stroke-width="2.4" d="M40 64.8v8m-6.4-17.6h12.8M40 72.8l-5.6 6.4m5.6-6.4 5.6 6.4"/><ellipse cx="35.2" cy="79.6" fill="url(#d)" opacity=".92" rx="2.56" ry="1.28"/><ellipse cx="44.8" cy="79.6" fill="url(#d)" opacity=".92" rx="2.56" ry="1.28"/><rect width="11.2" height="8" x="48" y="55.2" fill="url(#d)" stroke="#0f172a" stroke-linecap="round" stroke-linejoin="round" stroke-width="3" rx="2.4"/><circle cx="53.6" cy="59.2" r="2.4" fill="url(#e)" stroke="#0f172a" stroke-linecap="round" stroke-linejoin="round" stroke-width="3"/><circle cx="68" cy="34" r="8" fill="url(#c)" stroke="#0f172a" stroke-linecap="round" stroke-linejoin="round" stroke-width="3"/></g><circle cx="74" cy="24" r="3.5" fill="url(#c)" opacity=".92"/><circle cx="68" cy="30" r="1.8" fill="#fff" opacity=".82"/></svg>