<svg xmlns="http://www.w3.org/2000/svg" aria-label="crowd" viewBox="0 0 100 100"><defs><linearGradient id="b" x1="12%" x2="88%" y1="10%" y2="92%"><stop offset="0%" stop-color="#fff" stop-opacity=".94"/><stop offset="22%" stop-color="#d8e6f2" stop-opacity=".96"/><stop offset="68%" stop-color="#37506a" stop-opacity=".22"/><stop offset="100%" stop-color="#0f172a" stop-opacity=".08"/></linearGradient><linearGradient id="d" x1="18%" x2="84%" y1="10%" y2="92%"><stop offset="0%" stop-color="#d8e6f2" stop-opacity=".88"/><stop offset="28%" stop-color="#37506a" stop-opacity=".98"/><stop offset="100%" stop-color="#0f172a" stop-opacity=".92"/></linearGradient><linearGradient id="c" x1="10%" x2="88%" y1="8%" y2="94%"><stop offset="0%" stop-color="#fff" stop-opacity=".9"/><stop offset="24%" stop-color="#d8e6f2" stop-opacity=".92"/><stop offset="100%" stop-color="#38bdf8"/></linearGradient><linearGradient id="e" x1="8%" x2="92%" y1="8%" y2="92%"><stop offset="0%" stop-color="#fff" stop-opacity=".96"/><stop offset="100%" stop-color="#d8e6f2" stop-opacity=".94"/></linearGradient><radialGradient id="a" cx="26%" cy="18%" r="84%"><stop offset="0%" stop-color="#38bdf8" stop-opacity=".22"/><stop offset="42%" stop-color="#d8e6f2" stop-opacity=".18"/><stop offset="100%" stop-color="#fff" stop-opacity="0"/></radialGradient></defs><circle cx="50" cy="54" r="39" fill="#0f172a" opacity=".12"/><circle cx="50" cy="50" r="44" fill="url(#a)"/><circle cx="50" cy="50" r="40" fill="url(#b)" stroke="#0f172a" stroke-linecap="round" stroke-linejoin="round" stroke-width="2.4" opacity=".98"/><circle cx="50" cy="50" r="34" fill="none" stroke="#fff" stroke-linecap="round" stroke-linejoin="round" stroke-width="1.4" opacity=".34"/><path fill="none" stroke="#fff" stroke-linecap="round" stroke-linejoin="round" stroke-width="3" d="M28 31q22-11 44-3" opacity=".42"/><g opacity=".16" transform="translate(0 3)"><circle cx="28" cy="38.45" r="6.16" fill="#0f172a" opacity=".18"/><circle cx="28" cy="37.4" r="4.9" fill="#0f172a" stroke="#0f172a" stroke-linecap="round" stroke-linejoin="round" stroke-width="3"/><path fill="#0f172a" d="M24.64 36.56q3.36-3.5 6.72 0-3.36 2.1-6.72 0" opacity=".42"/><rect width="12.6" height="14" x="21.7" y="47.2" fill="#0f172a" stroke="#0f172a" stroke-linecap="round" stroke-linejoin="round" stroke-width="3" rx="5.6"/><rect width="9.1" height="3.5" x="23.45" y="49.58" fill="#0f172a" opacity=".54" rx="1.82"/><path fill="none" stroke="#0f172a" stroke-linecap="round" stroke-linejoin="round" stroke-width="1.9" d="M23.1 59.8q4.9 4.9 9.8 0" opacity=".52"/><path fill="none" stroke="#0f172a" stroke-linecap="round" stroke-linejoin="round" stroke-width="2.4" d="M28 61.2v7m-5.6-15.4h11.2M28 68.2l-4.9 5.6m4.9-5.6 4.9 5.6"/><ellipse cx="23.8" cy="74.15" fill="#0f172a" opacity=".92" rx="2.24" ry="1.12"/><ellipse cx="32.2" cy="74.15" fill="#0f172a" opacity=".92" rx="2.24" ry="1.12"/><circle cx="42" cy="30.15" r="7.92" fill="#0f172a" opacity=".18"/><circle cx="42" cy="28.8" r="6.3" fill="#0f172a" stroke="#0f172a" stroke-linecap="round" stroke-linejoin="round" stroke-width="3"/><path fill="#0f172a" d="M37.68 27.72q4.32-4.5 8.64 0-4.32 2.7-8.64 0" opacity=".42"/><rect width="16.2" height="18" x="33.9" y="41.4" fill="#0f172a" stroke="#0f172a" stroke-linecap="round" stroke-linejoin="round" stroke-width="3" rx="7.2"/><rect width="11.7" height="4.5" x="36.15" y="44.46" fill="#0f172a" opacity=".54" rx="2.34"/><path fill="none" stroke="#0f172a" stroke-linecap="round" stroke-linejoin="round" stroke-width="2.25" d="M35.7 57.6q6.3 6.3 12.6 0" opacity=".52"/><path fill="none" stroke="#0f172a" stroke-linecap="round" stroke-linejoin="round" stroke-width="2.7" d="M42 59.4v9m-7.2-19.8h14.4M42 68.4l-6.3 7.2m6.3-7.2 6.3 7.2"/><ellipse cx="36.6" cy="76.05" fill="#0f172a" opacity=".92" rx="2.88" ry="1.44"/><ellipse cx="47.4" cy="76.05" fill="#0f172a" opacity=".92" rx="2.88" ry="1.44"/><circle cx="58" cy="30.15" r="7.92" fill="#0f172a" opacity=".18"/><circle cx="58" cy="28.8" r="6.3" fill="#0f172a" stroke="#0f172a" stroke-linecap="round" stroke-linejoin="round" stroke-width="3"/><path fill="#0f172a" d="M53.68 27.72q4.32-4.5 8.64 0-4.32 2.7-8.64 0" opacity=".42"/><rect width="16.2" height="18" x="49.9" y="41.4" fill="#0f172a" stroke="#0f172a" stroke-linecap="round" stroke-linejoin="round" stroke-width="3" rx="7.2"/><rect width="11.7" height="4.5" x="52.15" y="44.46" fill="#0f172a" opacity=".54" rx="2.34"/><path fill="none" stroke="#0f172a" stroke-linecap="round" stroke-linejoin="round" stroke-width="2.25" d="M51.7 57.6q6.3 6.3 12.6 0" opacity=".52"/><path fill="none" stroke="#0f172a" stroke-linecap="round" stroke-linejoin="round" stroke-width="2.7" d="M58 59.4v9m-7.2-19.8h14.4M58 68.4l-6.3 7.2m6.3-7.2 6.3 7.2"/><ellipse cx="52.6" cy="76.05" fill="#0f172a" opacity=".92" rx="2.88" ry="1.44"/><ellipse cx="63.4" cy="76.05" fill="#0f172a" opacity=".92" rx="2.88" ry="1.44"/><circle cx="72" cy="38.45" r="6.16" fill="#0f172a" opacity=".18"/><circle cx="72" cy="37.4" r="4.9" fill="#0f172a" stroke="#0f172a" stroke-linecap="round" stroke-linejoin="round" stroke-width="3"/><path fill="#0f172a" d="M68.64 36.56q3.36-3.5 6.72 0-3.36 2.1-6.72 0" opacity=".42"/><rect width="12.6" height="14" x="65.7" y="47.2" fill="#0f172a" stroke="#0f172a" stroke-linecap="round" stroke-linejoin="round" stroke-width="3" rx="5.6"/><rect width="9.1" height="3.5" x="67.45" y="49.58" fill="#0f172a" opacity=".54" rx="1.82"/><path fill="none" stroke="#0f172a" stroke-linecap="round" stroke-linejoin="round" stroke-width="1.9" d="M67.1 59.8q4.9 4.9 9.8 0" opacity=".52"/><path fill="none" stroke="#0f172a" stroke-linecap="round" stroke-linejoin="round" stroke-width="2.4" d="M72 61.2v7m-5.6-15.4h11.2M72 68.2l-4.9 5.6m4.9-5.6 4.9 5.6"/><ellipse cx="67.8" cy="74.15" fill="#0f172a" opacity=".92" rx="2.24" ry="1.12"/><ellipse cx="76.2" cy="74.15" fill="#0f172a" opacity=".92" rx="2.24" ry="1.12"/><circle cx="50" cy="45.625" r="6.6" fill="#0f172a" opacity=".18"/><circle cx="50" cy="44.5" r="5.25" fill="#0f172a" stroke="#0f172a" stroke-linecap="round" stroke-linejoin="round" stroke-width="3"/><path fill="#0f172a" d="M46.4 43.6q3.6-3.75 7.2 0-3.6 2.25-7.2 0" opacity=".42"/><rect width="13.5" height="15" x="43.25" y="55" fill="#0f172a" stroke="#0f172a" stroke-linecap="round" stroke-linejoin="round" stroke-width="3" rx="6"/><rect width="9.75" height="3.75" x="45.125" y="57.55" fill="#0f172a" opacity=".54" rx="1.95"/><path fill="none" stroke="#0f172a" stroke-linecap="round" stroke-linejoin="round" stroke-width="1.9" d="M44.75 68.5q5.25 5.25 10.5 0" opacity=".52"/><path fill="none" stroke="#0f172a" stroke-linecap="round" stroke-linejoin="round" stroke-width="2.4" d="M50 70v7.5M44 61h12m-6 16.5-5.25 6m5.25-6 5.25 6"/><ellipse cx="45.5" cy="83.875" fill="#0f172a" opacity=".92" rx="2.4" ry="1.2"/><ellipse cx="54.5" cy="83.875" fill="#0f172a" opacity=".92" rx="2.4" ry="1.2"/></g><g transform="translate(0 1)"><circle cx="28" cy="38.45" r="6.16" fill="url(#c)" opacity=".18"/><circle cx="28" cy="37.4" r="4.9" fill="url(#d)" stroke="#0f172a" stroke-linecap="round" stroke-linejoin="round" stroke-width="3"/><path fill="url(#e)" d="M24.64 36.56q3.36-3.5 6.72 0-3.36 2.1-6.72 0" opacity=".42"/><rect width="12.6" height="14" x="21.7" y="47.2" fill="url(#c)" stroke="#0f172a" stroke-linecap="round" stroke-linejoin="round" stroke-width="3" rx="5.6"/><rect width="9.1" height="3.5" x="23.45" y="49.58" fill="url(#e)" opacity=".54" rx="1.82"/><path fill="none" stroke="#37506a" stroke-linecap="round" stroke-linejoin="round" stroke-width="1.9" d="M23.1 59.8q4.9 4.9 9.8 0" opacity=".52"/><path fill="none" stroke="#0f172a" stroke-linecap="round" stroke-linejoin="round" stroke-width="2.4" d="M28 61.2v7m-5.6-15.4h11.2M28 68.2l-4.9 5.6m4.9-5.6 4.9 5.6"/><ellipse cx="23.8" cy="74.15" fill="url(#d)" opacity=".92" rx="2.24" ry="1.12"/><ellipse cx="32.2" cy="74.15" fill="url(#d)" opacity=".92" rx="2.24" ry="1.12"/><circle cx="42" cy="30.15" r="7.92" fill="url(#c)" opacity=".18"/><circle cx="42" cy="28.8" r="6.3" fill="url(#d)" stroke="#0f172a" stroke-linecap="round" stroke-linejoin="round" stroke-width="3"/><path fill="url(#e)" d="M37.68 27.72q4.32-4.5 8.64 0-4.32 2.7-8.64 0" opacity=".42"/><rect width="16.2" height="18" x="33.9" y="41.4" fill="url(#c)" stroke="#0f172a" stroke-linecap="round" stroke-linejoin="round" stroke-width="3" rx="7.2"/><rect width="11.7" height="4.5" x="36.15" y="44.46" fill="url(#e)" opacity=".54" rx="2.34"/><path fill="none" stroke="#37506a" stroke-linecap="round" stroke-linejoin="round" stroke-width="2.25" d="M35.7 57.6q6.3 6.3 12.6 0" opacity=".52"/><path fill="none" stroke="#0f172a" stroke-linecap="round" stroke-linejoin="round" stroke-width="2.7" d="M42 59.4v9m-7.2-19.8h14.4M42 68.4l-6.3 7.2m6.3-7.2 6.3 7.2"/><ellipse cx="36.6" cy="76.05" fill="url(#d)" opacity=".92" rx="2.88" ry="1.44"/><ellipse cx="47.4" cy="76.05" fill="url(#d)" opacity=".92" rx="2.88" ry="1.44"/><circle cx="58" cy="30.15" r="7.92" fill="url(#c)" opacity=".18"/><circle cx="58" cy="28.8" r="6.3" fill="url(#d)" stroke="#0f172a" stroke-linecap="round" stroke-linejoin="round" stroke-width="3"/><path fill="url(#e)" d="M53.68 27.72q4.32-4.5 8.64 0-4.32 2.7-8.64 0" opacity=".42"/><rect width="16.2" height="18" x="49.9" y="41.4" fill="url(#c)" stroke="#0f172a" stroke-linecap="round" stroke-linejoin="round" stroke-width="3" rx="7.2"/><rect width="11.7" height="4.5" x="52.15" y="44.46" fill="url(#e)" opacity=".54" rx="2.34"/><path fill="none" stroke="#37506a" stroke-linecap="round" stroke-linejoin="round" stroke-width="2.25" d="M51.7 57.6q6.3 6.3 12.6 0" opacity=".52"/><path fill="none" stroke="#0f172a" stroke-linecap="round" stroke-linejoin="round" stroke-width="2.7" d="M58 59.4v9m-7.2-19.8h14.4M58 68.4l-6.3 7.2m6.3-7.2 6.3 7.2"/><ellipse cx="52.6" cy="76.05" fill="url(#d)" opacity=".92" rx="2.88" ry="1.44"/><ellipse cx="63.4" cy="76.05" fill="url(#d)" opacity=".92" rx="2.88" ry="1.44"/><circle cx="72" cy="38.45" r="6.16" fill="url(#c)" opacity=".18"/><circle cx="72" cy="37.4" r="4.9" fill="url(#d)" stroke="#0f172a" stroke-linecap="round" stroke-linejoin="round" stroke-width="3"/><path fill="url(#e)" d="M68.64 36.56q3.36-3.5 6.72 0-3.36 2.1-6.72 0" opacity=".42"/><rect width="12.6" height="14" x="65.7" y="47.2" fill="url(#c)" stroke="#0f172a" stroke-linecap="round" stroke-linejoin="round" stroke-width="3" rx="5.6"/><rect width="9.1" height="3.5" x="67.45" y="49.58" fill="url(#e)" opacity=".54" rx="1.82"/><path fill="none" stroke="#37506a" stroke-linecap="round" stroke-linejoin="round" stroke-width="1.9" d="M67.1 59.8q4.9 4.9 9.8 0" opacity=".52"/><path fill="none" stroke="#0f172a" stroke-linecap="round" stroke-linejoin="round" stroke-width="2.4" d="M72 61.2v7m-5.6-15.4h11.2M72 68.2l-4.9 5.6m4.9-5.6 4.9 5.6"/><ellipse cx="67.8" cy="74.15" fill="url(#d)" opacity=".92" rx="2.24" ry="1.12"/><ellipse cx="76.2" cy="74.15" fill="url(#d)" opacity=".92" rx="2.24" ry="1.12"/><circle cx="50" cy="45.625" r="6.6" fill="url(#c)" opacity=".18"/><circle cx="50" cy="44.5" r="5.25" fill="url(#d)" stroke="#0f172a" stroke-linecap="round" stroke-linejoin="round" stroke-width="3"/><path fill="url(#e)" d="M46.4 43.6q3.6-3.75 7.2 0-3.6 2.25-7.2 0" opacity=".42"/><rect width="13.5" height="15" x="43.25" y="55" fill="url(#c)" stroke="#0f172a" stroke-linecap="round" stroke-linejoin="round" stroke-width="3" rx="6"/><rect width="9.75" height="3.75" x="45.125" y="57.55" fill="url(#e)" opacity=".54" rx="1.95"/><path fill="none" stroke="#37506a" stroke-linecap="round" stroke-linejoin="round" stroke-width="1.9" d="M44.75 68.5q5.25 5.25 10.5 0" opacity=".52"/><path fill="none" stroke="#0f172a" stroke-linecap="round" stroke-linejoin="round" stroke-width="2.4" d="M50 70v7.5M44 61h12m-6 16.5-5.25 6m5.25-6 5.25 6"/><ellipse cx="45.5" cy="83.875" fill="url(#d)" opacity=".92" rx="2.4" ry="1.2"/><ellipse cx="54.5" cy="83.875" fill="url(#d)" opacity=".92" rx="2.4" ry="1.2"/></g><circle cx="74" cy="24" r="3.5" fill="url(#c)" opacity=".92"/><circle cx="68" cy="30" r="1.8" fill="#fff" opacity=".82"/></svg>