<svg xmlns="http://www.w3.org/2000/svg" aria-label="curved_arrow" viewBox="0 0 100 100"><defs><linearGradient id="b" x1="12%" x2="88%" y1="10%" y2="92%"><stop offset="0%" stop-color="#fff" stop-opacity=".94"/><stop offset="22%" stop-color="#d8e6f2" stop-opacity=".96"/><stop offset="68%" stop-color="#37506a" stop-opacity=".22"/><stop offset="100%" stop-color="#0f172a" stop-opacity=".08"/></linearGradient><linearGradient id="c" x1="10%" x2="88%" y1="8%" y2="94%"><stop offset="0%" stop-color="#fff" stop-opacity=".9"/><stop offset="24%" stop-color="#d8e6f2" stop-opacity=".92"/><stop offset="100%" stop-color="#38bdf8"/></linearGradient><radialGradient id="a" cx="26%" cy="18%" r="84%"><stop offset="0%" stop-color="#38bdf8" stop-opacity=".22"/><stop offset="42%" stop-color="#d8e6f2" stop-opacity=".18"/><stop offset="100%" stop-color="#fff" stop-opacity="0"/></radialGradient></defs><rect width="76" height="68" x="12" y="18" fill="#0f172a" opacity=".12" rx="24"/><rect width="80" height="72" x="10" y="14" fill="url(#a)" rx="24"/><rect width="80" height="72" x="10" y="14" fill="url(#b)" stroke="#0f172a" stroke-linecap="round" stroke-linejoin="round" stroke-width="2.4" opacity=".98" rx="24"/><rect width="68" height="60" x="16" y="20" fill="none" stroke="#fff" stroke-linecap="round" stroke-linejoin="round" stroke-width="1.4" opacity=".28" rx="18"/><path fill="none" stroke="#fff" stroke-linecap="round" stroke-linejoin="round" stroke-width="3" d="M20 26h44" opacity=".34"/><g fill="none" stroke="#0f172a" stroke-linecap="round" stroke-linejoin="round" opacity=".16"><path stroke-width="8" d="M24 63c14-28 34-28 48-14" opacity=".16"/><path stroke-width="4" d="M24 63c14-28 34-28 48-14"/><path stroke-width="4" d="m64 41 12 8-12 8"/></g><g fill="none" stroke-linecap="round" stroke-linejoin="round"><path stroke="#d8e6f2" stroke-width="8" d="M24 61c14-28 34-28 48-14" opacity=".16"/><path stroke="#38bdf8" stroke-width="4" d="M24 61c14-28 34-28 48-14"/><path stroke="#38bdf8" stroke-width="4" d="m64 39 12 8-12 8"/></g><circle cx="76" cy="24" r="2.8" fill="url(#c)" opacity=".78"/></svg>