<svg xmlns="http://www.w3.org/2000/svg" aria-label="follower_counter" viewBox="0 0 100 100"><defs><linearGradient id="b" x1="12%" x2="88%" y1="10%" y2="92%"><stop offset="0%" stop-color="#fff" stop-opacity=".94"/><stop offset="22%" stop-color="#d8e6f2" stop-opacity=".96"/><stop offset="68%" stop-color="#37506a" stop-opacity=".22"/><stop offset="100%" stop-color="#0f172a" stop-opacity=".08"/></linearGradient><linearGradient id="d" x1="18%" x2="84%" y1="10%" y2="92%"><stop offset="0%" stop-color="#d8e6f2" stop-opacity=".88"/><stop offset="28%" stop-color="#37506a" stop-opacity=".98"/><stop offset="100%" stop-color="#0f172a" stop-opacity=".92"/></linearGradient><linearGradient id="c" x1="10%" x2="88%" y1="8%" y2="94%"><stop offset="0%" stop-color="#fff" stop-opacity=".9"/><stop offset="24%" stop-color="#d8e6f2" stop-opacity=".92"/><stop offset="100%" stop-color="#38bdf8"/></linearGradient><linearGradient id="e" x1="8%" x2="92%" y1="8%" y2="92%"><stop offset="0%" stop-color="#fff" stop-opacity=".96"/><stop offset="100%" stop-color="#d8e6f2" stop-opacity=".94"/></linearGradient><radialGradient id="a" cx="26%" cy="18%" r="84%"><stop offset="0%" stop-color="#38bdf8" stop-opacity=".22"/><stop offset="42%" stop-color="#d8e6f2" stop-opacity=".18"/><stop offset="100%" stop-color="#fff" stop-opacity="0"/></radialGradient></defs><circle cx="50" cy="54" r="39" fill="#0f172a" opacity=".12"/><circle cx="50" cy="50" r="44" fill="url(#a)"/><circle cx="50" cy="50" r="40" fill="url(#b)" stroke="#0f172a" stroke-linecap="round" stroke-linejoin="round" stroke-width="2.4" opacity=".98"/><circle cx="50" cy="50" r="34" fill="none" stroke="#fff" stroke-linecap="round" stroke-linejoin="round" stroke-width="1.4" opacity=".34"/><path fill="none" stroke="#fff" stroke-linecap="round" stroke-linejoin="round" stroke-width="3" d="M28 31q22-11 44-3" opacity=".42"/><g opacity=".16" transform="translate(0 3)"><circle cx="42" cy="38.12" r="6.336" fill="#0f172a" opacity=".18"/><circle cx="42" cy="37.04" r="5.04" fill="#0f172a" stroke="#0f172a" stroke-linecap="round" stroke-linejoin="round" stroke-width="3"/><path fill="#0f172a" d="M38.544 36.176q3.456-3.6 6.912 0-3.456 2.16-6.912 0" opacity=".42"/><rect width="12.96" height="14.4" x="35.52" y="47.12" fill="#0f172a" stroke="#0f172a" stroke-linecap="round" stroke-linejoin="round" stroke-width="3" rx="5.76"/><rect width="9.36" height="3.6" x="37.32" y="49.568" fill="#0f172a" opacity=".54" rx="1.872"/><path fill="none" stroke="#0f172a" stroke-linecap="round" stroke-linejoin="round" stroke-width="1.9" d="M36.96 60.08q5.04 5.04 10.08 0" opacity=".52"/><path fill="none" stroke="#0f172a" stroke-linecap="round" stroke-linejoin="round" stroke-width="2.4" d="M42 61.52v7.2m-5.76-15.84h11.52M42 68.72l-5.04 5.76M42 68.72l5.04 5.76"/><ellipse cx="37.68" cy="74.84" fill="#0f172a" opacity=".92" rx="2.304" ry="1.152"/><ellipse cx="46.32" cy="74.84" fill="#0f172a" opacity=".92" rx="2.304" ry="1.152"/><circle cx="68" cy="38" r="10" fill="#0f172a" stroke="#0f172a" stroke-linecap="round" stroke-linejoin="round" stroke-width="3"/><path fill="none" stroke="#0f172a" stroke-linecap="round" stroke-linejoin="round" stroke-width="3" d="M68 32v12m-6-6h12"/></g><g transform="translate(0 1)"><circle cx="42" cy="38.12" r="6.336" fill="url(#c)" opacity=".18"/><circle cx="42" cy="37.04" r="5.04" fill="url(#d)" stroke="#0f172a" stroke-linecap="round" stroke-linejoin="round" stroke-width="3"/><path fill="url(#e)" d="M38.544 36.176q3.456-3.6 6.912 0-3.456 2.16-6.912 0" opacity=".42"/><rect width="12.96" height="14.4" x="35.52" y="47.12" fill="url(#c)" stroke="#0f172a" stroke-linecap="round" stroke-linejoin="round" stroke-width="3" rx="5.76"/><rect width="9.36" height="3.6" x="37.32" y="49.568" fill="url(#e)" opacity=".54" rx="1.872"/><path fill="none" stroke="#37506a" stroke-linecap="round" stroke-linejoin="round" stroke-width="1.9" d="M36.96 60.08q5.04 5.04 10.08 0" opacity=".52"/><path fill="none" stroke="#0f172a" stroke-linecap="round" stroke-linejoin="round" stroke-width="2.4" d="M42 61.52v7.2m-5.76-15.84h11.52M42 68.72l-5.04 5.76M42 68.72l5.04 5.76"/><ellipse cx="37.68" cy="74.84" fill="url(#d)" opacity=".92" rx="2.304" ry="1.152"/><ellipse cx="46.32" cy="74.84" fill="url(#d)" opacity=".92" rx="2.304" ry="1.152"/><circle cx="68" cy="38" r="10" fill="url(#c)" stroke="#0f172a" stroke-linecap="round" stroke-linejoin="round" stroke-width="3"/><path fill="none" stroke="#0f172a" stroke-linecap="round" stroke-linejoin="round" stroke-width="3" d="M68 32v12m-6-6h12"/></g><circle cx="74" cy="24" r="3.5" fill="url(#c)" opacity=".92"/><circle cx="68" cy="30" r="1.8" fill="#fff" opacity=".82"/></svg>