<svg xmlns="http://www.w3.org/2000/svg" aria-label="gear" viewBox="0 0 100 100"><defs><linearGradient id="b" x1="12%" x2="88%" y1="10%" y2="92%"><stop offset="0%" stop-color="#fff" stop-opacity=".94"/><stop offset="22%" stop-color="#d8e6f2" stop-opacity=".96"/><stop offset="68%" stop-color="#37506a" stop-opacity=".22"/><stop offset="100%" stop-color="#0f172a" stop-opacity=".08"/></linearGradient><linearGradient id="c" x1="18%" x2="84%" y1="10%" y2="92%"><stop offset="0%" stop-color="#d8e6f2" stop-opacity=".88"/><stop offset="28%" stop-color="#37506a" stop-opacity=".98"/><stop offset="100%" stop-color="#0f172a" stop-opacity=".92"/></linearGradient><linearGradient id="e" x1="10%" x2="88%" y1="8%" y2="94%"><stop offset="0%" stop-color="#fff" stop-opacity=".9"/><stop offset="24%" stop-color="#d8e6f2" stop-opacity=".92"/><stop offset="100%" stop-color="#38bdf8"/></linearGradient><linearGradient id="d" x1="8%" x2="92%" y1="8%" y2="92%"><stop offset="0%" stop-color="#fff" stop-opacity=".96"/><stop offset="100%" stop-color="#d8e6f2" stop-opacity=".94"/></linearGradient><radialGradient id="a" cx="26%" cy="18%" r="84%"><stop offset="0%" stop-color="#38bdf8" stop-opacity=".22"/><stop offset="42%" stop-color="#d8e6f2" stop-opacity=".18"/><stop offset="100%" stop-color="#fff" stop-opacity="0"/></radialGradient></defs><circle cx="50" cy="54" r="39" fill="#0f172a" opacity=".12"/><circle cx="50" cy="50" r="44" fill="url(#a)"/><circle cx="50" cy="50" r="40" fill="url(#b)" stroke="#0f172a" stroke-linecap="round" stroke-linejoin="round" stroke-width="2.4" opacity=".98"/><circle cx="50" cy="50" r="34" fill="none" stroke="#fff" stroke-linecap="round" stroke-linejoin="round" stroke-width="1.4" opacity=".34"/><path fill="none" stroke="#fff" stroke-linecap="round" stroke-linejoin="round" stroke-width="3" d="M28 31q22-11 44-3" opacity=".42"/><g fill="#0f172a" stroke="#0f172a" stroke-linecap="round" stroke-linejoin="round" stroke-width="3" opacity=".16" transform="translate(0 3)"><circle cx="50" cy="50" r="18"/><circle cx="50" cy="50" r="7"/><rect width="8" height="14" x="46" y="18" rx="2"/><rect width="8" height="14" x="46" y="68" rx="2"/><rect width="14" height="8" x="18" y="46" rx="2"/><rect width="14" height="8" x="68" y="46" rx="2"/><rect width="10" height="8" x="23" y="23" rx="2"/><rect width="10" height="8" x="67" y="69" rx="2"/><rect width="10" height="8" x="23" y="69" rx="2"/><rect width="10" height="8" x="67" y="23" rx="2"/></g><g stroke="#0f172a" stroke-linecap="round" stroke-linejoin="round" stroke-width="3" transform="translate(0 1)"><circle cx="50" cy="50" r="18" fill="url(#c)"/><circle cx="50" cy="50" r="7" fill="url(#d)"/><rect width="8" height="14" x="46" y="18" fill="url(#e)" rx="2"/><rect width="8" height="14" x="46" y="68" fill="url(#e)" rx="2"/><rect width="14" height="8" x="18" y="46" fill="url(#e)" rx="2"/><rect width="14" height="8" x="68" y="46" fill="url(#e)" rx="2"/><rect width="10" height="8" x="23" y="23" fill="url(#e)" rx="2"/><rect width="10" height="8" x="67" y="69" fill="url(#e)" rx="2"/><rect width="10" height="8" x="23" y="69" fill="url(#e)" rx="2"/><rect width="10" height="8" x="67" y="23" fill="url(#e)" rx="2"/></g><circle cx="76" cy="24" r="2.8" fill="url(#e)" opacity=".78"/></svg>