<svg xmlns="http://www.w3.org/2000/svg" aria-label="hashtag_symbol" viewBox="0 0 100 100"><defs><linearGradient id="b" x1="12%" x2="88%" y1="10%" y2="92%"><stop offset="0%" stop-color="#fff" stop-opacity=".94"/><stop offset="22%" stop-color="#d8e6f2" stop-opacity=".96"/><stop offset="68%" stop-color="#37506a" stop-opacity=".22"/><stop offset="100%" stop-color="#0f172a" stop-opacity=".08"/></linearGradient><linearGradient id="c" x1="10%" x2="88%" y1="8%" y2="94%"><stop offset="0%" stop-color="#fff" stop-opacity=".9"/><stop offset="24%" stop-color="#d8e6f2" stop-opacity=".92"/><stop offset="100%" stop-color="#38bdf8"/></linearGradient><radialGradient id="a" cx="26%" cy="18%" r="84%"><stop offset="0%" stop-color="#38bdf8" stop-opacity=".22"/><stop offset="42%" stop-color="#d8e6f2" stop-opacity=".18"/><stop offset="100%" stop-color="#fff" stop-opacity="0"/></radialGradient></defs><circle cx="50" cy="54" r="39" fill="#0f172a" opacity=".12"/><circle cx="50" cy="50" r="44" fill="url(#a)"/><circle cx="50" cy="50" r="40" fill="url(#b)" stroke="#0f172a" stroke-linecap="round" stroke-linejoin="round" stroke-width="2.4" opacity=".98"/><circle cx="50" cy="50" r="34" fill="none" stroke="#fff" stroke-linecap="round" stroke-linejoin="round" stroke-width="1.4" opacity=".34"/><path fill="none" stroke="#fff" stroke-linecap="round" stroke-linejoin="round" stroke-width="3" d="M28 31q22-11 44-3" opacity=".42"/><path fill="none" stroke="#0f172a" stroke-linecap="round" stroke-linejoin="round" stroke-width="3" d="m38 31-4 44m28-44-4 44M28 45h44M26 61h44" opacity=".16"/><path fill="none" stroke="#0f172a" stroke-linecap="round" stroke-linejoin="round" stroke-width="3" d="m38 29-4 44m28-44-4 44M28 43h44M26 59h44"/><circle cx="74" cy="24" r="3.5" fill="url(#c)" opacity=".92"/><circle cx="68" cy="30" r="1.8" fill="#fff" opacity=".82"/></svg>