<?xml version="1.0" encoding="UTF-8" standalone="no"?>
<svg
   viewBox="0 0 800 800"
   version="1.1"
   id="svg8"
   xmlns="http://www.w3.org/2000/svg"
   xmlns:svg="http://www.w3.org/2000/svg">
  <defs
     id="defs4">
    <radialGradient
       id="glowGrad_house-plug"
       cx="50%"
       cy="50%"
       r="50%">
      <stop
         offset="0%"
         stop-color="#fbbf24"
         stop-opacity="0.3"
         id="stop1" />
      <stop
         offset="100%"
         stop-color="#fbbf24"
         stop-opacity="0"
         id="stop2" />
    </radialGradient>
    <linearGradient
       id="baseGrad_house-plug"
       x1="0%"
       y1="0%"
       x2="100%"
       y2="100%">
      <stop
         offset="0%"
         stop-color="#334155"
         id="stop3" />
      <stop
         offset="100%"
         stop-color="#0f172a"
         id="stop4" />
    </linearGradient>
  </defs>
  <g
     id="house-plug-container">
    <!-- Floating Base Tile -->
    <rect
       x="100"
       y="100"
       width="600"
       height="600"
       rx="120"
       fill="url(#baseGrad_house-plug)"
       stroke="#1e293b"
       stroke-width="2.5"
       id="rect4" />
    <!-- Glow backing behind the icon -->
    <circle
       cx="400"
       cy="400"
       r="250"
       fill="url(#glowGrad_house-plug)"
       id="circle4" />
    <!-- The actual Lucide icon, scaled up -->
    <g
       transform="translate(160, 160) scale(20)"
       fill="none"
       stroke="#fbbf24"
       stroke-width="1.5"
       stroke-linecap="round"
       stroke-linejoin="round"
       id="g7">
      <path
         d="M10 12V8.964"
         id="path4" />
      <path
         d="M14 12V8.964"
         id="path5" />
      <path
         d="M15 12a1 1 0 0 1 1 1v2a2 2 0 0 1-2 2h-4a2 2 0 0 1-2-2v-2a1 1 0 0 1 1-1z"
         id="path6" />
      <path
         d="M8.5 21H5a2 2 0 0 1-2-2v-9a2 2 0 0 1 .709-1.528l7-6a2 2 0 0 1 2.582 0l7 6A2 2 0 0 1 21 10v9a2 2 0 0 1-2 2h-5a2 2 0 0 1-2-2v-2"
         id="path7" />
    </g>
    <!-- Minor accent details -->
    <circle
       cx="200"
       cy="200"
       r="10"
       fill="#fbbf24"
       id="circle7" />
    <circle
       cx="600"
       cy="600"
       r="10"
       fill="#fbbf24"
       id="circle8" />
  </g>
</svg>
