<?xml version="1.0" encoding="UTF-8" standalone="no"?>
<svg
   viewBox="0 0 800 800"
   version="1.1"
   id="svg9"
   xmlns="http://www.w3.org/2000/svg"
   xmlns:svg="http://www.w3.org/2000/svg">
  <defs
     id="defs4">
    <radialGradient
       id="glowGrad_satellite"
       cx="50%"
       cy="50%"
       r="50%">
      <stop
         offset="0%"
         stop-color="#a78bfa"
         stop-opacity="0.3"
         id="stop1" />
      <stop
         offset="100%"
         stop-color="#a78bfa"
         stop-opacity="0"
         id="stop2" />
    </radialGradient>
    <linearGradient
       id="baseGrad_satellite"
       x1="0%"
       y1="0%"
       x2="100%"
       y2="100%">
      <stop
         offset="0%"
         stop-color="#334155"
         id="stop3" />
      <stop
         offset="100%"
         stop-color="#0f172a"
         id="stop4" />
    </linearGradient>
  </defs>
  <g
     id="satellite-container">
    <!-- Floating Base Tile -->
    <rect
       x="100"
       y="100"
       width="600"
       height="600"
       rx="120"
       fill="url(#baseGrad_satellite)"
       stroke="#1e293b"
       stroke-width="2.5"
       id="rect4" />
    <!-- Glow backing behind the icon -->
    <circle
       cx="400"
       cy="400"
       r="250"
       fill="url(#glowGrad_satellite)"
       id="circle4" />
    <!-- The actual Lucide icon, scaled up -->
    <g
       transform="translate(160, 160) scale(20)"
       fill="none"
       stroke="#a78bfa"
       stroke-width="1.5"
       stroke-linecap="round"
       stroke-linejoin="round"
       id="g8">
      <path
         d="m13.5 6.5-3.148-3.148a1.205 1.205 0 0 0-1.704 0L6.352 5.648a1.205 1.205 0 0 0 0 1.704L9.5 10.5"
         id="path4" />
      <path
         d="M16.5 7.5 19 5"
         id="path5" />
      <path
         d="m17.5 10.5 3.148 3.148a1.205 1.205 0 0 1 0 1.704l-2.296 2.296a1.205 1.205 0 0 1-1.704 0L13.5 14.5"
         id="path6" />
      <path
         d="M9 21a6 6 0 0 0-6-6"
         id="path7" />
      <path
         d="M9.352 10.648a1.205 1.205 0 0 0 0 1.704l2.296 2.296a1.205 1.205 0 0 0 1.704 0l4.296-4.296a1.205 1.205 0 0 0 0-1.704l-2.296-2.296a1.205 1.205 0 0 0-1.704 0z"
         id="path8" />
    </g>
    <!-- Minor accent details -->
    <circle
       cx="200"
       cy="200"
       r="10"
       fill="#a78bfa"
       id="circle8" />
    <circle
       cx="600"
       cy="600"
       r="10"
       fill="#a78bfa"
       id="circle9" />
  </g>
</svg>
