<?xml version="1.0" encoding="UTF-8" standalone="no"?>
<svg
   viewBox="0 0 800 800"
   version="1.1"
   id="svg7"
   xmlns="http://www.w3.org/2000/svg"
   xmlns:svg="http://www.w3.org/2000/svg">
  <defs
     id="defs4">
    <radialGradient
       id="glowGrad_settings"
       cx="50%"
       cy="50%"
       r="50%">
      <stop
         offset="0%"
         stop-color="#38bdf8"
         stop-opacity="0.3"
         id="stop1" />
      <stop
         offset="100%"
         stop-color="#38bdf8"
         stop-opacity="0"
         id="stop2" />
    </radialGradient>
    <linearGradient
       id="baseGrad_settings"
       x1="0%"
       y1="0%"
       x2="100%"
       y2="100%">
      <stop
         offset="0%"
         stop-color="#334155"
         id="stop3" />
      <stop
         offset="100%"
         stop-color="#0f172a"
         id="stop4" />
    </linearGradient>
  </defs>
  <g
     id="settings-container">
    <!-- Floating Base Tile -->
    <rect
       x="100"
       y="100"
       width="600"
       height="600"
       rx="120"
       fill="url(#baseGrad_settings)"
       stroke="#1e293b"
       stroke-width="2.5"
       id="rect4" />
    <!-- Glow backing behind the icon -->
    <circle
       cx="400"
       cy="400"
       r="250"
       fill="url(#glowGrad_settings)"
       id="circle4" />
    <!-- The actual Lucide icon, scaled up -->
    <g
       transform="translate(160, 160) scale(20)"
       fill="none"
       stroke="#38bdf8"
       stroke-width="1.5"
       stroke-linecap="round"
       stroke-linejoin="round"
       id="g5">
      <path
         d="M9.671 4.136a2.34 2.34 0 0 1 4.659 0 2.34 2.34 0 0 0 3.319 1.915 2.34 2.34 0 0 1 2.33 4.033 2.34 2.34 0 0 0 0 3.831 2.34 2.34 0 0 1-2.33 4.033 2.34 2.34 0 0 0-3.319 1.915 2.34 2.34 0 0 1-4.659 0 2.34 2.34 0 0 0-3.32-1.915 2.34 2.34 0 0 1-2.33-4.033 2.34 2.34 0 0 0 0-3.831A2.34 2.34 0 0 1 6.35 6.051a2.34 2.34 0 0 0 3.319-1.915"
         id="path4" />
      <circle
         cx="12"
         cy="12"
         r="3"
         id="circle5" />
    </g>
    <!-- Minor accent details -->
    <circle
       cx="200"
       cy="200"
       r="10"
       fill="#38bdf8"
       id="circle6" />
    <circle
       cx="600"
       cy="600"
       r="10"
       fill="#38bdf8"
       id="circle7" />
  </g>
</svg>
