<?xml version="1.0" encoding="UTF-8" standalone="no"?>
<svg
   viewBox="0 0 800 800"
   version="1.1"
   id="svg6"
   xmlns="http://www.w3.org/2000/svg"
   xmlns:svg="http://www.w3.org/2000/svg">
  <defs
     id="defs4">
    <radialGradient
       id="glowGrad_fan"
       cx="50%"
       cy="50%"
       r="50%">
      <stop
         offset="0%"
         stop-color="#fbbf24"
         stop-opacity="0.3"
         id="stop1" />
      <stop
         offset="100%"
         stop-color="#fbbf24"
         stop-opacity="0"
         id="stop2" />
    </radialGradient>
    <linearGradient
       id="baseGrad_fan"
       x1="0%"
       y1="0%"
       x2="100%"
       y2="100%">
      <stop
         offset="0%"
         stop-color="#334155"
         id="stop3" />
      <stop
         offset="100%"
         stop-color="#0f172a"
         id="stop4" />
    </linearGradient>
  </defs>
  <g
     id="fan-container">
    <!-- Floating Base Tile -->
    <rect
       x="100"
       y="100"
       width="600"
       height="600"
       rx="120"
       fill="url(#baseGrad_fan)"
       stroke="#1e293b"
       stroke-width="2.5"
       id="rect4" />
    <!-- Glow backing behind the icon -->
    <circle
       cx="400"
       cy="400"
       r="250"
       fill="url(#glowGrad_fan)"
       id="circle4" />
    <!-- The actual Lucide icon, scaled up -->
    <g
       transform="translate(160, 160) scale(20)"
       fill="none"
       stroke="#fbbf24"
       stroke-width="1.5"
       stroke-linecap="round"
       stroke-linejoin="round"
       id="g5">
      <path
         d="M10.827 16.379a6.082 6.082 0 0 1-8.618-7.002l5.412 1.45a6.082 6.082 0 0 1 7.002-8.618l-1.45 5.412a6.082 6.082 0 0 1 8.618 7.002l-5.412-1.45a6.082 6.082 0 0 1-7.002 8.618l1.45-5.412Z"
         id="path4" />
      <path
         d="M12 12v.01"
         id="path5" />
    </g>
    <!-- Minor accent details -->
    <circle
       cx="200"
       cy="200"
       r="10"
       fill="#fbbf24"
       id="circle5" />
    <circle
       cx="600"
       cy="600"
       r="10"
       fill="#fbbf24"
       id="circle6" />
  </g>
</svg>
