<?xml version="1.0" encoding="UTF-8" standalone="no"?>
<svg
   viewBox="0 0 800 800"
   version="1.1"
   id="svg17"
   xmlns="http://www.w3.org/2000/svg"
   xmlns:svg="http://www.w3.org/2000/svg">
  <defs
     id="defs4">
    <radialGradient
       id="glowGrad_cpu"
       cx="50%"
       cy="50%"
       r="50%">
      <stop
         offset="0%"
         stop-color="#38bdf8"
         stop-opacity="0.3"
         id="stop1" />
      <stop
         offset="100%"
         stop-color="#38bdf8"
         stop-opacity="0"
         id="stop2" />
    </radialGradient>
    <linearGradient
       id="baseGrad_cpu"
       x1="0%"
       y1="0%"
       x2="100%"
       y2="100%">
      <stop
         offset="0%"
         stop-color="#334155"
         id="stop3" />
      <stop
         offset="100%"
         stop-color="#0f172a"
         id="stop4" />
    </linearGradient>
  </defs>
  <g
     id="cpu-container">
    <!-- Floating Base Tile -->
    <rect
       x="100"
       y="100"
       width="600"
       height="600"
       rx="120"
       fill="url(#baseGrad_cpu)"
       stroke="#1e293b"
       stroke-width="2.5"
       id="rect4" />
    <!-- Glow backing behind the icon -->
    <circle
       cx="400"
       cy="400"
       r="250"
       fill="url(#glowGrad_cpu)"
       id="circle4" />
    <!-- The actual Lucide icon, scaled up -->
    <g
       transform="translate(160, 160) scale(20)"
       fill="none"
       stroke="#38bdf8"
       stroke-width="1.5"
       stroke-linecap="round"
       stroke-linejoin="round"
       id="g16">
      <path
         d="M12 20v2"
         id="path4" />
      <path
         d="M12 2v2"
         id="path5" />
      <path
         d="M17 20v2"
         id="path6" />
      <path
         d="M17 2v2"
         id="path7" />
      <path
         d="M2 12h2"
         id="path8" />
      <path
         d="M2 17h2"
         id="path9" />
      <path
         d="M2 7h2"
         id="path10" />
      <path
         d="M20 12h2"
         id="path11" />
      <path
         d="M20 17h2"
         id="path12" />
      <path
         d="M20 7h2"
         id="path13" />
      <path
         d="M7 20v2"
         id="path14" />
      <path
         d="M7 2v2"
         id="path15" />
      <rect
         x="4"
         y="4"
         width="16"
         height="16"
         rx="2"
         id="rect15" />
      <rect
         x="8"
         y="8"
         width="8"
         height="8"
         rx="1"
         id="rect16" />
    </g>
    <!-- Minor accent details -->
    <circle
       cx="200"
       cy="200"
       r="10"
       fill="#38bdf8"
       id="circle16" />
    <circle
       cx="600"
       cy="600"
       r="10"
       fill="#38bdf8"
       id="circle17" />
  </g>
</svg>
