<?xml version="1.0" encoding="UTF-8" standalone="no"?>
<svg
   viewBox="0 0 800 800"
   version="1.1"
   id="svg8"
   xmlns="http://www.w3.org/2000/svg"
   xmlns:svg="http://www.w3.org/2000/svg">
  <defs
     id="defs4">
    <radialGradient
       id="glowGrad_car"
       cx="50%"
       cy="50%"
       r="50%">
      <stop
         offset="0%"
         stop-color="#a78bfa"
         stop-opacity="0.3"
         id="stop1" />
      <stop
         offset="100%"
         stop-color="#a78bfa"
         stop-opacity="0"
         id="stop2" />
    </radialGradient>
    <linearGradient
       id="baseGrad_car"
       x1="0%"
       y1="0%"
       x2="100%"
       y2="100%">
      <stop
         offset="0%"
         stop-color="#334155"
         id="stop3" />
      <stop
         offset="100%"
         stop-color="#0f172a"
         id="stop4" />
    </linearGradient>
  </defs>
  <g
     id="car-container">
    <!-- Floating Base Tile -->
    <rect
       x="100"
       y="100"
       width="600"
       height="600"
       rx="120"
       fill="url(#baseGrad_car)"
       stroke="#1e293b"
       stroke-width="2.5"
       id="rect4" />
    <!-- Glow backing behind the icon -->
    <circle
       cx="400"
       cy="400"
       r="250"
       fill="url(#glowGrad_car)"
       id="circle4" />
    <!-- The actual Lucide icon, scaled up -->
    <g
       transform="translate(160, 160) scale(20)"
       fill="none"
       stroke="#a78bfa"
       stroke-width="1.5"
       stroke-linecap="round"
       stroke-linejoin="round"
       id="g6">
      <path
         d="M19 17h2c.6 0 1-.4 1-1v-3c0-.9-.7-1.7-1.5-1.9C18.7 10.6 16 10 16 10s-1.3-1.4-2.2-2.3c-.5-.4-1.1-.7-1.8-.7H5c-.6 0-1.1.4-1.4.9l-1.4 2.9A3.7 3.7 0 0 0 2 12v4c0 .6.4 1 1 1h2"
         id="path4" />
      <circle
         cx="7"
         cy="17"
         r="2"
         id="circle5" />
      <path
         d="M9 17h6"
         id="path5" />
      <circle
         cx="17"
         cy="17"
         r="2"
         id="circle6" />
    </g>
    <!-- Minor accent details -->
    <circle
       cx="200"
       cy="200"
       r="10"
       fill="#a78bfa"
       id="circle7" />
    <circle
       cx="600"
       cy="600"
       r="10"
       fill="#a78bfa"
       id="circle8" />
  </g>
</svg>
