<?xml version="1.0" encoding="UTF-8" standalone="no"?>
<svg
   viewBox="0 0 800 800"
   version="1.1"
   id="svg12"
   xmlns="http://www.w3.org/2000/svg"
   xmlns:svg="http://www.w3.org/2000/svg">
  <defs
     id="defs4">
    <radialGradient
       id="glowGrad_wheat"
       cx="50%"
       cy="50%"
       r="50%">
      <stop
         offset="0%"
         stop-color="#fbbf24"
         stop-opacity="0.3"
         id="stop1" />
      <stop
         offset="100%"
         stop-color="#fbbf24"
         stop-opacity="0"
         id="stop2" />
    </radialGradient>
    <linearGradient
       id="baseGrad_wheat"
       x1="0%"
       y1="0%"
       x2="100%"
       y2="100%">
      <stop
         offset="0%"
         stop-color="#334155"
         id="stop3" />
      <stop
         offset="100%"
         stop-color="#0f172a"
         id="stop4" />
    </linearGradient>
  </defs>
  <g
     id="wheat-container">
    <!-- Floating Base Tile -->
    <rect
       x="100"
       y="100"
       width="600"
       height="600"
       rx="120"
       fill="url(#baseGrad_wheat)"
       stroke="#1e293b"
       stroke-width="2.5"
       id="rect4" />
    <!-- Glow backing behind the icon -->
    <circle
       cx="400"
       cy="400"
       r="250"
       fill="url(#glowGrad_wheat)"
       id="circle4" />
    <!-- The actual Lucide icon, scaled up -->
    <g
       transform="translate(160, 160) scale(20)"
       fill="none"
       stroke="#fbbf24"
       stroke-width="1.5"
       stroke-linecap="round"
       stroke-linejoin="round"
       id="g11">
      <path
         d="M2 22 16 8"
         id="path4" />
      <path
         d="M3.47 12.53 5 11l1.53 1.53a3.5 3.5 0 0 1 0 4.94L5 19l-1.53-1.53a3.5 3.5 0 0 1 0-4.94Z"
         id="path5" />
      <path
         d="M7.47 8.53 9 7l1.53 1.53a3.5 3.5 0 0 1 0 4.94L9 15l-1.53-1.53a3.5 3.5 0 0 1 0-4.94Z"
         id="path6" />
      <path
         d="M11.47 4.53 13 3l1.53 1.53a3.5 3.5 0 0 1 0 4.94L13 11l-1.53-1.53a3.5 3.5 0 0 1 0-4.94Z"
         id="path7" />
      <path
         d="M20 2h2v2a4 4 0 0 1-4 4h-2V6a4 4 0 0 1 4-4Z"
         id="path8" />
      <path
         d="M11.47 17.47 13 19l-1.53 1.53a3.5 3.5 0 0 1-4.94 0L5 19l1.53-1.53a3.5 3.5 0 0 1 4.94 0Z"
         id="path9" />
      <path
         d="M15.47 13.47 17 15l-1.53 1.53a3.5 3.5 0 0 1-4.94 0L9 15l1.53-1.53a3.5 3.5 0 0 1 4.94 0Z"
         id="path10" />
      <path
         d="M19.47 9.47 21 11l-1.53 1.53a3.5 3.5 0 0 1-4.94 0L13 11l1.53-1.53a3.5 3.5 0 0 1 4.94 0Z"
         id="path11" />
    </g>
    <!-- Minor accent details -->
    <circle
       cx="200"
       cy="200"
       r="10"
       fill="#fbbf24"
       id="circle11" />
    <circle
       cx="600"
       cy="600"
       r="10"
       fill="#fbbf24"
       id="circle12" />
  </g>
</svg>
