<?xml version="1.0" encoding="UTF-8" standalone="no"?>
<svg
   viewBox="0 0 800 800"
   version="1.1"
   id="svg10"
   xmlns="http://www.w3.org/2000/svg"
   xmlns:svg="http://www.w3.org/2000/svg">
  <defs
     id="defs4">
    <radialGradient
       id="glowGrad_thermometer-sun"
       cx="50%"
       cy="50%"
       r="50%">
      <stop
         offset="0%"
         stop-color="#22c55e"
         stop-opacity="0.3"
         id="stop1" />
      <stop
         offset="100%"
         stop-color="#22c55e"
         stop-opacity="0"
         id="stop2" />
    </radialGradient>
    <linearGradient
       id="baseGrad_thermometer-sun"
       x1="0%"
       y1="0%"
       x2="100%"
       y2="100%">
      <stop
         offset="0%"
         stop-color="#334155"
         id="stop3" />
      <stop
         offset="100%"
         stop-color="#0f172a"
         id="stop4" />
    </linearGradient>
  </defs>
  <g
     id="thermometer-sun-container">
    <!-- Floating Base Tile -->
    <rect
       x="100"
       y="100"
       width="600"
       height="600"
       rx="120"
       fill="url(#baseGrad_thermometer-sun)"
       stroke="#1e293b"
       stroke-width="2.5"
       id="rect4" />
    <!-- Glow backing behind the icon -->
    <circle
       cx="400"
       cy="400"
       r="250"
       fill="url(#glowGrad_thermometer-sun)"
       id="circle4" />
    <!-- The actual Lucide icon, scaled up -->
    <g
       transform="translate(160, 160) scale(20)"
       fill="none"
       stroke="#22c55e"
       stroke-width="1.5"
       stroke-linecap="round"
       stroke-linejoin="round"
       id="g9">
      <path
         d="M12 2v2"
         id="path4" />
      <path
         d="M12 8a4 4 0 0 0-1.645 7.647"
         id="path5" />
      <path
         d="M2 12h2"
         id="path6" />
      <path
         d="M20 14.54a4 4 0 1 1-4 0V4a2 2 0 0 1 4 0z"
         id="path7" />
      <path
         d="m4.93 4.93 1.41 1.41"
         id="path8" />
      <path
         d="m6.34 17.66-1.41 1.41"
         id="path9" />
    </g>
    <!-- Minor accent details -->
    <circle
       cx="200"
       cy="200"
       r="10"
       fill="#22c55e"
       id="circle9" />
    <circle
       cx="600"
       cy="600"
       r="10"
       fill="#22c55e"
       id="circle10" />
  </g>
</svg>
