<?xml version="1.0" encoding="UTF-8" standalone="no"?>
<svg
   viewBox="0 0 800 800"
   version="1.1"
   id="svg15"
   xmlns="http://www.w3.org/2000/svg"
   xmlns:svg="http://www.w3.org/2000/svg">
  <defs
     id="defs4">
    <radialGradient
       id="glowGrad_bug"
       cx="50%"
       cy="50%"
       r="50%">
      <stop
         offset="0%"
         stop-color="#a78bfa"
         stop-opacity="0.3"
         id="stop1" />
      <stop
         offset="100%"
         stop-color="#a78bfa"
         stop-opacity="0"
         id="stop2" />
    </radialGradient>
    <linearGradient
       id="baseGrad_bug"
       x1="0%"
       y1="0%"
       x2="100%"
       y2="100%">
      <stop
         offset="0%"
         stop-color="#334155"
         id="stop3" />
      <stop
         offset="100%"
         stop-color="#0f172a"
         id="stop4" />
    </linearGradient>
  </defs>
  <g
     id="bug-container">
    <!-- Floating Base Tile -->
    <rect
       x="100"
       y="100"
       width="600"
       height="600"
       rx="120"
       fill="url(#baseGrad_bug)"
       stroke="#1e293b"
       stroke-width="2.5"
       id="rect4" />
    <!-- Glow backing behind the icon -->
    <circle
       cx="400"
       cy="400"
       r="250"
       fill="url(#glowGrad_bug)"
       id="circle4" />
    <!-- The actual Lucide icon, scaled up -->
    <g
       transform="translate(160, 160) scale(20)"
       fill="none"
       stroke="#a78bfa"
       stroke-width="1.5"
       stroke-linecap="round"
       stroke-linejoin="round"
       id="g14">
      <path
         d="M12 20v-9"
         id="path4" />
      <path
         d="M14 7a4 4 0 0 1 4 4v3a6 6 0 0 1-12 0v-3a4 4 0 0 1 4-4z"
         id="path5" />
      <path
         d="M14.12 3.88 16 2"
         id="path6" />
      <path
         d="M21 21a4 4 0 0 0-3.81-4"
         id="path7" />
      <path
         d="M21 5a4 4 0 0 1-3.55 3.97"
         id="path8" />
      <path
         d="M22 13h-4"
         id="path9" />
      <path
         d="M3 21a4 4 0 0 1 3.81-4"
         id="path10" />
      <path
         d="M3 5a4 4 0 0 0 3.55 3.97"
         id="path11" />
      <path
         d="M6 13H2"
         id="path12" />
      <path
         d="m8 2 1.88 1.88"
         id="path13" />
      <path
         d="M9 7.13V6a3 3 0 1 1 6 0v1.13"
         id="path14" />
    </g>
    <!-- Minor accent details -->
    <circle
       cx="200"
       cy="200"
       r="10"
       fill="#a78bfa"
       id="circle14" />
    <circle
       cx="600"
       cy="600"
       r="10"
       fill="#a78bfa"
       id="circle15" />
  </g>
</svg>
