<?xml version="1.0" encoding="UTF-8" standalone="no"?>
<svg
   viewBox="0 0 800 800"
   version="1.1"
   id="svg17"
   xmlns="http://www.w3.org/2000/svg"
   xmlns:svg="http://www.w3.org/2000/svg">
  <defs
     id="defs4">
    <radialGradient
       id="glowGrad_brain-circuit"
       cx="50%"
       cy="50%"
       r="50%">
      <stop
         offset="0%"
         stop-color="#38bdf8"
         stop-opacity="0.3"
         id="stop1" />
      <stop
         offset="100%"
         stop-color="#38bdf8"
         stop-opacity="0"
         id="stop2" />
    </radialGradient>
    <linearGradient
       id="baseGrad_brain-circuit"
       x1="0%"
       y1="0%"
       x2="100%"
       y2="100%">
      <stop
         offset="0%"
         stop-color="#334155"
         id="stop3" />
      <stop
         offset="100%"
         stop-color="#0f172a"
         id="stop4" />
    </linearGradient>
  </defs>
  <g
     id="brain-circuit-container">
    <!-- Floating Base Tile -->
    <rect
       x="100"
       y="100"
       width="600"
       height="600"
       rx="120"
       fill="url(#baseGrad_brain-circuit)"
       stroke="#1e293b"
       stroke-width="2.5"
       id="rect4" />
    <!-- Glow backing behind the icon -->
    <circle
       cx="400"
       cy="400"
       r="250"
       fill="url(#glowGrad_brain-circuit)"
       id="circle4" />
    <!-- The actual Lucide icon, scaled up -->
    <g
       transform="translate(160, 160) scale(20)"
       fill="none"
       stroke="#38bdf8"
       stroke-width="1.5"
       stroke-linecap="round"
       stroke-linejoin="round"
       id="g15">
      <path
         d="M12 5a3 3 0 1 0-5.997.125 4 4 0 0 0-2.526 5.77 4 4 0 0 0 .556 6.588A4 4 0 1 0 12 18Z"
         id="path4" />
      <path
         d="M9 13a4.5 4.5 0 0 0 3-4"
         id="path5" />
      <path
         d="M6.003 5.125A3 3 0 0 0 6.401 6.5"
         id="path6" />
      <path
         d="M3.477 10.896a4 4 0 0 1 .585-.396"
         id="path7" />
      <path
         d="M6 18a4 4 0 0 1-1.967-.516"
         id="path8" />
      <path
         d="M12 13h4"
         id="path9" />
      <path
         d="M12 18h6a2 2 0 0 1 2 2v1"
         id="path10" />
      <path
         d="M12 8h8"
         id="path11" />
      <path
         d="M16 8V5a2 2 0 0 1 2-2"
         id="path12" />
      <circle
         cx="16"
         cy="13"
         r=".5"
         id="circle12" />
      <circle
         cx="18"
         cy="3"
         r=".5"
         id="circle13" />
      <circle
         cx="20"
         cy="21"
         r=".5"
         id="circle14" />
      <circle
         cx="20"
         cy="8"
         r=".5"
         id="circle15" />
    </g>
    <!-- Minor accent details -->
    <circle
       cx="200"
       cy="200"
       r="10"
       fill="#38bdf8"
       id="circle16" />
    <circle
       cx="600"
       cy="600"
       r="10"
       fill="#38bdf8"
       id="circle17" />
  </g>
</svg>
