<?xml version="1.0" encoding="UTF-8" standalone="no"?>
<svg
   viewBox="0 0 800 800"
   version="1.1"
   id="svg13"
   xmlns="http://www.w3.org/2000/svg"
   xmlns:svg="http://www.w3.org/2000/svg">
  <defs
     id="defs4">
    <radialGradient
       id="glowGrad_tractor"
       cx="50%"
       cy="50%"
       r="50%">
      <stop
         offset="0%"
         stop-color="#22c55e"
         stop-opacity="0.3"
         id="stop1" />
      <stop
         offset="100%"
         stop-color="#22c55e"
         stop-opacity="0"
         id="stop2" />
    </radialGradient>
    <linearGradient
       id="baseGrad_tractor"
       x1="0%"
       y1="0%"
       x2="100%"
       y2="100%">
      <stop
         offset="0%"
         stop-color="#334155"
         id="stop3" />
      <stop
         offset="100%"
         stop-color="#0f172a"
         id="stop4" />
    </linearGradient>
  </defs>
  <g
     id="tractor-container">
    <!-- Floating Base Tile -->
    <rect
       x="100"
       y="100"
       width="600"
       height="600"
       rx="120"
       fill="url(#baseGrad_tractor)"
       stroke="#1e293b"
       stroke-width="2.5"
       id="rect4" />
    <!-- Glow backing behind the icon -->
    <circle
       cx="400"
       cy="400"
       r="250"
       fill="url(#glowGrad_tractor)"
       id="circle4" />
    <!-- The actual Lucide icon, scaled up -->
    <g
       transform="translate(160, 160) scale(20)"
       fill="none"
       stroke="#22c55e"
       stroke-width="1.5"
       stroke-linecap="round"
       stroke-linejoin="round"
       id="g11">
      <path
         d="m10 11 11 .9a1 1 0 0 1 .8 1.1l-.665 4.158a1 1 0 0 1-.988.842H20"
         id="path4" />
      <path
         d="M16 18h-5"
         id="path5" />
      <path
         d="M18 5a1 1 0 0 0-1 1v5.573"
         id="path6" />
      <path
         d="M3 4h8.129a1 1 0 0 1 .99.863L13 11.246"
         id="path7" />
      <path
         d="M4 11V4"
         id="path8" />
      <path
         d="M7 15h.01"
         id="path9" />
      <path
         d="M8 10.1V4"
         id="path10" />
      <circle
         cx="18"
         cy="18"
         r="2"
         id="circle10" />
      <circle
         cx="7"
         cy="15"
         r="5"
         id="circle11" />
    </g>
    <!-- Minor accent details -->
    <circle
       cx="200"
       cy="200"
       r="10"
       fill="#22c55e"
       id="circle12" />
    <circle
       cx="600"
       cy="600"
       r="10"
       fill="#22c55e"
       id="circle13" />
  </g>
</svg>
