<?xml version="1.0" encoding="UTF-8" standalone="no"?>
<svg
   viewBox="0 0 800 800"
   version="1.1"
   id="svg8"
   xmlns="http://www.w3.org/2000/svg"
   xmlns:svg="http://www.w3.org/2000/svg">
  <defs
     id="defs4">
    <radialGradient
       id="glowGrad_zap-off"
       cx="50%"
       cy="50%"
       r="50%">
      <stop
         offset="0%"
         stop-color="#22c55e"
         stop-opacity="0.3"
         id="stop1" />
      <stop
         offset="100%"
         stop-color="#22c55e"
         stop-opacity="0"
         id="stop2" />
    </radialGradient>
    <linearGradient
       id="baseGrad_zap-off"
       x1="0%"
       y1="0%"
       x2="100%"
       y2="100%">
      <stop
         offset="0%"
         stop-color="#334155"
         id="stop3" />
      <stop
         offset="100%"
         stop-color="#0f172a"
         id="stop4" />
    </linearGradient>
  </defs>
  <g
     id="zap-off-container">
    <!-- Floating Base Tile -->
    <rect
       x="100"
       y="100"
       width="600"
       height="600"
       rx="120"
       fill="url(#baseGrad_zap-off)"
       stroke="#1e293b"
       stroke-width="2.5"
       id="rect4" />
    <!-- Glow backing behind the icon -->
    <circle
       cx="400"
       cy="400"
       r="250"
       fill="url(#glowGrad_zap-off)"
       id="circle4" />
    <!-- The actual Lucide icon, scaled up -->
    <g
       transform="translate(160, 160) scale(20)"
       fill="none"
       stroke="#22c55e"
       stroke-width="1.5"
       stroke-linecap="round"
       stroke-linejoin="round"
       id="g7">
      <path
         d="M10.513 4.856 13.12 2.17a.5.5 0 0 1 .86.46l-1.377 4.317"
         id="path4" />
      <path
         d="M15.656 10H20a1 1 0 0 1 .78 1.63l-1.72 1.773"
         id="path5" />
      <path
         d="M16.273 16.273 10.88 21.83a.5.5 0 0 1-.86-.46l1.92-6.02A1 1 0 0 0 11 14H4a1 1 0 0 1-.78-1.63l4.507-4.643"
         id="path6" />
      <path
         d="m2 2 20 20"
         id="path7" />
    </g>
    <!-- Minor accent details -->
    <circle
       cx="200"
       cy="200"
       r="10"
       fill="#22c55e"
       id="circle7" />
    <circle
       cx="600"
       cy="600"
       r="10"
       fill="#22c55e"
       id="circle8" />
  </g>
</svg>
