<?xml version="1.0" encoding="UTF-8" standalone="no"?>
<svg
   viewBox="0 0 800 800"
   version="1.1"
   id="svg10"
   xmlns="http://www.w3.org/2000/svg"
   xmlns:svg="http://www.w3.org/2000/svg">
  <defs
     id="defs4">
    <radialGradient
       id="glowGrad_radio-tower"
       cx="50%"
       cy="50%"
       r="50%">
      <stop
         offset="0%"
         stop-color="#38bdf8"
         stop-opacity="0.3"
         id="stop1" />
      <stop
         offset="100%"
         stop-color="#38bdf8"
         stop-opacity="0"
         id="stop2" />
    </radialGradient>
    <linearGradient
       id="baseGrad_radio-tower"
       x1="0%"
       y1="0%"
       x2="100%"
       y2="100%">
      <stop
         offset="0%"
         stop-color="#334155"
         id="stop3" />
      <stop
         offset="100%"
         stop-color="#0f172a"
         id="stop4" />
    </linearGradient>
  </defs>
  <g
     id="radio-tower-container">
    <!-- Floating Base Tile -->
    <rect
       x="100"
       y="100"
       width="600"
       height="600"
       rx="120"
       fill="url(#baseGrad_radio-tower)"
       stroke="#1e293b"
       stroke-width="2.5"
       id="rect4" />
    <!-- Glow backing behind the icon -->
    <circle
       cx="400"
       cy="400"
       r="250"
       fill="url(#glowGrad_radio-tower)"
       id="circle4" />
    <!-- The actual Lucide icon, scaled up -->
    <g
       transform="translate(160, 160) scale(20)"
       fill="none"
       stroke="#38bdf8"
       stroke-width="1.5"
       stroke-linecap="round"
       stroke-linejoin="round"
       id="g9">
      <path
         d="M4.9 16.1C1 12.2 1 5.8 4.9 1.9"
         id="path4" />
      <path
         d="M7.8 4.7a6.14 6.14 0 0 0-.8 7.5"
         id="path5" />
      <circle
         cx="12"
         cy="9"
         r="2"
         id="circle5" />
      <path
         d="M16.2 4.8c2 2 2.26 5.11.8 7.47"
         id="path6" />
      <path
         d="M19.1 1.9a9.96 9.96 0 0 1 0 14.1"
         id="path7" />
      <path
         d="M9.5 18h5"
         id="path8" />
      <path
         d="m8 22 4-11 4 11"
         id="path9" />
    </g>
    <!-- Minor accent details -->
    <circle
       cx="200"
       cy="200"
       r="10"
       fill="#38bdf8"
       id="circle9" />
    <circle
       cx="600"
       cy="600"
       r="10"
       fill="#38bdf8"
       id="circle10" />
  </g>
</svg>
