<svg xmlns="http://www.w3.org/2000/svg" aria-label="meeting_table" viewBox="0 0 100 100"><defs><linearGradient id="b" x1="12%" x2="88%" y1="10%" y2="92%"><stop offset="0%" stop-color="#fff" stop-opacity=".94"/><stop offset="22%" stop-color="#d8e6f2" stop-opacity=".96"/><stop offset="68%" stop-color="#37506a" stop-opacity=".22"/><stop offset="100%" stop-color="#0f172a" stop-opacity=".08"/></linearGradient><linearGradient id="c" x1="18%" x2="84%" y1="10%" y2="92%"><stop offset="0%" stop-color="#d8e6f2" stop-opacity=".88"/><stop offset="28%" stop-color="#37506a" stop-opacity=".98"/><stop offset="100%" stop-color="#0f172a" stop-opacity=".92"/></linearGradient><linearGradient id="d" x1="10%" x2="88%" y1="8%" y2="94%"><stop offset="0%" stop-color="#fff" stop-opacity=".9"/><stop offset="24%" stop-color="#d8e6f2" stop-opacity=".92"/><stop offset="100%" stop-color="#38bdf8"/></linearGradient><linearGradient id="e" x1="8%" x2="92%" y1="8%" y2="92%"><stop offset="0%" stop-color="#fff" stop-opacity=".96"/><stop offset="100%" stop-color="#d8e6f2" stop-opacity=".94"/></linearGradient><radialGradient id="a" cx="26%" cy="18%" r="84%"><stop offset="0%" stop-color="#38bdf8" stop-opacity=".22"/><stop offset="42%" stop-color="#d8e6f2" stop-opacity=".18"/><stop offset="100%" stop-color="#fff" stop-opacity="0"/></radialGradient></defs><rect width="72" height="72" x="14" y="16" fill="#0f172a" opacity=".12" rx="22"/><rect width="76" height="76" x="12" y="12" fill="url(#a)" rx="22"/><rect width="76" height="76" x="12" y="12" fill="url(#b)" stroke="#0f172a" stroke-linecap="round" stroke-linejoin="round" stroke-width="2.4" opacity=".98" rx="22"/><rect width="64" height="64" x="18" y="18" fill="none" stroke="#fff" stroke-linecap="round" stroke-linejoin="round" stroke-width="1.4" opacity=".28" rx="16"/><path fill="none" stroke="#fff" stroke-linecap="round" stroke-linejoin="round" stroke-width="3" d="M22 24h42" opacity=".34"/><g opacity=".16" transform="translate(0 3)"><ellipse cx="50" cy="50" fill="#0f172a" stroke="#0f172a" stroke-linecap="round" stroke-linejoin="round" stroke-width="3" rx="26" ry="14"/><circle cx="28" cy="40.575" r="3.96" fill="#0f172a" opacity=".18"/><circle cx="28" cy="39.9" r="3.15" fill="#0f172a" stroke="#0f172a" stroke-linecap="round" stroke-linejoin="round" stroke-width="3"/><path fill="#0f172a" d="M25.84 39.36q2.16-2.25 4.32 0-2.16 1.35-4.32 0" opacity=".42"/><rect width="8.1" height="9" x="23.95" y="46.2" fill="#0f172a" stroke="#0f172a" stroke-linecap="round" stroke-linejoin="round" stroke-width="3" rx="3.6"/><rect width="5.85" height="2.25" x="25.075" y="47.73" fill="#0f172a" opacity=".54" rx="1.17"/><path fill="none" stroke="#0f172a" stroke-linecap="round" stroke-linejoin="round" stroke-width="1.9" d="M24.85 54.3q3.15 3.15 6.3 0" opacity=".52"/><path fill="none" stroke="#0f172a" stroke-linecap="round" stroke-linejoin="round" stroke-width="2.4" d="M28 55.2v4.5m-3.6-9.9h7.2M28 59.7l-3.15 3.6M28 59.7l3.15 3.6"/><ellipse cx="25.3" cy="63.525" fill="#0f172a" opacity=".92" rx="1.44" ry=".72"/><ellipse cx="30.7" cy="63.525" fill="#0f172a" opacity=".92" rx="1.44" ry=".72"/><circle cx="50" cy="26.575" r="3.96" fill="#0f172a" opacity=".18"/><circle cx="50" cy="25.9" r="3.15" fill="#0f172a" stroke="#0f172a" stroke-linecap="round" stroke-linejoin="round" stroke-width="3"/><path fill="#0f172a" d="M47.84 25.36q2.16-2.25 4.32 0-2.16 1.35-4.32 0" opacity=".42"/><rect width="8.1" height="9" x="45.95" y="32.2" fill="#0f172a" stroke="#0f172a" stroke-linecap="round" stroke-linejoin="round" stroke-width="3" rx="3.6"/><rect width="5.85" height="2.25" x="47.075" y="33.73" fill="#0f172a" opacity=".54" rx="1.17"/><path fill="none" stroke="#0f172a" stroke-linecap="round" stroke-linejoin="round" stroke-width="1.9" d="M46.85 40.3q3.15 3.15 6.3 0" opacity=".52"/><path fill="none" stroke="#0f172a" stroke-linecap="round" stroke-linejoin="round" stroke-width="2.4" d="M50 41.2v4.5m-3.6-9.9h7.2M50 45.7l-3.15 3.6M50 45.7l3.15 3.6"/><ellipse cx="47.3" cy="49.525" fill="#0f172a" opacity=".92" rx="1.44" ry=".72"/><ellipse cx="52.7" cy="49.525" fill="#0f172a" opacity=".92" rx="1.44" ry=".72"/><circle cx="72" cy="40.575" r="3.96" fill="#0f172a" opacity=".18"/><circle cx="72" cy="39.9" r="3.15" fill="#0f172a" stroke="#0f172a" stroke-linecap="round" stroke-linejoin="round" stroke-width="3"/><path fill="#0f172a" d="M69.84 39.36q2.16-2.25 4.32 0-2.16 1.35-4.32 0" opacity=".42"/><rect width="8.1" height="9" x="67.95" y="46.2" fill="#0f172a" stroke="#0f172a" stroke-linecap="round" stroke-linejoin="round" stroke-width="3" rx="3.6"/><rect width="5.85" height="2.25" x="69.075" y="47.73" fill="#0f172a" opacity=".54" rx="1.17"/><path fill="none" stroke="#0f172a" stroke-linecap="round" stroke-linejoin="round" stroke-width="1.9" d="M68.85 54.3q3.15 3.15 6.3 0" opacity=".52"/><path fill="none" stroke="#0f172a" stroke-linecap="round" stroke-linejoin="round" stroke-width="2.4" d="M72 55.2v4.5m-3.6-9.9h7.2M72 59.7l-3.15 3.6M72 59.7l3.15 3.6"/><ellipse cx="69.3" cy="63.525" fill="#0f172a" opacity=".92" rx="1.44" ry=".72"/><ellipse cx="74.7" cy="63.525" fill="#0f172a" opacity=".92" rx="1.44" ry=".72"/></g><g transform="translate(0 1)"><ellipse cx="50" cy="50" fill="url(#c)" stroke="#0f172a" stroke-linecap="round" stroke-linejoin="round" stroke-width="3" rx="26" ry="14"/><circle cx="28" cy="40.575" r="3.96" fill="url(#d)" opacity=".18"/><circle cx="28" cy="39.9" r="3.15" fill="url(#c)" stroke="#0f172a" stroke-linecap="round" stroke-linejoin="round" stroke-width="3"/><path fill="url(#e)" d="M25.84 39.36q2.16-2.25 4.32 0-2.16 1.35-4.32 0" opacity=".42"/><rect width="8.1" height="9" x="23.95" y="46.2" fill="url(#d)" stroke="#0f172a" stroke-linecap="round" stroke-linejoin="round" stroke-width="3" rx="3.6"/><rect width="5.85" height="2.25" x="25.075" y="47.73" fill="url(#e)" opacity=".54" rx="1.17"/><path fill="none" stroke="#37506a" stroke-linecap="round" stroke-linejoin="round" stroke-width="1.9" d="M24.85 54.3q3.15 3.15 6.3 0" opacity=".52"/><path fill="none" stroke="#0f172a" stroke-linecap="round" stroke-linejoin="round" stroke-width="2.4" d="M28 55.2v4.5m-3.6-9.9h7.2M28 59.7l-3.15 3.6M28 59.7l3.15 3.6"/><ellipse cx="25.3" cy="63.525" fill="url(#c)" opacity=".92" rx="1.44" ry=".72"/><ellipse cx="30.7" cy="63.525" fill="url(#c)" opacity=".92" rx="1.44" ry=".72"/><circle cx="50" cy="26.575" r="3.96" fill="url(#d)" opacity=".18"/><circle cx="50" cy="25.9" r="3.15" fill="url(#c)" stroke="#0f172a" stroke-linecap="round" stroke-linejoin="round" stroke-width="3"/><path fill="url(#e)" d="M47.84 25.36q2.16-2.25 4.32 0-2.16 1.35-4.32 0" opacity=".42"/><rect width="8.1" height="9" x="45.95" y="32.2" fill="url(#d)" stroke="#0f172a" stroke-linecap="round" stroke-linejoin="round" stroke-width="3" rx="3.6"/><rect width="5.85" height="2.25" x="47.075" y="33.73" fill="url(#e)" opacity=".54" rx="1.17"/><path fill="none" stroke="#37506a" stroke-linecap="round" stroke-linejoin="round" stroke-width="1.9" d="M46.85 40.3q3.15 3.15 6.3 0" opacity=".52"/><path fill="none" stroke="#0f172a" stroke-linecap="round" stroke-linejoin="round" stroke-width="2.4" d="M50 41.2v4.5m-3.6-9.9h7.2M50 45.7l-3.15 3.6M50 45.7l3.15 3.6"/><ellipse cx="47.3" cy="49.525" fill="url(#c)" opacity=".92" rx="1.44" ry=".72"/><ellipse cx="52.7" cy="49.525" fill="url(#c)" opacity=".92" rx="1.44" ry=".72"/><circle cx="72" cy="40.575" r="3.96" fill="url(#d)" opacity=".18"/><circle cx="72" cy="39.9" r="3.15" fill="url(#c)" stroke="#0f172a" stroke-linecap="round" stroke-linejoin="round" stroke-width="3"/><path fill="url(#e)" d="M69.84 39.36q2.16-2.25 4.32 0-2.16 1.35-4.32 0" opacity=".42"/><rect width="8.1" height="9" x="67.95" y="46.2" fill="url(#d)" stroke="#0f172a" stroke-linecap="round" stroke-linejoin="round" stroke-width="3" rx="3.6"/><rect width="5.85" height="2.25" x="69.075" y="47.73" fill="url(#e)" opacity=".54" rx="1.17"/><path fill="none" stroke="#37506a" stroke-linecap="round" stroke-linejoin="round" stroke-width="1.9" d="M68.85 54.3q3.15 3.15 6.3 0" opacity=".52"/><path fill="none" stroke="#0f172a" stroke-linecap="round" stroke-linejoin="round" stroke-width="2.4" d="M72 55.2v4.5m-3.6-9.9h7.2M72 59.7l-3.15 3.6M72 59.7l3.15 3.6"/><ellipse cx="69.3" cy="63.525" fill="url(#c)" opacity=".92" rx="1.44" ry=".72"/><ellipse cx="74.7" cy="63.525" fill="url(#c)" opacity=".92" rx="1.44" ry=".72"/></g><circle cx="76" cy="24" r="2.8" fill="url(#d)" opacity=".78"/></svg>