<svg xmlns="http://www.w3.org/2000/svg" aria-label="money_bag" viewBox="0 0 100 100"><defs><linearGradient id="b" x1="12%" x2="88%" y1="10%" y2="92%"><stop offset="0%" stop-color="#fff" stop-opacity=".94"/><stop offset="22%" stop-color="#d8e6f2" stop-opacity=".96"/><stop offset="68%" stop-color="#37506a" stop-opacity=".22"/><stop offset="100%" stop-color="#0f172a" stop-opacity=".08"/></linearGradient><linearGradient id="c" x1="18%" x2="84%" y1="10%" y2="92%"><stop offset="0%" stop-color="#d8e6f2" stop-opacity=".88"/><stop offset="28%" stop-color="#37506a" stop-opacity=".98"/><stop offset="100%" stop-color="#0f172a" stop-opacity=".92"/></linearGradient><radialGradient id="a" cx="26%" cy="18%" r="84%"><stop offset="0%" stop-color="#38bdf8" stop-opacity=".22"/><stop offset="42%" stop-color="#d8e6f2" stop-opacity=".18"/><stop offset="100%" stop-color="#fff" stop-opacity="0"/></radialGradient></defs><rect width="72" height="72" x="14" y="16" fill="#0f172a" opacity=".12" rx="22"/><rect width="76" height="76" x="12" y="12" fill="url(#a)" rx="22"/><rect width="76" height="76" x="12" y="12" fill="url(#b)" stroke="#0f172a" stroke-linecap="round" stroke-linejoin="round" stroke-width="2.4" opacity=".98" rx="22"/><rect width="64" height="64" x="18" y="18" fill="none" stroke="#fff" stroke-linecap="round" stroke-linejoin="round" stroke-width="1.4" opacity=".28" rx="16"/><path fill="none" stroke="#fff" stroke-linecap="round" stroke-linejoin="round" stroke-width="3" d="M22 24h42" opacity=".34"/><g stroke="#0f172a" stroke-linecap="round" stroke-linejoin="round" stroke-width="3" opacity=".16"><path fill="#0f172a" d="M34 37q16-10 32 0l-4 8q12 8 8 26-8 12-20 12T30 71q-4-18 8-26Z"/><path fill="none" d="M50 49v16m-6-8h12"/></g><g stroke="#0f172a" stroke-linecap="round" stroke-linejoin="round" stroke-width="3"><path fill="url(#c)" d="M34 34q16-10 32 0l-4 8q12 8 8 26-8 12-20 12T30 68q-4-18 8-26Z" transform="translate(0 1)"/><path fill="none" d="M50 47v16m-6-8h12"/></g><path fill="none" stroke="#38bdf8" stroke-linecap="round" stroke-linejoin="round" stroke-width="3" d="M70 78q8-4 14-12" opacity=".5"/></svg>