<svg xmlns="http://www.w3.org/2000/svg" aria-label="network_chart" viewBox="0 0 100 100"><defs><linearGradient id="b" x1="12%" x2="88%" y1="10%" y2="92%"><stop offset="0%" stop-color="#fff" stop-opacity=".94"/><stop offset="22%" stop-color="#d8e6f2" stop-opacity=".96"/><stop offset="68%" stop-color="#37506a" stop-opacity=".22"/><stop offset="100%" stop-color="#0f172a" stop-opacity=".08"/></linearGradient><linearGradient id="c" x1="18%" x2="84%" y1="10%" y2="92%"><stop offset="0%" stop-color="#d8e6f2" stop-opacity=".88"/><stop offset="28%" stop-color="#37506a" stop-opacity=".98"/><stop offset="100%" stop-color="#0f172a" stop-opacity=".92"/></linearGradient><linearGradient id="d" x1="10%" x2="88%" y1="8%" y2="94%"><stop offset="0%" stop-color="#fff" stop-opacity=".9"/><stop offset="24%" stop-color="#d8e6f2" stop-opacity=".92"/><stop offset="100%" stop-color="#38bdf8"/></linearGradient><radialGradient id="a" cx="26%" cy="18%" r="84%"><stop offset="0%" stop-color="#38bdf8" stop-opacity=".22"/><stop offset="42%" stop-color="#d8e6f2" stop-opacity=".18"/><stop offset="100%" stop-color="#fff" stop-opacity="0"/></radialGradient></defs><rect width="76" height="68" x="12" y="18" fill="#0f172a" opacity=".12" rx="24"/><rect width="80" height="72" x="10" y="14" fill="url(#a)" rx="24"/><rect width="80" height="72" x="10" y="14" fill="url(#b)" stroke="#0f172a" stroke-linecap="round" stroke-linejoin="round" stroke-width="2.4" opacity=".98" rx="24"/><rect width="68" height="60" x="16" y="20" fill="none" stroke="#fff" stroke-linecap="round" stroke-linejoin="round" stroke-width="1.4" opacity=".28" rx="18"/><path fill="none" stroke="#fff" stroke-linecap="round" stroke-linejoin="round" stroke-width="3" d="M20 26h44" opacity=".34"/><g stroke="#0f172a" stroke-linecap="round" stroke-linejoin="round" opacity=".16" transform="translate(0 3)"><path fill="none" stroke-width="7" d="M26 72V28m-2 46h50" opacity=".15"/><path fill="none" stroke-width="4" d="M26 72V28m-2 46h50"/><path fill="none" stroke-width="2" d="M26 58h48" opacity=".3"/><path fill="none" stroke-width="2" d="M26 44h48" opacity=".24"/><path fill="none" stroke-width="1.4" d="M40 74V28" opacity=".22"/><path fill="none" stroke-width="1.4" d="M54 74V28" opacity=".18"/><path fill="none" stroke-width="1.4" d="M68 74V28" opacity=".16"/><path fill="none" stroke-width="3" d="m36 36 24 6m0 0 10 20M36 36l10 30"/><circle cx="36" cy="36" r="5" fill="#0f172a" stroke-width="3"/><circle cx="60" cy="42" r="5" fill="#0f172a" stroke-width="3"/><circle cx="70" cy="62" r="5" fill="#0f172a" stroke-width="3"/><circle cx="46" cy="66" r="5" fill="#0f172a" stroke-width="3"/></g><g stroke-linecap="round" stroke-linejoin="round" transform="translate(0 1)"><path fill="none" stroke="#d8e6f2" stroke-width="7" d="M26 72V28m-2 46h50" opacity=".15"/><path fill="none" stroke="#0f172a" stroke-width="4" d="M26 72V28m-2 46h50"/><path fill="none" stroke="#d8e6f2" stroke-width="2" d="M26 58h48" opacity=".3"/><path fill="none" stroke="#d8e6f2" stroke-width="2" d="M26 44h48" opacity=".24"/><path fill="none" stroke="#d8e6f2" stroke-width="1.4" d="M40 74V28" opacity=".22"/><path fill="none" stroke="#d8e6f2" stroke-width="1.4" d="M54 74V28" opacity=".18"/><path fill="none" stroke="#d8e6f2" stroke-width="1.4" d="M68 74V28" opacity=".16"/><path fill="none" stroke="#0f172a" stroke-width="3" d="m36 36 24 6m0 0 10 20M36 36l10 30"/><circle cx="36" cy="36" r="5" fill="url(#c)" stroke="#0f172a" stroke-width="3"/><circle cx="60" cy="42" r="5" fill="url(#d)" stroke="#0f172a" stroke-width="3"/><circle cx="70" cy="62" r="5" fill="url(#c)" stroke="#0f172a" stroke-width="3"/><circle cx="46" cy="66" r="5" fill="url(#d)" stroke="#0f172a" stroke-width="3"/></g><path fill="none" stroke="#38bdf8" stroke-linecap="round" stroke-linejoin="round" stroke-width="3" d="M70 78q8-4 14-12" opacity=".5"/></svg>