<svg xmlns="http://www.w3.org/2000/svg" aria-label="network_nodes" viewBox="0 0 100 100"><defs><linearGradient id="b" x1="12%" x2="88%" y1="10%" y2="92%"><stop offset="0%" stop-color="#fff" stop-opacity=".94"/><stop offset="22%" stop-color="#d8e6f2" stop-opacity=".96"/><stop offset="68%" stop-color="#37506a" stop-opacity=".22"/><stop offset="100%" stop-color="#0f172a" stop-opacity=".08"/></linearGradient><linearGradient id="c" x1="18%" x2="84%" y1="10%" y2="92%"><stop offset="0%" stop-color="#d8e6f2" stop-opacity=".88"/><stop offset="28%" stop-color="#37506a" stop-opacity=".98"/><stop offset="100%" stop-color="#0f172a" stop-opacity=".92"/></linearGradient><linearGradient id="d" x1="10%" x2="88%" y1="8%" y2="94%"><stop offset="0%" stop-color="#fff" stop-opacity=".9"/><stop offset="24%" stop-color="#d8e6f2" stop-opacity=".92"/><stop offset="100%" stop-color="#38bdf8"/></linearGradient><radialGradient id="a" cx="26%" cy="18%" r="84%"><stop offset="0%" stop-color="#38bdf8" stop-opacity=".22"/><stop offset="42%" stop-color="#d8e6f2" stop-opacity=".18"/><stop offset="100%" stop-color="#fff" stop-opacity="0"/></radialGradient></defs><rect width="76" height="68" x="12" y="18" fill="#0f172a" opacity=".12" rx="24"/><rect width="80" height="72" x="10" y="14" fill="url(#a)" rx="24"/><rect width="80" height="72" x="10" y="14" fill="url(#b)" stroke="#0f172a" stroke-linecap="round" stroke-linejoin="round" stroke-width="2.4" opacity=".98" rx="24"/><rect width="68" height="60" x="16" y="20" fill="none" stroke="#fff" stroke-linecap="round" stroke-linejoin="round" stroke-width="1.4" opacity=".28" rx="18"/><path fill="none" stroke="#fff" stroke-linecap="round" stroke-linejoin="round" stroke-width="3" d="M20 26h44" opacity=".34"/><g stroke="#0f172a" stroke-linecap="round" stroke-linejoin="round" stroke-width="3" opacity=".16" transform="translate(0 3)"><path fill="none" d="m34 36 16 14m0 0 18-14M50 50l18 16M50 50 32 66"/><circle cx="34" cy="36" r="6" fill="#0f172a"/><circle cx="68" cy="36" r="6" fill="#0f172a"/><circle cx="68" cy="66" r="6" fill="#0f172a"/><circle cx="32" cy="66" r="6" fill="#0f172a"/><circle cx="50" cy="50" r="7" fill="#0f172a"/></g><g stroke="#0f172a" stroke-linecap="round" stroke-linejoin="round" stroke-width="3" transform="translate(0 1)"><path fill="none" d="m34 36 16 14m0 0 18-14M50 50l18 16M50 50 32 66"/><circle cx="34" cy="36" r="6" fill="url(#c)"/><circle cx="68" cy="36" r="6" fill="url(#d)"/><circle cx="68" cy="66" r="6" fill="url(#c)"/><circle cx="32" cy="66" r="6" fill="url(#d)"/><circle cx="50" cy="50" r="7" fill="url(#c)"/></g><circle cx="76" cy="24" r="2.8" fill="url(#d)" opacity=".78"/></svg>