<svg xmlns="http://www.w3.org/2000/svg" aria-label="price_curve" viewBox="0 0 100 100"><defs><radialGradient id="a" cx="26%" cy="18%" r="84%"><stop offset="0%" stop-color="#38bdf8" stop-opacity=".22"/><stop offset="42%" stop-color="#d8e6f2" stop-opacity=".18"/><stop offset="100%" stop-color="#fff" stop-opacity="0"/></radialGradient><linearGradient id="b" x1="12%" x2="88%" y1="10%" y2="92%"><stop offset="0%" stop-color="#fff" stop-opacity=".94"/><stop offset="22%" stop-color="#d8e6f2" stop-opacity=".96"/><stop offset="68%" stop-color="#37506a" stop-opacity=".22"/><stop offset="100%" stop-color="#0f172a" stop-opacity=".08"/></linearGradient></defs><rect width="76" height="68" x="12" y="18" fill="#0f172a" opacity=".12" rx="24"/><rect width="80" height="72" x="10" y="14" fill="url(#a)" rx="24"/><rect width="80" height="72" x="10" y="14" fill="url(#b)" stroke="#0f172a" stroke-linecap="round" stroke-linejoin="round" stroke-width="2.4" opacity=".98" rx="24"/><rect width="68" height="60" x="16" y="20" fill="none" stroke="#fff" stroke-linecap="round" stroke-linejoin="round" stroke-width="1.4" opacity=".28" rx="18"/><path fill="none" stroke="#fff" stroke-linecap="round" stroke-linejoin="round" stroke-width="3" d="M20 26h44" opacity=".34"/><g fill="none" stroke="#0f172a" stroke-linecap="round" stroke-linejoin="round" opacity=".16"><path stroke-width="7" d="M26 75V31m-2 46h50" opacity=".15"/><path stroke-width="4" d="M26 75V31m-2 46h50"/><path stroke-width="2" d="M26 61h48" opacity=".3"/><path stroke-width="2" d="M26 47h48" opacity=".24"/><path stroke-width="1.4" d="M40 77V31" opacity=".22"/><path stroke-width="1.4" d="M54 77V31" opacity=".18"/><path stroke-width="1.4" d="M68 77V31" opacity=".16"/><path stroke-width="4" d="m28 61 14-8 12 2 14-18 6 6"/></g><g fill="none" stroke-linecap="round" stroke-linejoin="round"><path stroke="#d8e6f2" stroke-width="7" d="M26 73V29m-2 46h50" opacity=".15"/><path stroke="#0f172a" stroke-width="4" d="M26 73V29m-2 46h50"/><path stroke="#d8e6f2" stroke-width="2" d="M26 59h48" opacity=".3"/><path stroke="#d8e6f2" stroke-width="2" d="M26 45h48" opacity=".24"/><path stroke="#d8e6f2" stroke-width="1.4" d="M40 75V29" opacity=".22"/><path stroke="#d8e6f2" stroke-width="1.4" d="M54 75V29" opacity=".18"/><path stroke="#d8e6f2" stroke-width="1.4" d="M68 75V29" opacity=".16"/><path stroke="#0f172a" stroke-width="4" d="m28 59 14-8 12 2 14-18 6 6"/></g><path fill="none" stroke="#38bdf8" stroke-linecap="round" stroke-linejoin="round" stroke-width="3" d="M70 78q8-4 14-12" opacity=".5"/></svg>