<svg xmlns="http://www.w3.org/2000/svg" aria-label="protester" viewBox="0 0 100 100"><defs><linearGradient id="b" x1="12%" x2="88%" y1="10%" y2="92%"><stop offset="0%" stop-color="#fff" stop-opacity=".94"/><stop offset="22%" stop-color="#d8e6f2" stop-opacity=".96"/><stop offset="68%" stop-color="#37506a" stop-opacity=".22"/><stop offset="100%" stop-color="#0f172a" stop-opacity=".08"/></linearGradient><linearGradient id="d" x1="18%" x2="84%" y1="10%" y2="92%"><stop offset="0%" stop-color="#d8e6f2" stop-opacity=".88"/><stop offset="28%" stop-color="#37506a" stop-opacity=".98"/><stop offset="100%" stop-color="#0f172a" stop-opacity=".92"/></linearGradient><linearGradient id="c" x1="10%" x2="88%" y1="8%" y2="94%"><stop offset="0%" stop-color="#fff" stop-opacity=".9"/><stop offset="24%" stop-color="#d8e6f2" stop-opacity=".92"/><stop offset="100%" stop-color="#38bdf8"/></linearGradient><linearGradient id="e" x1="8%" x2="92%" y1="8%" y2="92%"><stop offset="0%" stop-color="#fff" stop-opacity=".96"/><stop offset="100%" stop-color="#d8e6f2" stop-opacity=".94"/></linearGradient><radialGradient id="a" cx="26%" cy="18%" r="84%"><stop offset="0%" stop-color="#38bdf8" stop-opacity=".22"/><stop offset="42%" stop-color="#d8e6f2" stop-opacity=".18"/><stop offset="100%" stop-color="#fff" stop-opacity="0"/></radialGradient></defs><circle cx="50" cy="54" r="39" fill="#0f172a" opacity=".12"/><circle cx="50" cy="50" r="44" fill="url(#a)"/><circle cx="50" cy="50" r="40" fill="url(#b)" stroke="#0f172a" stroke-linecap="round" stroke-linejoin="round" stroke-width="2.4" opacity=".98"/><circle cx="50" cy="50" r="34" fill="none" stroke="#fff" stroke-linecap="round" stroke-linejoin="round" stroke-width="1.4" opacity=".34"/><path fill="none" stroke="#fff" stroke-linecap="round" stroke-linejoin="round" stroke-width="3" d="M28 31q22-11 44-3" opacity=".42"/><g opacity=".16" transform="translate(0 3)"><circle cx="50" cy="33.5" r="8.8" fill="#0f172a" opacity=".18"/><circle cx="50" cy="32" r="7" fill="#0f172a" stroke="#0f172a" stroke-linecap="round" stroke-linejoin="round" stroke-width="3"/><path fill="#0f172a" d="M45.2 30.8q4.8-5 9.6 0-4.8 3-9.6 0" opacity=".42"/><rect width="18" height="20" x="41" y="46" fill="#0f172a" stroke="#0f172a" stroke-linecap="round" stroke-linejoin="round" stroke-width="3" rx="8"/><rect width="13" height="5" x="43.5" y="49.4" fill="#0f172a" opacity=".54" rx="2.6"/><path fill="none" stroke="#0f172a" stroke-linecap="round" stroke-linejoin="round" stroke-width="2.5" d="M43 64q7 7 14 0" opacity=".52"/><path fill="none" stroke="#0f172a" stroke-linecap="round" stroke-linejoin="round" stroke-width="3" d="M50 66v10m-8-22h16m-8 22-7 8m7-8 7 8"/><ellipse cx="44" cy="84.5" fill="#0f172a" opacity=".92" rx="3.2" ry="1.6"/><ellipse cx="56" cy="84.5" fill="#0f172a" opacity=".92" rx="3.2" ry="1.6"/><path fill="#0f172a" stroke="#0f172a" stroke-linecap="round" stroke-linejoin="round" stroke-width="3" d="m60 54 13 4-13 6z"/></g><g transform="translate(0 1)"><circle cx="50" cy="33.5" r="8.8" fill="url(#c)" opacity=".18"/><circle cx="50" cy="32" r="7" fill="url(#d)" stroke="#0f172a" stroke-linecap="round" stroke-linejoin="round" stroke-width="3"/><path fill="url(#e)" d="M45.2 30.8q4.8-5 9.6 0-4.8 3-9.6 0" opacity=".42"/><rect width="18" height="20" x="41" y="46" fill="url(#c)" stroke="#0f172a" stroke-linecap="round" stroke-linejoin="round" stroke-width="3" rx="8"/><rect width="13" height="5" x="43.5" y="49.4" fill="url(#e)" opacity=".54" rx="2.6"/><path fill="none" stroke="#37506a" stroke-linecap="round" stroke-linejoin="round" stroke-width="2.5" d="M43 64q7 7 14 0" opacity=".52"/><path fill="none" stroke="#0f172a" stroke-linecap="round" stroke-linejoin="round" stroke-width="3" d="M50 66v10m-8-22h16m-8 22-7 8m7-8 7 8"/><ellipse cx="44" cy="84.5" fill="url(#d)" opacity=".92" rx="3.2" ry="1.6"/><ellipse cx="56" cy="84.5" fill="url(#d)" opacity=".92" rx="3.2" ry="1.6"/><path fill="url(#d)" stroke="#0f172a" stroke-linecap="round" stroke-linejoin="round" stroke-width="3" d="m60 54 13 4-13 6z"/></g><circle cx="74" cy="24" r="3.5" fill="url(#c)" opacity=".92"/><circle cx="68" cy="30" r="1.8" fill="#fff" opacity=".82"/></svg>