<svg xmlns="http://www.w3.org/2000/svg" aria-label="sun" viewBox="0 0 100 100"><defs><linearGradient id="b" x1="12%" x2="88%" y1="10%" y2="92%"><stop offset="0%" stop-color="#fff" stop-opacity=".94"/><stop offset="22%" stop-color="#d8e6f2" stop-opacity=".96"/><stop offset="68%" stop-color="#37506a" stop-opacity=".22"/><stop offset="100%" stop-color="#0f172a" stop-opacity=".08"/></linearGradient><linearGradient id="c" x1="10%" x2="88%" y1="8%" y2="94%"><stop offset="0%" stop-color="#fff" stop-opacity=".9"/><stop offset="24%" stop-color="#d8e6f2" stop-opacity=".92"/><stop offset="100%" stop-color="#38bdf8"/></linearGradient><radialGradient id="a" cx="26%" cy="18%" r="84%"><stop offset="0%" stop-color="#38bdf8" stop-opacity=".22"/><stop offset="42%" stop-color="#d8e6f2" stop-opacity=".18"/><stop offset="100%" stop-color="#fff" stop-opacity="0"/></radialGradient></defs><rect width="72" height="72" x="14" y="16" fill="#0f172a" opacity=".12" rx="22"/><rect width="76" height="76" x="12" y="12" fill="url(#a)" rx="22"/><rect width="76" height="76" x="12" y="12" fill="url(#b)" stroke="#0f172a" stroke-linecap="round" stroke-linejoin="round" stroke-width="2.4" opacity=".98" rx="22"/><rect width="64" height="64" x="18" y="18" fill="none" stroke="#fff" stroke-linecap="round" stroke-linejoin="round" stroke-width="1.4" opacity=".28" rx="16"/><path fill="none" stroke="#fff" stroke-linecap="round" stroke-linejoin="round" stroke-width="3" d="M22 24h42" opacity=".34"/><g stroke="#0f172a" stroke-linecap="round" stroke-linejoin="round" stroke-width="3" opacity=".16" transform="translate(0 3)"><circle cx="50" cy="50" r="18" fill="#0f172a"/><path fill="none" d="M50 18v10m0 44v10M18 50h10m44 0h10M28 28l6 6m32 32 6 6m-6-38 6-6M28 72l6-6"/></g><g stroke="#0f172a" stroke-linecap="round" stroke-linejoin="round" stroke-width="3" transform="translate(0 1)"><circle cx="50" cy="50" r="18" fill="url(#c)"/><path fill="none" d="M50 18v10m0 44v10M18 50h10m44 0h10M28 28l6 6m32 32 6 6m-6-38 6-6M28 72l6-6"/></g><circle cx="76" cy="24" r="2.8" fill="url(#c)" opacity=".78"/></svg>