<svg xmlns="http://www.w3.org/2000/svg" aria-label="video_icon" viewBox="0 0 100 100"><defs><linearGradient id="b" x1="12%" x2="88%" y1="10%" y2="92%"><stop offset="0%" stop-color="#fff" stop-opacity=".94"/><stop offset="22%" stop-color="#d8e6f2" stop-opacity=".96"/><stop offset="68%" stop-color="#37506a" stop-opacity=".22"/><stop offset="100%" stop-color="#0f172a" stop-opacity=".08"/></linearGradient><linearGradient id="c" x1="18%" x2="84%" y1="10%" y2="92%"><stop offset="0%" stop-color="#d8e6f2" stop-opacity=".88"/><stop offset="28%" stop-color="#37506a" stop-opacity=".98"/><stop offset="100%" stop-color="#0f172a" stop-opacity=".92"/></linearGradient><linearGradient id="e" x1="10%" x2="88%" y1="8%" y2="94%"><stop offset="0%" stop-color="#fff" stop-opacity=".9"/><stop offset="24%" stop-color="#d8e6f2" stop-opacity=".92"/><stop offset="100%" stop-color="#38bdf8"/></linearGradient><linearGradient id="d" x1="8%" x2="92%" y1="8%" y2="92%"><stop offset="0%" stop-color="#fff" stop-opacity=".96"/><stop offset="100%" stop-color="#d8e6f2" stop-opacity=".94"/></linearGradient><radialGradient id="a" cx="26%" cy="18%" r="84%"><stop offset="0%" stop-color="#38bdf8" stop-opacity=".22"/><stop offset="42%" stop-color="#d8e6f2" stop-opacity=".18"/><stop offset="100%" stop-color="#fff" stop-opacity="0"/></radialGradient></defs><circle cx="50" cy="54" r="39" fill="#0f172a" opacity=".12"/><circle cx="50" cy="50" r="44" fill="url(#a)"/><circle cx="50" cy="50" r="40" fill="url(#b)" stroke="#0f172a" stroke-linecap="round" stroke-linejoin="round" stroke-width="2.4" opacity=".98"/><circle cx="50" cy="50" r="34" fill="none" stroke="#fff" stroke-linecap="round" stroke-linejoin="round" stroke-width="1.4" opacity=".34"/><path fill="none" stroke="#fff" stroke-linecap="round" stroke-linejoin="round" stroke-width="3" d="M28 31q22-11 44-3" opacity=".42"/><g fill="#0f172a" stroke="#0f172a" stroke-linecap="round" stroke-linejoin="round" stroke-width="3" opacity=".16" transform="translate(0 3)"><rect width="50" height="32" x="20" y="32" rx="8"/><path d="m44 40 16 8-16 8zm26 0 12-6v28l-12-6z"/></g><g stroke="#0f172a" stroke-linecap="round" stroke-linejoin="round" stroke-width="3" transform="translate(0 1)"><rect width="50" height="32" x="20" y="32" fill="url(#c)" rx="8"/><path fill="url(#d)" d="m44 40 16 8-16 8z"/><path fill="url(#e)" d="m70 40 12-6v28l-12-6z"/></g><circle cx="74" cy="24" r="3.5" fill="url(#e)" opacity=".92"/><circle cx="68" cy="30" r="1.8" fill="#fff" opacity=".82"/></svg>