<svg xmlns="http://www.w3.org/2000/svg" viewBox="0 0 200 400"><rect width="60" height="120" x="70" y="150" fill="#a78bfa" stroke="#1e293b" stroke-width="2.5" rx="30"/><path fill="none" stroke="#a78bfa" stroke-linecap="round" stroke-width="20" d="M70 180c-30 20-30 70-20 100m80-100c30 20 30 70 20 100"/><circle cx="50" cy="280" r="15" fill="#8d5524" stroke="#1e293b" stroke-width="2.5"/><circle cx="150" cy="280" r="15" fill="#8d5524" stroke="#1e293b" stroke-width="2.5"/><rect width="15" height="100" x="80" y="270" fill="#8d5524" stroke="#1e293b" stroke-width="2.5" rx="7.5"/><rect width="15" height="100" x="105" y="270" fill="#8d5524" stroke="#1e293b" stroke-width="2.5" rx="7.5"/><path fill="#2d2d2d" d="M70 370h25c0-10-10-15-25-10Zm35 0h25c0-10-10-15-25-10Z"/><circle cx="100" cy="100" r="45" fill="#8d5524" stroke="#1e293b" stroke-width="2.5"/><circle cx="85" cy="90" r="3"/><circle cx="115" cy="90" r="3"/><path fill="none" stroke="#000" stroke-linecap="round" stroke-width="3" d="M90 115q10-10 20 0"/></svg>